<svg width="31" height="40" viewBox="0 0 31 40" fill="none" xmlns="http://www.w3.org/2000/svg">
<path d="M2.07716 0.507179C1.39556 0.752377 0.867163 1.28078 0.606763 1.95438C0.499563 2.24558 0.491964 4.02958 0.507164 20.1576L0.529964 38.0392L0.736763 38.3912C1.00476 38.8508 1.53316 39.3256 1.95436 39.4864C2.26836 39.6012 3.27156 39.6088 15.31 39.5936C27.7008 39.5708 28.344 39.5628 28.5816 39.4328C29.0336 39.1876 29.4624 38.736 29.6844 38.2688L29.8988 37.8092V22.6768C29.8988 9.11438 29.8836 7.50598 29.7764 7.16918C29.6692 6.83238 29.3704 6.51078 26.6212 3.77678C24.2856 1.46398 23.4892 0.72118 23.198 0.583179L22.8152 0.399582L12.5916 0.407177C4.19076 0.407578 2.31436 0.422779 2.07716 0.507179ZM21.7048 4.91838C21.7048 8.12718 21.72 8.24958 22.1568 8.47158C22.356 8.57878 22.8076 8.59398 25.3424 8.59398H28.2908V23.1292C28.2908 36.0792 28.2756 37.6872 28.1684 37.8328L28.0536 38.0012H15.1952C3.60836 38.0012 2.32956 37.986 2.22236 37.8788C2.11516 37.7716 2.09996 36.0484 2.09996 20.0508C2.09996 1.56398 2.09236 2.17678 2.40636 2.06198C2.46756 2.03918 6.84036 2.01598 12.1168 2.01598L21.7048 2.00838V4.91838ZM25.4572 4.90278C26.5524 5.97478 27.4484 6.87878 27.4484 6.91678C27.4484 6.96278 26.6368 6.97798 25.4036 6.97038L23.3512 6.94758L23.3284 4.93358C23.3208 3.60878 23.336 2.91958 23.3896 2.94238C23.4276 2.94998 24.362 3.83838 25.4572 4.90278Z" fill="#877A72"/>
<path d="M13.0511 15.2796C10.9299 15.9996 9.72753 18.4116 10.4475 20.4948C10.6619 21.1228 10.9375 21.5744 11.4279 22.0876C12.2167 22.9148 13.0515 23.2976 14.0851 23.2976C15.0731 23.2976 16.1759 22.8152 16.7883 22.1184C17.2171 21.6208 17.0639 20.9696 16.4667 20.7708C16.1451 20.6636 15.8615 20.7632 15.5019 21.1152C14.5059 22.08 12.7675 21.7892 12.1395 20.5484C11.7947 19.882 11.7567 18.9248 12.0247 18.1284C12.2163 17.5848 12.8211 16.9952 13.3571 16.8344C14.1843 16.5892 14.8427 16.7272 15.4935 17.286C15.7767 17.5312 15.9683 17.6308 16.1215 17.6308C16.6191 17.6308 16.9487 17.3016 16.9563 16.8036C16.9563 16.4052 16.6883 16.0836 15.9991 15.678C15.0191 15.096 13.9931 14.958 13.0511 15.2796Z" fill="#877A72"/>
<path d="M18.3964 15.4864C18.1592 15.67 17.998 16.0376 18.0516 16.26C18.0748 16.3444 18.6872 17.8836 19.4224 19.6756C20.234 21.6744 20.816 22.9992 20.9312 23.114C21.1684 23.3516 21.674 23.3668 21.9572 23.1448C22.1028 23.03 22.478 22.1644 23.504 19.6068C24.9896 15.8928 24.982 15.908 24.5304 15.5328C24.2548 15.2956 23.91 15.2724 23.5808 15.4716C23.3816 15.594 23.236 15.9004 22.4396 17.9068C21.942 19.1628 21.5052 20.2196 21.4824 20.25C21.452 20.288 21 19.2544 20.4792 17.9676C19.6444 15.9 19.5068 15.6012 19.3 15.4788C18.9936 15.2948 18.634 15.2948 18.3964 15.4864Z" fill="#877A72"/>
<path d="M6.11272 26.5908C5.60712 26.7976 5.46192 27.5096 5.84472 27.9004L6.06672 28.1224H15.1875H24.3083L24.5455 27.908C24.7447 27.732 24.7907 27.6324 24.7907 27.3872C24.7907 27.0044 24.5991 26.7056 24.2931 26.5984C24.0019 26.4988 6.35792 26.4912 6.11272 26.5908Z" fill="#877A72"/>
<path d="M5.88311 31.7524C5.50791 32.1276 5.53871 32.6252 5.95951 32.9624C6.11271 33.0848 6.70991 33.1004 15.2027 33.1004C24.1931 33.1004 24.2927 33.1004 24.4843 32.9472C24.7751 32.7176 24.8827 32.3344 24.7371 32.0052C24.5151 31.454 25.1583 31.492 15.1491 31.492H6.14351L5.88311 31.7524Z" fill="#877A72"/>
</svg>
