<svg width="31" height="40" viewBox="0 0 31 40" fill="none" xmlns="http://www.w3.org/2000/svg">
<path d="M2.07741 0.507179C1.39581 0.752377 0.867408 1.28078 0.607008 1.95438C0.499808 2.24558 0.492208 4.02958 0.507408 20.1576L0.530208 38.0392L0.737007 38.3912C1.00501 38.8508 1.53341 39.3256 1.95461 39.4864C2.26861 39.6012 3.27181 39.6088 15.3102 39.5936C27.701 39.5708 28.3442 39.5628 28.5818 39.4328C29.0338 39.1876 29.4626 38.736 29.6846 38.2688L29.899 37.8092V22.6768C29.899 9.11438 29.8838 7.50598 29.7766 7.16918C29.6694 6.83238 29.3706 6.51078 26.6214 3.77678C24.2858 1.46398 23.4894 0.72118 23.1982 0.583179L22.8154 0.399582L12.5918 0.407177C4.19101 0.407578 2.31461 0.422779 2.07741 0.507179ZM21.705 4.91838C21.705 8.12718 21.7202 8.24958 22.157 8.47158C22.3562 8.57878 22.8078 8.59398 25.3426 8.59398H28.291V23.1292C28.291 36.0792 28.2758 37.6872 28.1686 37.8328L28.0538 38.0012H15.1954C3.60861 38.0012 2.32981 37.986 2.22261 37.8788C2.11541 37.7716 2.10021 36.0484 2.10021 20.0508C2.10021 1.56398 2.09261 2.17678 2.40661 2.06198C2.46781 2.03918 6.84061 2.01598 12.117 2.01598L21.705 2.00838V4.91838ZM25.4574 4.90278C26.5526 5.97478 27.4486 6.87878 27.4486 6.91678C27.4486 6.96278 26.637 6.97798 25.4038 6.97038L23.3514 6.94758L23.3286 4.93358C23.321 3.60878 23.3362 2.91958 23.3898 2.94238C23.4278 2.94998 24.3622 3.83838 25.4574 4.90278Z" fill="white"/>
<path d="M13.0513 15.2796C10.9301 15.9996 9.72766 18.4116 10.4477 20.4948C10.6621 21.1228 10.9377 21.5744 11.4281 22.0876C12.2169 22.9148 13.0517 23.2976 14.0853 23.2976C15.0733 23.2976 16.1761 22.8152 16.7885 22.1184C17.2173 21.6208 17.0641 20.9696 16.4669 20.7708C16.1453 20.6636 15.8617 20.7632 15.5021 21.1152C14.5061 22.08 12.7677 21.7892 12.1397 20.5484C11.7949 19.882 11.7569 18.9248 12.0249 18.1284C12.2165 17.5848 12.8213 16.9952 13.3573 16.8344C14.1845 16.5892 14.8429 16.7272 15.4937 17.286C15.7769 17.5312 15.9685 17.6308 16.1217 17.6308C16.6193 17.6308 16.9489 17.3016 16.9565 16.8036C16.9565 16.4052 16.6885 16.0836 15.9993 15.678C15.0193 15.096 13.9933 14.958 13.0513 15.2796Z" fill="white"/>
<path d="M18.3966 15.4864C18.1594 15.67 17.9982 16.0376 18.0518 16.26C18.075 16.3444 18.6874 17.8836 19.4226 19.6756C20.2342 21.6744 20.8162 22.9992 20.9314 23.114C21.1686 23.3516 21.6742 23.3668 21.9574 23.1448C22.103 23.03 22.4782 22.1644 23.5042 19.6068C24.9898 15.8928 24.9822 15.908 24.5306 15.5328C24.255 15.2956 23.9102 15.2724 23.581 15.4716C23.3818 15.594 23.2362 15.9004 22.4398 17.9068C21.9422 19.1628 21.5054 20.2196 21.4826 20.25C21.4522 20.288 21.0002 19.2544 20.4794 17.9676C19.6446 15.9 19.507 15.6012 19.3002 15.4788C18.9938 15.2948 18.6342 15.2948 18.3966 15.4864Z" fill="white"/>
<path d="M6.11284 26.5908C5.60724 26.7976 5.46204 27.5096 5.84484 27.9004L6.06684 28.1224H15.1876H24.3084L24.5456 27.908C24.7448 27.732 24.7908 27.6324 24.7908 27.3872C24.7908 27.0044 24.5992 26.7056 24.2932 26.5984C24.002 26.4988 6.35804 26.4912 6.11284 26.5908Z" fill="white"/>
<path d="M5.88324 31.7524C5.50804 32.1276 5.53883 32.6252 5.95963 32.9624C6.11283 33.0848 6.71004 33.1004 15.2028 33.1004C24.1932 33.1004 24.2928 33.1004 24.4844 32.9472C24.7752 32.7176 24.8828 32.3344 24.7372 32.0052C24.5152 31.454 25.1584 31.492 15.1492 31.492H6.14363L5.88324 31.7524Z" fill="white"/>
</svg>
