<svg width="40" height="40" viewBox="0 0 40 40" fill="none" xmlns="http://www.w3.org/2000/svg">
<rect width="40" height="40" rx="20" fill="#877A72"/>
<path d="M10.321 28V14.9091H14.4886V28H10.321ZM12.4091 13.3835C11.8239 13.3835 11.321 13.1903 10.9006 12.804C10.4801 12.4119 10.2699 11.9403 10.2699 11.3892C10.2699 10.8437 10.4801 10.3778 10.9006 9.99148C11.321 9.59943 11.8239 9.40341 12.4091 9.40341C13 9.40341 13.5028 9.59943 13.9176 9.99148C14.3381 10.3778 14.5483 10.8437 14.5483 11.3892C14.5483 11.9403 14.3381 12.4119 13.9176 12.804C13.5028 13.1903 13 13.3835 12.4091 13.3835ZM21.3089 20.5341V28H17.1413V14.9091H21.1044V17.3125H21.2493C21.5391 16.5114 22.0334 15.8835 22.7322 15.429C23.4311 14.9688 24.2635 14.7386 25.2294 14.7386C26.1499 14.7386 26.9482 14.946 27.6243 15.3608C28.3061 15.7699 28.8345 16.3437 29.2095 17.0824C29.5902 17.8153 29.7777 18.6733 29.772 19.6562V28H25.6044V20.4744C25.6101 19.7472 25.4254 19.179 25.0504 18.7699C24.6811 18.3608 24.1669 18.1562 23.5078 18.1562C23.0703 18.1562 22.6839 18.2528 22.3487 18.446C22.0192 18.6335 21.7635 18.9034 21.5817 19.2557C21.4055 19.608 21.3146 20.0341 21.3089 20.5341Z" fill="#F1EFE3"/>
</svg>
