<svg width="40" height="40" viewBox="0 0 40 40" fill="none" xmlns="http://www.w3.org/2000/svg">
<g clip-path="url(#clip0_503_20)">
<path d="M20 0.408142C9.17963 0.408142 0.408203 9.17957 0.408203 20C0.408203 30.8204 9.17963 39.5918 20 39.5918C30.8204 39.5918 39.5919 30.8204 39.5919 20C39.5919 9.17957 30.8204 0.408142 20 0.408142ZM15.2041 28.1183H11.2368V15.3551H15.2041V28.1183ZM13.196 13.7877C11.9429 13.7877 11.1307 12.8979 11.1307 11.8C11.1307 10.6775 11.9633 9.8163 13.2449 9.8163C14.5266 9.8163 15.3102 10.6775 15.3347 11.8C15.3388 12.902 14.5266 13.7877 13.196 13.7877ZM29.6898 28.1183H25.7225V21.0449C25.7225 19.4 25.147 18.2775 23.7102 18.2775C22.6164 18.2775 21.9633 19.0367 21.6735 19.7632C21.5674 20.0204 21.5429 20.3877 21.5429 20.7551V28.1143H17.5715V19.4204C17.5715 17.8285 17.5225 16.4939 17.4653 15.3469H20.9102L21.0939 17.1183H21.1715C21.6939 16.2857 22.9755 15.0571 25.1143 15.0571C27.7225 15.0571 29.6817 16.8041 29.6817 20.5632V28.1183H29.6898Z" fill="white"/>
</g>
<defs>
<clipPath id="clip0_503_20">
<rect width="40" height="40" fill="white"/>
</clipPath>
</defs>
</svg>
