<svg width="41" height="55" viewBox="0 0 41 55" fill="none" xmlns="http://www.w3.org/2000/svg">
<path d="M22.2351 13.8196C31.7525 14.6598 39.332 21.8219 40.7233 31.2921C41.4231 36.0698 40.2368 41.28 37.531 45.3021C35.4483 48.408 32.811 50.7074 29.4651 52.3455C27.3911 53.3554 25.3083 53.9748 22.9353 54.2974C21.8939 54.4414 19.0262 54.4414 17.9848 54.2974C13.3415 53.6693 9.21858 51.675 6.04347 48.5184C3.03915 45.5312 1.05032 41.7636 0.324612 37.6734C-0.196083 34.7625 -0.0937805 31.9625 0.657406 29.0006C1.51966 25.5892 3.38865 22.3222 5.9324 19.7849C10.2341 15.483 16.226 13.2849 22.2351 13.8196ZM18.4537 17.1547C17.0879 17.7998 16.4736 19.183 16.6954 21.0921C16.8235 22.1698 17.0198 22.9083 17.7367 25.0806C18.394 27.0749 18.4453 27.4311 18.0695 27.6179C17.9075 27.7026 16.9939 27.7283 14.3478 27.7283C10.336 27.7283 10.2508 27.7366 9.55095 28.3647C9.00479 28.8483 8.75718 29.417 8.75718 30.1468C8.75718 31.0293 9.23528 31.8525 9.96058 32.2087L10.3021 32.3698L9.92633 32.5138C9.49124 32.6749 8.90207 33.2689 8.70581 33.7359C8.48409 34.2449 8.52668 35.0087 8.79977 35.5604C9.03861 36.0527 9.50836 36.5193 9.8495 36.604C10.1055 36.6717 10.0971 36.7398 9.79815 36.9179C9.19227 37.2744 8.67993 38.1483 8.67993 38.8444C8.67993 39.2687 8.93589 39.9138 9.24321 40.27C9.69584 40.7963 10.1226 40.9914 10.9761 41.0421L11.7018 41.0932L11.3519 41.3223C10.3702 41.967 10.4216 43.427 11.4542 44.0634L11.8638 44.3178H16.1834C21.501 44.3091 23.3875 44.1734 26.2812 43.588C27.7577 43.2912 29.61 43.0874 30.899 43.0874C31.8552 43.0874 32.2477 42.9853 32.3583 42.7055C32.4523 42.451 32.418 32.1659 32.3157 31.9455C32.1366 31.5636 31.9487 31.5125 30.233 31.4532C28.4575 31.3855 28.1673 31.3257 27.6554 30.9608C26.9727 30.4685 25.8545 29.0347 24.8473 27.3543C23.917 25.793 23.4389 25.1055 22.6539 24.1719C21.2626 22.5256 21.1089 22.1947 20.5882 19.7085C20.2467 18.0709 20.0763 17.4851 19.8796 17.256C19.5548 16.9002 19.0683 16.8662 18.4537 17.1547Z" fill="#5B46AE"/>
<rect width="3.32698" height="10.6829" rx="1.66349" transform="matrix(0.973369 -0.241379 0.249307 0.965461 14.4614 0.803101)" fill="#5B46AE"/>
<rect width="3.32698" height="10.6829" rx="1.66349" transform="matrix(0.973369 -0.241379 0.249307 0.965461 14.4614 0.803101)" fill="#5B46AE"/>
<rect width="3.29642" height="8.43975" rx="1.64821" transform="matrix(0.66169 -0.752129 0.762536 0.644237 7.27979 7.0116)" fill="#5B46AE"/>
<rect width="3.29642" height="8.43975" rx="1.64821" transform="matrix(0.66169 -0.752129 0.762536 0.644237 7.27979 7.0116)" fill="#5B46AE"/>
<rect width="3.33372" height="8.34418" rx="1.66686" transform="matrix(0.974168 0.229906 -0.238425 0.970192 23.3169 1.07117)" fill="#5B46AE"/>
<rect width="3.33372" height="8.34418" rx="1.66686" transform="matrix(0.974168 0.229906 -0.238425 0.970192 23.3169 1.07117)" fill="#5B46AE"/>
</svg>
