<svg width="210" height="50" viewBox="0 0 210 50" fill="none" xmlns="http://www.w3.org/2000/svg">
<path d="M198.298 11.9358L198.365 12.2148L198.64 12.297L207.675 15L198.64 17.703L198.365 17.7852L198.298 18.0642L195.92 27.8769L193.542 18.0642L193.474 17.7852L193.199 17.703L184.164 15L193.199 12.297L193.474 12.2148L193.542 11.9358L195.92 2.12307L198.298 11.9358Z" fill="#48DFB7" stroke="#5B46AE"/>
<path d="M47.856 22.12L51.412 30.24L55.052 22.12H60.988L54.128 35.42V42H48.696V35.364L41.948 22.12H47.856ZM67.3228 42.28C66.0161 42.28 64.8588 42.0747 63.8508 41.664C62.8428 41.2533 61.9935 40.6933 61.3028 39.984C60.6308 39.256 60.1175 38.4347 59.7628 37.52C59.4268 36.6053 59.2588 35.644 59.2588 34.636C59.2588 33.628 59.4268 32.6667 59.7628 31.752C60.1175 30.8187 60.6308 29.9973 61.3028 29.288C61.9935 28.5787 62.8428 28.0187 63.8508 27.608C64.8588 27.1973 66.0161 26.992 67.3228 26.992C68.6481 26.992 69.8055 27.1973 70.7948 27.608C71.8028 28.0187 72.6428 28.5787 73.3148 29.288C74.0055 29.9973 74.5188 30.8187 74.8548 31.752C75.2095 32.6667 75.3868 33.628 75.3868 34.636C75.3868 35.644 75.2095 36.6053 74.8548 37.52C74.5188 38.4347 74.0055 39.256 73.3148 39.984C72.6428 40.6933 71.8028 41.2533 70.7948 41.664C69.8055 42.0747 68.6481 42.28 67.3228 42.28ZM64.7188 34.636C64.7188 35.2893 64.8308 35.8587 65.0548 36.344C65.2788 36.8107 65.5868 37.1747 65.9788 37.436C66.3708 37.6787 66.8188 37.8 67.3228 37.8C67.8268 37.8 68.2748 37.6787 68.6668 37.436C69.0588 37.1747 69.3668 36.8107 69.5908 36.344C69.8148 35.8587 69.9268 35.2893 69.9268 34.636C69.9268 33.9827 69.8148 33.4227 69.5908 32.956C69.3668 32.4707 69.0588 32.1067 68.6668 31.864C68.2748 31.6027 67.8268 31.472 67.3228 31.472C66.8188 31.472 66.3708 31.6027 65.9788 31.864C65.5868 32.1067 65.2788 32.4707 65.0548 32.956C64.8308 33.4227 64.7188 33.9827 64.7188 34.636ZM77.69 36.96V27.272H83.01V35.756C83.01 36.3907 83.15 36.8947 83.43 37.268C83.7287 37.6227 84.13 37.8 84.634 37.8C84.914 37.8 85.194 37.7627 85.474 37.688C85.754 37.6133 86.034 37.464 86.314 37.24C86.6127 37.016 86.902 36.6987 87.182 36.288V27.272H92.502V36.12C92.502 36.624 92.5767 36.9787 92.726 37.184C92.8753 37.3707 93.1367 37.4827 93.51 37.52V42C93.0433 42.0933 92.6233 42.1587 92.25 42.196C91.8767 42.252 91.55 42.28 91.27 42.28C90.374 42.28 89.6647 42.112 89.142 41.776C88.6193 41.44 88.2833 40.9267 88.134 40.236L88.022 39.704C87.3313 40.6187 86.5007 41.2813 85.53 41.692C84.578 42.084 83.4953 42.28 82.282 42.28C80.8073 42.28 79.6687 41.8227 78.866 40.908C78.082 39.9933 77.69 38.6773 77.69 36.96ZM106.241 31.808C105.215 31.808 104.281 31.92 103.441 32.144C102.601 32.368 101.976 32.7413 101.565 33.264V42H96.2455V27.272H101.117V30.072C101.64 29.0827 102.293 28.3267 103.077 27.804C103.861 27.2627 104.692 26.992 105.569 26.992C105.775 26.992 105.915 26.992 105.989 26.992C106.083 26.992 106.167 27.0013 106.241 27.02V31.808ZM115.093 42V22.12H123.661C124.631 22.12 125.527 22.316 126.349 22.708C127.17 23.1 127.879 23.632 128.477 24.304C129.074 24.9573 129.531 25.6947 129.849 26.516C130.185 27.3373 130.353 28.168 130.353 29.008C130.353 30.184 130.073 31.2947 129.513 32.34C128.971 33.3853 128.206 34.244 127.217 34.916C126.246 35.5693 125.107 35.896 123.801 35.896H120.553V42H115.093ZM120.553 31.136H123.437C123.661 31.136 123.875 31.0707 124.081 30.94C124.286 30.8093 124.454 30.5853 124.585 30.268C124.734 29.9507 124.809 29.5307 124.809 29.008C124.809 28.448 124.725 28.0187 124.557 27.72C124.407 27.4027 124.211 27.188 123.969 27.076C123.745 26.9453 123.521 26.88 123.297 26.88H120.553V31.136ZM142.73 31.808C141.703 31.808 140.77 31.92 139.93 32.144C139.09 32.368 138.465 32.7413 138.054 33.264V42H132.734V27.272H137.606V30.072C138.129 29.0827 138.782 28.3267 139.566 27.804C140.35 27.2627 141.181 26.992 142.058 26.992C142.263 26.992 142.403 26.992 142.478 26.992C142.571 26.992 142.655 27.0013 142.73 27.02V31.808ZM152.195 42.28C150.888 42.28 149.731 42.0747 148.723 41.664C147.715 41.2533 146.865 40.6933 146.175 39.984C145.503 39.256 144.989 38.4347 144.635 37.52C144.299 36.6053 144.131 35.644 144.131 34.636C144.131 33.628 144.299 32.6667 144.635 31.752C144.989 30.8187 145.503 29.9973 146.175 29.288C146.865 28.5787 147.715 28.0187 148.723 27.608C149.731 27.1973 150.888 26.992 152.195 26.992C153.52 26.992 154.677 27.1973 155.667 27.608C156.675 28.0187 157.515 28.5787 158.187 29.288C158.877 29.9973 159.391 30.8187 159.727 31.752C160.081 32.6667 160.259 33.628 160.259 34.636C160.259 35.644 160.081 36.6053 159.727 37.52C159.391 38.4347 158.877 39.256 158.187 39.984C157.515 40.6933 156.675 41.2533 155.667 41.664C154.677 42.0747 153.52 42.28 152.195 42.28ZM149.591 34.636C149.591 35.2893 149.703 35.8587 149.927 36.344C150.151 36.8107 150.459 37.1747 150.851 37.436C151.243 37.6787 151.691 37.8 152.195 37.8C152.699 37.8 153.147 37.6787 153.539 37.436C153.931 37.1747 154.239 36.8107 154.463 36.344C154.687 35.8587 154.799 35.2893 154.799 34.636C154.799 33.9827 154.687 33.4227 154.463 32.956C154.239 32.4707 153.931 32.1067 153.539 31.864C153.147 31.6027 152.699 31.472 152.195 31.472C151.691 31.472 151.243 31.6027 150.851 31.864C150.459 32.1067 150.151 32.4707 149.927 32.956C149.703 33.4227 149.591 33.9827 149.591 34.636ZM163.738 32.984H161.918V28.98H163.738V27.384C163.738 26.4507 163.896 25.6107 164.214 24.864C164.55 24.1173 165.016 23.4827 165.614 22.96C166.211 22.4187 166.92 22.008 167.742 21.728C168.563 21.4293 169.459 21.28 170.43 21.28C171.158 21.28 171.858 21.364 172.53 21.532C173.22 21.6813 173.92 21.924 174.63 22.26C175.339 22.596 176.086 23.016 176.87 23.52L174.854 27.552C174.219 26.992 173.547 26.5533 172.838 26.236C172.128 25.9187 171.447 25.76 170.794 25.76C170.439 25.76 170.131 25.816 169.87 25.928C169.608 26.0213 169.403 26.18 169.254 26.404C169.123 26.6093 169.058 26.8707 169.058 27.188V28.98H177.43V42H172.11V32.984H169.058V42H163.738V32.984ZM180.54 21.56H185.86V36.148C185.86 36.6893 185.972 37.1093 186.196 37.408C186.439 37.688 186.784 37.828 187.232 37.828C187.456 37.828 187.699 37.7907 187.96 37.716C188.222 37.6413 188.464 37.5387 188.688 37.408L189.36 41.328C188.726 41.6267 188.007 41.86 187.204 42.028C186.42 42.196 185.674 42.28 184.964 42.28C183.546 42.28 182.454 41.916 181.688 41.188C180.923 40.4413 180.54 39.3867 180.54 38.024V21.56ZM198.417 42.28C197.129 42.28 195.981 42.084 194.973 41.692C193.965 41.2813 193.116 40.7307 192.425 40.04C191.753 39.3493 191.24 38.556 190.885 37.66C190.531 36.764 190.353 35.8213 190.353 34.832C190.353 33.4133 190.661 32.116 191.277 30.94C191.893 29.7453 192.799 28.7933 193.993 28.084C195.188 27.356 196.663 26.992 198.417 26.992C200.172 26.992 201.647 27.3467 202.841 28.056C204.036 28.7653 204.941 29.6987 205.557 30.856C206.173 32.0133 206.481 33.2733 206.481 34.636C206.481 34.916 206.463 35.2053 206.425 35.504C206.407 35.784 206.379 36.036 206.341 36.26H196.009C196.047 36.7827 196.187 37.212 196.429 37.548C196.691 37.8653 197.008 38.0987 197.381 38.248C197.773 38.3973 198.175 38.472 198.585 38.472C199.164 38.472 199.705 38.3413 200.209 38.08C200.732 37.8187 201.077 37.4547 201.245 36.988L205.753 38.276C205.361 39.06 204.811 39.7507 204.101 40.348C203.411 40.9453 202.589 41.4213 201.637 41.776C200.685 42.112 199.612 42.28 198.417 42.28ZM195.897 33.068H200.769C200.713 32.5827 200.573 32.172 200.349 31.836C200.144 31.5 199.864 31.2387 199.509 31.052C199.173 30.8653 198.781 30.772 198.333 30.772C197.885 30.772 197.484 30.8653 197.129 31.052C196.793 31.2387 196.513 31.5 196.289 31.836C196.084 32.172 195.953 32.5827 195.897 33.068Z" fill="#5B46AE"/>
<path d="M20.1933 12.7005C28.8369 13.4727 35.7205 20.0548 36.984 28.7582C37.6196 33.149 36.5422 37.9373 34.0849 41.6338C32.1933 44.4882 29.7982 46.6014 26.7595 48.1069C24.8759 49.0351 22.9843 49.6043 20.8292 49.9007C19.8835 50.0331 17.279 50.0331 16.3332 49.9007C12.1163 49.3235 8.37185 47.4907 5.48825 44.5897C2.75976 41.8444 0.953533 38.3818 0.294449 34.6228C-0.17844 31.9476 -0.0855293 29.3744 0.596687 26.6523C1.37978 23.517 3.07717 20.5146 5.38738 18.1828C9.29411 14.2292 14.7359 12.2091 20.1933 12.7005ZM16.7591 15.7655C15.5186 16.3584 14.9608 17.6296 15.1622 19.3841C15.2786 20.3745 15.4568 21.0533 16.1079 23.0497C16.7048 24.8825 16.7515 25.2098 16.4102 25.3815C16.263 25.4593 15.4333 25.483 13.0302 25.483C9.38664 25.483 9.30928 25.4906 8.6737 26.0678C8.17768 26.5123 7.95281 27.0349 7.95281 27.7056C7.95281 28.5167 8.38701 29.2733 9.04572 29.6006L9.35592 29.7486L9.01462 29.881C8.61947 30.029 8.0844 30.575 7.90616 31.0042C7.7048 31.4719 7.74348 32.1739 7.99149 32.6809C8.2084 33.1334 8.63502 33.5622 8.94485 33.64C9.17731 33.7022 9.16973 33.7648 8.8982 33.9284C8.34795 34.2562 7.88265 35.0592 7.88265 35.699C7.88265 36.0889 8.11511 36.6818 8.39422 37.0091C8.80529 37.4929 9.19286 37.6722 9.96799 37.7187L10.6271 37.7657L10.3093 37.9763C9.41774 38.5687 9.46438 39.9105 10.4022 40.4954L10.7742 40.7292H14.6972C19.5266 40.7212 21.2399 40.5965 23.8679 40.0585C25.2089 39.7858 26.8911 39.5984 28.0617 39.5984C28.9301 39.5984 29.2866 39.5046 29.3871 39.2474C29.4724 39.0136 29.4413 29.5613 29.3484 29.3587C29.1857 29.0077 29.0151 28.9608 27.4569 28.9062C25.8444 28.8441 25.5809 28.7891 25.1159 28.4538C24.4959 28.0013 23.4804 26.6836 22.5657 25.1392C21.7208 23.7044 21.2866 23.0726 20.5736 22.2146C19.3101 20.7015 19.1705 20.3974 18.6976 18.1126C18.3874 16.6075 18.2327 16.0692 18.0541 15.8586C17.7591 15.5317 17.3173 15.5004 16.7591 15.7655Z" fill="#5B46AE"/>
<rect width="3.02363" height="9.81066" rx="1.51181" transform="matrix(0.972693 -0.244091 0.246547 0.96617 13.1328 0.738037)" fill="#5B46AE"/>
<rect width="3.02363" height="9.81066" rx="1.51181" transform="matrix(0.972693 -0.244091 0.246547 0.96617 13.1328 0.738037)" fill="#5B46AE"/>
<rect width="3.01397" height="7.70313" rx="1.50698" transform="matrix(0.657256 -0.756007 0.758751 0.64869 6.61133 6.44388)" fill="#5B46AE"/>
<rect width="3.01397" height="7.70313" rx="1.50698" transform="matrix(0.657256 -0.756007 0.758751 0.64869 6.61133 6.44388)" fill="#5B46AE"/>
<rect width="3.02957" height="7.66343" rx="1.51478" transform="matrix(0.973552 0.232503 -0.23577 0.970841 21.1758 0.984291)" fill="#5B46AE"/>
<rect width="3.02957" height="7.66343" rx="1.51478" transform="matrix(0.973552 0.232503 -0.23577 0.970841 21.1758 0.984291)" fill="#5B46AE"/>
</svg>
