<svg width="218" height="58" viewBox="0 0 218 58" fill="none" xmlns="http://www.w3.org/2000/svg">
<g filter="url(#filter0_d_697_16)">
<path d="M200.298 11.9358L200.366 12.2148L200.641 12.297L209.676 15L200.641 17.703L200.366 17.7852L200.298 18.0642L197.92 27.8769L195.542 18.0642L195.475 17.7852L195.2 17.703L186.165 15L195.2 12.297L195.475 12.2148L195.542 11.9358L197.92 2.12307L200.298 11.9358Z" fill="#48DFB7" stroke="#5B46AE"/>
<path d="M49.8563 22.12L53.4123 30.24L57.0523 22.12H62.9883L56.1283 35.42V42H50.6963V35.364L43.9483 22.12H49.8563ZM69.3231 42.28C68.0164 42.28 66.8591 42.0747 65.8511 41.664C64.8431 41.2533 63.9938 40.6933 63.3031 39.984C62.6311 39.256 62.1177 38.4347 61.7631 37.52C61.4271 36.6053 61.2591 35.644 61.2591 34.636C61.2591 33.628 61.4271 32.6667 61.7631 31.752C62.1177 30.8187 62.6311 29.9973 63.3031 29.288C63.9938 28.5787 64.8431 28.0187 65.8511 27.608C66.8591 27.1973 68.0164 26.992 69.3231 26.992C70.6484 26.992 71.8058 27.1973 72.7951 27.608C73.8031 28.0187 74.6431 28.5787 75.3151 29.288C76.0058 29.9973 76.5191 30.8187 76.8551 31.752C77.2098 32.6667 77.3871 33.628 77.3871 34.636C77.3871 35.644 77.2098 36.6053 76.8551 37.52C76.5191 38.4347 76.0058 39.256 75.3151 39.984C74.6431 40.6933 73.8031 41.2533 72.7951 41.664C71.8058 42.0747 70.6484 42.28 69.3231 42.28ZM66.7191 34.636C66.7191 35.2893 66.8311 35.8587 67.0551 36.344C67.2791 36.8107 67.5871 37.1747 67.9791 37.436C68.3711 37.6787 68.8191 37.8 69.3231 37.8C69.8271 37.8 70.2751 37.6787 70.6671 37.436C71.0591 37.1747 71.3671 36.8107 71.5911 36.344C71.8151 35.8587 71.9271 35.2893 71.9271 34.636C71.9271 33.9827 71.8151 33.4227 71.5911 32.956C71.3671 32.4707 71.0591 32.1067 70.6671 31.864C70.2751 31.6027 69.8271 31.472 69.3231 31.472C68.8191 31.472 68.3711 31.6027 67.9791 31.864C67.5871 32.1067 67.2791 32.4707 67.0551 32.956C66.8311 33.4227 66.7191 33.9827 66.7191 34.636ZM79.6903 36.96V27.272H85.0103V35.756C85.0103 36.3907 85.1503 36.8947 85.4303 37.268C85.729 37.6227 86.1303 37.8 86.6343 37.8C86.9143 37.8 87.1943 37.7627 87.4743 37.688C87.7543 37.6133 88.0343 37.464 88.3143 37.24C88.613 37.016 88.9023 36.6987 89.1823 36.288V27.272H94.5023V36.12C94.5023 36.624 94.577 36.9787 94.7263 37.184C94.8756 37.3707 95.137 37.4827 95.5103 37.52V42C95.0436 42.0933 94.6236 42.1587 94.2503 42.196C93.877 42.252 93.5503 42.28 93.2703 42.28C92.3743 42.28 91.665 42.112 91.1423 41.776C90.6196 41.44 90.2836 40.9267 90.1343 40.236L90.0223 39.704C89.3316 40.6187 88.501 41.2813 87.5303 41.692C86.5783 42.084 85.4956 42.28 84.2823 42.28C82.8076 42.28 81.669 41.8227 80.8663 40.908C80.0823 39.9933 79.6903 38.6773 79.6903 36.96ZM108.242 31.808C107.215 31.808 106.282 31.92 105.442 32.144C104.602 32.368 103.976 32.7413 103.566 33.264V42H98.2458V27.272H103.118V30.072C103.64 29.0827 104.294 28.3267 105.078 27.804C105.862 27.2627 106.692 26.992 107.57 26.992C107.775 26.992 107.915 26.992 107.99 26.992C108.083 26.992 108.167 27.0013 108.242 27.02V31.808ZM117.093 42V22.12H125.661C126.632 22.12 127.528 22.316 128.349 22.708C129.17 23.1 129.88 23.632 130.477 24.304C131.074 24.9573 131.532 25.6947 131.849 26.516C132.185 27.3373 132.353 28.168 132.353 29.008C132.353 30.184 132.073 31.2947 131.513 32.34C130.972 33.3853 130.206 34.244 129.217 34.916C128.246 35.5693 127.108 35.896 125.801 35.896H122.553V42H117.093ZM122.553 31.136H125.437C125.661 31.136 125.876 31.0707 126.081 30.94C126.286 30.8093 126.454 30.5853 126.585 30.268C126.734 29.9507 126.809 29.5307 126.809 29.008C126.809 28.448 126.725 28.0187 126.557 27.72C126.408 27.4027 126.212 27.188 125.969 27.076C125.745 26.9453 125.521 26.88 125.297 26.88H122.553V31.136ZM144.73 31.808C143.704 31.808 142.77 31.92 141.93 32.144C141.09 32.368 140.465 32.7413 140.054 33.264V42H134.734V27.272H139.606V30.072C140.129 29.0827 140.782 28.3267 141.566 27.804C142.35 27.2627 143.181 26.992 144.058 26.992C144.264 26.992 144.404 26.992 144.478 26.992C144.572 26.992 144.656 27.0013 144.73 27.02V31.808ZM154.195 42.28C152.888 42.28 151.731 42.0747 150.723 41.664C149.715 41.2533 148.865 40.6933 148.175 39.984C147.503 39.256 146.989 38.4347 146.635 37.52C146.299 36.6053 146.131 35.644 146.131 34.636C146.131 33.628 146.299 32.6667 146.635 31.752C146.989 30.8187 147.503 29.9973 148.175 29.288C148.865 28.5787 149.715 28.0187 150.723 27.608C151.731 27.1973 152.888 26.992 154.195 26.992C155.52 26.992 156.677 27.1973 157.667 27.608C158.675 28.0187 159.515 28.5787 160.187 29.288C160.877 29.9973 161.391 30.8187 161.727 31.752C162.081 32.6667 162.259 33.628 162.259 34.636C162.259 35.644 162.081 36.6053 161.727 37.52C161.391 38.4347 160.877 39.256 160.187 39.984C159.515 40.6933 158.675 41.2533 157.667 41.664C156.677 42.0747 155.52 42.28 154.195 42.28ZM151.591 34.636C151.591 35.2893 151.703 35.8587 151.927 36.344C152.151 36.8107 152.459 37.1747 152.851 37.436C153.243 37.6787 153.691 37.8 154.195 37.8C154.699 37.8 155.147 37.6787 155.539 37.436C155.931 37.1747 156.239 36.8107 156.463 36.344C156.687 35.8587 156.799 35.2893 156.799 34.636C156.799 33.9827 156.687 33.4227 156.463 32.956C156.239 32.4707 155.931 32.1067 155.539 31.864C155.147 31.6027 154.699 31.472 154.195 31.472C153.691 31.472 153.243 31.6027 152.851 31.864C152.459 32.1067 152.151 32.4707 151.927 32.956C151.703 33.4227 151.591 33.9827 151.591 34.636ZM165.738 32.984H163.918V28.98H165.738V27.384C165.738 26.4507 165.897 25.6107 166.214 24.864C166.55 24.1173 167.017 23.4827 167.614 22.96C168.211 22.4187 168.921 22.008 169.742 21.728C170.563 21.4293 171.459 21.28 172.43 21.28C173.158 21.28 173.858 21.364 174.53 21.532C175.221 21.6813 175.921 21.924 176.63 22.26C177.339 22.596 178.086 23.016 178.87 23.52L176.854 27.552C176.219 26.992 175.547 26.5533 174.838 26.236C174.129 25.9187 173.447 25.76 172.794 25.76C172.439 25.76 172.131 25.816 171.87 25.928C171.609 26.0213 171.403 26.18 171.254 26.404C171.123 26.6093 171.058 26.8707 171.058 27.188V28.98H179.43V42H174.11V32.984H171.058V42H165.738V32.984ZM182.541 21.56H187.861V36.148C187.861 36.6893 187.973 37.1093 188.197 37.408C188.439 37.688 188.785 37.828 189.233 37.828C189.457 37.828 189.699 37.7907 189.961 37.716C190.222 37.6413 190.465 37.5387 190.689 37.408L191.361 41.328C190.726 41.6267 190.007 41.86 189.205 42.028C188.421 42.196 187.674 42.28 186.965 42.28C185.546 42.28 184.454 41.916 183.689 41.188C182.923 40.4413 182.541 39.3867 182.541 38.024V21.56ZM200.418 42.28C199.13 42.28 197.982 42.084 196.974 41.692C195.966 41.2813 195.116 40.7307 194.426 40.04C193.754 39.3493 193.24 38.556 192.886 37.66C192.531 36.764 192.354 35.8213 192.354 34.832C192.354 33.4133 192.662 32.116 193.278 30.94C193.894 29.7453 194.799 28.7933 195.994 28.084C197.188 27.356 198.663 26.992 200.418 26.992C202.172 26.992 203.647 27.3467 204.842 28.056C206.036 28.7653 206.942 29.6987 207.558 30.856C208.174 32.0133 208.482 33.2733 208.482 34.636C208.482 34.916 208.463 35.2053 208.426 35.504C208.407 35.784 208.379 36.036 208.342 36.26H198.01C198.047 36.7827 198.187 37.212 198.43 37.548C198.691 37.8653 199.008 38.0987 199.382 38.248C199.774 38.3973 200.175 38.472 200.586 38.472C201.164 38.472 201.706 38.3413 202.21 38.08C202.732 37.8187 203.078 37.4547 203.246 36.988L207.754 38.276C207.362 39.06 206.811 39.7507 206.102 40.348C205.411 40.9453 204.59 41.4213 203.638 41.776C202.686 42.112 201.612 42.28 200.418 42.28ZM197.898 33.068H202.77C202.714 32.5827 202.574 32.172 202.35 31.836C202.144 31.5 201.864 31.2387 201.51 31.052C201.174 30.8653 200.782 30.772 200.334 30.772C199.886 30.772 199.484 30.8653 199.13 31.052C198.794 31.2387 198.514 31.5 198.29 31.836C198.084 32.172 197.954 32.5827 197.898 33.068Z" fill="#5B46AE"/>
<path d="M22.1936 12.7005C30.8371 13.4727 37.7208 20.0548 38.9843 28.7582C39.6199 33.149 38.5425 37.9373 36.0852 41.6338C34.1936 44.4882 31.7985 46.6014 28.7598 48.1069C26.8762 49.0351 24.9846 49.6043 22.8295 49.9007C21.8838 50.0331 19.2793 50.0331 18.3335 49.9007C14.1166 49.3235 10.3721 47.4907 7.48854 44.5897C4.76005 41.8444 2.95382 38.3818 2.29474 34.6228C1.82185 31.9476 1.91476 29.3744 2.59698 26.6523C3.38007 23.517 5.07746 20.5146 7.38767 18.1828C11.2944 14.2292 16.7362 12.2091 22.1936 12.7005ZM18.7594 15.7655C17.5189 16.3584 16.9611 17.6296 17.1625 19.3841C17.2789 20.3745 17.4571 21.0533 18.1082 23.0497C18.7051 24.8825 18.7518 25.2098 18.4105 25.3815C18.2633 25.4593 17.4336 25.483 15.0305 25.483C11.3869 25.483 11.3096 25.4906 10.674 26.0678C10.178 26.5123 9.9531 27.0349 9.9531 27.7056C9.9531 28.5167 10.3873 29.2733 11.046 29.6006L11.3562 29.7486L11.0149 29.881C10.6198 30.029 10.0847 30.575 9.90645 31.0042C9.70509 31.4719 9.74377 32.1739 9.99178 32.6809C10.2087 33.1334 10.6353 33.5622 10.9451 33.64C11.1776 33.7022 11.17 33.7648 10.8985 33.9284C10.3482 34.2562 9.88294 35.0592 9.88294 35.699C9.88294 36.0889 10.1154 36.6818 10.3945 37.0091C10.8056 37.4929 11.1931 37.6722 11.9683 37.7187L12.6274 37.7657L12.3096 37.9763C11.418 38.5687 11.4647 39.9105 12.4025 40.4954L12.7745 40.7292H16.6975C21.5269 40.7212 23.2402 40.5965 25.8682 40.0585C27.2091 39.7858 28.8914 39.5984 30.062 39.5984C30.9304 39.5984 31.2869 39.5046 31.3874 39.2474C31.4727 39.0136 31.4416 29.5613 31.3487 29.3587C31.186 29.0077 31.0154 28.9608 29.4572 28.9062C27.8447 28.8441 27.5812 28.7891 27.1162 28.4538C26.4962 28.0013 25.4807 26.6836 24.566 25.1392C23.7211 23.7044 23.2869 23.0726 22.5739 22.2146C21.3104 20.7015 21.1708 20.3974 20.6979 18.1126C20.3877 16.6075 20.233 16.0692 20.0544 15.8586C19.7594 15.5317 19.3176 15.5004 18.7594 15.7655Z" fill="#5B46AE"/>
<rect width="3.02363" height="9.81066" rx="1.51181" transform="matrix(0.972693 -0.244091 0.246547 0.96617 15.1331 0.738037)" fill="#5B46AE"/>
<rect width="3.02363" height="9.81066" rx="1.51181" transform="matrix(0.972693 -0.244091 0.246547 0.96617 15.1331 0.738037)" fill="#5B46AE"/>
<rect width="3.01397" height="7.70313" rx="1.50698" transform="matrix(0.657256 -0.756007 0.758751 0.64869 8.61162 6.44385)" fill="#5B46AE"/>
<rect width="3.01397" height="7.70313" rx="1.50698" transform="matrix(0.657256 -0.756007 0.758751 0.64869 8.61162 6.44385)" fill="#5B46AE"/>
<rect width="3.02957" height="7.66343" rx="1.51478" transform="matrix(0.973552 0.232503 -0.23577 0.970841 23.1761 0.984314)" fill="#5B46AE"/>
<rect width="3.02957" height="7.66343" rx="1.51478" transform="matrix(0.973552 0.232503 -0.23577 0.970841 23.1761 0.984314)" fill="#5B46AE"/>
</g>
<defs>
<filter id="filter0_d_697_16" x="7.62939e-06" y="0" width="217.42" height="58" filterUnits="userSpaceOnUse" color-interpolation-filters="sRGB">
<feFlood flood-opacity="0" result="BackgroundImageFix"/>
<feColorMatrix in="SourceAlpha" type="matrix" values="0 0 0 0 0 0 0 0 0 0 0 0 0 0 0 0 0 0 127 0" result="hardAlpha"/>
<feOffset dx="2" dy="4"/>
<feGaussianBlur stdDeviation="2"/>
<feComposite in2="hardAlpha" operator="out"/>
<feColorMatrix type="matrix" values="0 0 0 0 0.282353 0 0 0 0 0.87451 0 0 0 0 0.717647 0 0 0 1 0"/>
<feBlend mode="normal" in2="BackgroundImageFix" result="effect1_dropShadow_697_16"/>
<feBlend mode="normal" in="SourceGraphic" in2="effect1_dropShadow_697_16" result="shape"/>
</filter>
</defs>
</svg>
