<svg width="279" height="65" viewBox="0 0 279 65" fill="none" xmlns="http://www.w3.org/2000/svg">
<g filter="url(#filter0_d_697_8)">
<path d="M24.3651 15.2582C33.9382 16.1134 41.562 23.4034 42.9614 33.0427C43.6654 37.9057 42.4721 43.2089 39.7505 47.3028C37.6556 50.4643 35.0029 52.8047 31.6374 54.472C29.5513 55.5 27.4563 56.1305 25.0694 56.4588C24.022 56.6054 21.1374 56.6054 20.0899 56.4588C15.4195 55.8195 11.2724 53.7896 8.07875 50.5766C5.05685 47.5361 3.05639 43.7012 2.32643 39.5379C1.80269 36.5751 1.90559 33.7251 2.66117 30.7103C3.52847 27.2379 5.40839 23.9126 7.96703 21.33C12.2939 16.9513 18.3209 14.714 24.3651 15.2582ZM20.5616 18.6528C19.1878 19.3095 18.5699 20.7174 18.793 22.6606C18.9219 23.7575 19.1193 24.5092 19.8404 26.7203C20.5015 28.7502 20.5532 29.1127 20.1752 29.3028C20.0122 29.389 19.0933 29.4152 16.4317 29.4152C12.3964 29.4152 12.3107 29.4237 11.6068 30.063C11.0574 30.5552 10.8083 31.1341 10.8083 31.8769C10.8083 32.7752 11.2892 33.6131 12.0188 33.9757L12.3623 34.1396L11.9843 34.2862C11.5467 34.4502 10.9541 35.0548 10.7567 35.5302C10.5337 36.0482 10.5765 36.8257 10.8512 37.3872C11.0914 37.8883 11.5639 38.3633 11.9071 38.4495C12.1645 38.5183 12.1561 38.5876 11.8554 38.7689C11.246 39.1319 10.7306 40.0213 10.7306 40.7299C10.7306 41.1617 10.9881 41.8183 11.2972 42.1809C11.7525 42.7167 12.1817 42.9152 13.0402 42.9668L13.7702 43.0188L13.4182 43.252C12.4308 43.9082 12.4825 45.3943 13.5211 46.042L13.9331 46.301H18.278C23.6267 46.2921 25.5243 46.154 28.4349 45.5582C29.92 45.2561 31.7831 45.0486 33.0797 45.0486C34.0415 45.0486 34.4363 44.9447 34.5476 44.6599C34.6421 44.4009 34.6076 33.9321 34.5047 33.7078C34.3246 33.319 34.1356 33.2671 32.4098 33.2066C30.6239 33.1378 30.332 33.0769 29.8171 32.7055C29.1304 32.2044 28.0057 30.745 26.9926 29.0345C26.0569 27.4454 25.576 26.7457 24.7864 25.7954C23.3869 24.1196 23.2324 23.7828 22.7086 21.2523C22.3651 19.5854 22.1937 18.9892 21.9959 18.7559C21.6691 18.3938 21.1798 18.3592 20.5616 18.6528Z" fill="#5B46AE"/>
<rect width="3.34877" height="10.8656" rx="1.67439" transform="matrix(0.972693 -0.244091 0.246547 0.96617 16.5462 2.00934)" fill="#5B46AE"/>
<rect width="3.34877" height="10.8656" rx="1.67439" transform="matrix(0.972693 -0.244091 0.246547 0.96617 16.5462 2.00934)" fill="#5B46AE"/>
<rect width="3.33807" height="8.53148" rx="1.66904" transform="matrix(0.657256 -0.756007 0.758751 0.64869 9.32262 8.32874)" fill="#5B46AE"/>
<rect width="3.33807" height="8.53148" rx="1.66904" transform="matrix(0.657256 -0.756007 0.758751 0.64869 9.32262 8.32874)" fill="#5B46AE"/>
<rect width="3.35535" height="8.48751" rx="1.67768" transform="matrix(0.973552 0.232503 -0.23577 0.970841 25.4535 2.2821)" fill="#5B46AE"/>
<rect width="3.35535" height="8.48751" rx="1.67768" transform="matrix(0.973552 0.232503 -0.23577 0.970841 25.4535 2.2821)" fill="#5B46AE"/>
<path d="M255.458 11.9358L255.525 12.2148L255.8 12.297L264.835 15L255.8 17.703L255.525 17.7852L255.458 18.0642L253.08 27.8769L250.702 18.0642L250.634 17.7852L250.359 17.703L241.324 15L250.359 12.297L250.634 12.2148L250.702 11.9358L253.08 2.12307L255.458 11.9358Z" fill="#48DFB7" stroke="#5B46AE"/>
<path d="M57.0628 21.02L61.8888 32.04L66.8288 21.02H74.8848L65.5748 39.07V48H58.2028V38.994L49.0448 21.02H57.0628ZM83.482 48.38C81.7087 48.38 80.138 48.1013 78.77 47.544C77.402 46.9867 76.2494 46.2267 75.312 45.264C74.4 44.276 73.7034 43.1613 73.222 41.92C72.766 40.6787 72.538 39.374 72.538 38.006C72.538 36.638 72.766 35.3333 73.222 34.092C73.7034 32.8253 74.4 31.7107 75.312 30.748C76.2494 29.7853 77.402 29.0253 78.77 28.468C80.138 27.9107 81.7087 27.632 83.482 27.632C85.2807 27.632 86.8514 27.9107 88.194 28.468C89.562 29.0253 90.702 29.7853 91.614 30.748C92.5514 31.7107 93.248 32.8253 93.704 34.092C94.1854 35.3333 94.426 36.638 94.426 38.006C94.426 39.374 94.1854 40.6787 93.704 41.92C93.248 43.1613 92.5514 44.276 91.614 45.264C90.702 46.2267 89.562 46.9867 88.194 47.544C86.8514 48.1013 85.2807 48.38 83.482 48.38ZM79.948 38.006C79.948 38.8927 80.1 39.6653 80.404 40.324C80.708 40.9573 81.126 41.4513 81.658 41.806C82.19 42.1353 82.798 42.3 83.482 42.3C84.166 42.3 84.774 42.1353 85.306 41.806C85.838 41.4513 86.256 40.9573 86.56 40.324C86.864 39.6653 87.016 38.8927 87.016 38.006C87.016 37.1193 86.864 36.3593 86.56 35.726C86.256 35.0673 85.838 34.5733 85.306 34.244C84.774 33.8893 84.166 33.712 83.482 33.712C82.798 33.712 82.19 33.8893 81.658 34.244C81.126 34.5733 80.708 35.0673 80.404 35.726C80.1 36.3593 79.948 37.1193 79.948 38.006ZM97.5518 41.16V28.012H104.772V39.526C104.772 40.3873 104.962 41.0713 105.342 41.578C105.747 42.0593 106.292 42.3 106.976 42.3C107.356 42.3 107.736 42.2493 108.116 42.148C108.496 42.0467 108.876 41.844 109.256 41.54C109.661 41.236 110.054 40.8053 110.434 40.248V28.012H117.654V40.02C117.654 40.704 117.755 41.1853 117.958 41.464C118.161 41.7173 118.515 41.8693 119.022 41.92V48C118.389 48.1267 117.819 48.2153 117.312 48.266C116.805 48.342 116.362 48.38 115.982 48.38C114.766 48.38 113.803 48.152 113.094 47.696C112.385 47.24 111.929 46.5433 111.726 45.606L111.574 44.884C110.637 46.1253 109.509 47.0247 108.192 47.582C106.9 48.114 105.431 48.38 103.784 48.38C101.783 48.38 100.237 47.7593 99.1478 46.518C98.0838 45.2767 97.5518 43.4907 97.5518 41.16ZM136.3 34.168C134.907 34.168 133.64 34.32 132.5 34.624C131.36 34.928 130.512 35.4347 129.954 36.144V48H122.734V28.012H129.346V31.812C130.056 30.4693 130.942 29.4433 132.006 28.734C133.07 27.9993 134.198 27.632 135.388 27.632C135.667 27.632 135.857 27.632 135.958 27.632C136.085 27.632 136.199 27.6447 136.3 27.67V34.168ZM148.313 48V21.02H159.941C161.258 21.02 162.474 21.286 163.589 21.818C164.703 22.35 165.666 23.072 166.477 23.984C167.287 24.8707 167.908 25.8713 168.339 26.986C168.795 28.1007 169.023 29.228 169.023 30.368C169.023 31.964 168.643 33.4713 167.883 34.89C167.148 36.3087 166.109 37.474 164.767 38.386C163.449 39.2727 161.904 39.716 160.131 39.716H155.723V48H148.313ZM155.723 33.256H159.637C159.941 33.256 160.232 33.1673 160.511 32.99C160.789 32.8127 161.017 32.5087 161.195 32.078C161.397 31.6473 161.499 31.0773 161.499 30.368C161.499 29.608 161.385 29.0253 161.157 28.62C160.954 28.1893 160.688 27.898 160.359 27.746C160.055 27.5687 159.751 27.48 159.447 27.48H155.723V33.256ZM185.82 34.168C184.427 34.168 183.16 34.32 182.02 34.624C180.88 34.928 180.032 35.4347 179.474 36.144V48H172.254V28.012H178.866V31.812C179.576 30.4693 180.462 29.4433 181.526 28.734C182.59 27.9993 183.718 27.632 184.908 27.632C185.187 27.632 185.377 27.632 185.478 27.632C185.605 27.632 185.719 27.6447 185.82 27.67V34.168ZM198.665 48.38C196.892 48.38 195.321 48.1013 193.953 47.544C192.585 46.9867 191.432 46.2267 190.495 45.264C189.583 44.276 188.886 43.1613 188.405 41.92C187.949 40.6787 187.721 39.374 187.721 38.006C187.721 36.638 187.949 35.3333 188.405 34.092C188.886 32.8253 189.583 31.7107 190.495 30.748C191.432 29.7853 192.585 29.0253 193.953 28.468C195.321 27.9107 196.892 27.632 198.665 27.632C200.464 27.632 202.034 27.9107 203.377 28.468C204.745 29.0253 205.885 29.7853 206.797 30.748C207.734 31.7107 208.431 32.8253 208.887 34.092C209.368 35.3333 209.609 36.638 209.609 38.006C209.609 39.374 209.368 40.6787 208.887 41.92C208.431 43.1613 207.734 44.276 206.797 45.264C205.885 46.2267 204.745 46.9867 203.377 47.544C202.034 48.1013 200.464 48.38 198.665 48.38ZM195.131 38.006C195.131 38.8927 195.283 39.6653 195.587 40.324C195.891 40.9573 196.309 41.4513 196.841 41.806C197.373 42.1353 197.981 42.3 198.665 42.3C199.349 42.3 199.957 42.1353 200.489 41.806C201.021 41.4513 201.439 40.9573 201.743 40.324C202.047 39.6653 202.199 38.8927 202.199 38.006C202.199 37.1193 202.047 36.3593 201.743 35.726C201.439 35.0673 201.021 34.5733 200.489 34.244C199.957 33.8893 199.349 33.712 198.665 33.712C197.981 33.712 197.373 33.8893 196.841 34.244C196.309 34.5733 195.891 35.0673 195.587 35.726C195.283 36.3593 195.131 37.1193 195.131 38.006ZM214.331 35.764H211.861V30.33H214.331V28.164C214.331 26.8973 214.546 25.7573 214.977 24.744C215.433 23.7307 216.066 22.8693 216.877 22.16C217.688 21.4253 218.65 20.868 219.765 20.488C220.88 20.0827 222.096 19.88 223.413 19.88C224.401 19.88 225.351 19.994 226.263 20.222C227.2 20.4247 228.15 20.754 229.113 21.21C230.076 21.666 231.089 22.236 232.153 22.92L229.417 28.392C228.556 27.632 227.644 27.0367 226.681 26.606C225.718 26.1753 224.794 25.96 223.907 25.96C223.426 25.96 223.008 26.036 222.653 26.188C222.298 26.3147 222.02 26.53 221.817 26.834C221.64 27.1127 221.551 27.4673 221.551 27.898V30.33H232.913V48H225.693V35.764H221.551V48H214.331V35.764ZM237.134 20.26H244.354V40.058C244.354 40.7927 244.506 41.3627 244.81 41.768C245.14 42.148 245.608 42.338 246.216 42.338C246.52 42.338 246.85 42.2873 247.204 42.186C247.559 42.0847 247.888 41.9453 248.192 41.768L249.104 47.088C248.243 47.4933 247.268 47.81 246.178 48.038C245.114 48.266 244.101 48.38 243.138 48.38C241.213 48.38 239.731 47.886 238.692 46.898C237.654 45.8847 237.134 44.4533 237.134 42.604V20.26ZM261.396 48.38C259.648 48.38 258.09 48.114 256.722 47.582C255.354 47.0247 254.202 46.2773 253.264 45.34C252.352 44.4027 251.656 43.326 251.174 42.11C250.693 40.894 250.452 39.6147 250.452 38.272C250.452 36.3467 250.87 34.586 251.706 32.99C252.542 31.3687 253.771 30.0767 255.392 29.114C257.014 28.126 259.015 27.632 261.396 27.632C263.778 27.632 265.779 28.1133 267.4 29.076C269.022 30.0387 270.25 31.3053 271.086 32.876C271.922 34.4467 272.34 36.1567 272.34 38.006C272.34 38.386 272.315 38.7787 272.264 39.184C272.239 39.564 272.201 39.906 272.15 40.21H258.128C258.179 40.9193 258.369 41.502 258.698 41.958C259.053 42.3887 259.484 42.7053 259.99 42.908C260.522 43.1107 261.067 43.212 261.624 43.212C262.41 43.212 263.144 43.0347 263.828 42.68C264.538 42.3253 265.006 41.8313 265.234 41.198L271.352 42.946C270.82 44.01 270.073 44.9473 269.11 45.758C268.173 46.5687 267.058 47.2147 265.766 47.696C264.474 48.152 263.018 48.38 261.396 48.38ZM257.976 35.878H264.588C264.512 35.2193 264.322 34.662 264.018 34.206C263.74 33.75 263.36 33.3953 262.878 33.142C262.422 32.8887 261.89 32.762 261.282 32.762C260.674 32.762 260.13 32.8887 259.648 33.142C259.192 33.3953 258.812 33.75 258.508 34.206C258.23 34.662 258.052 35.2193 257.976 35.878Z" fill="#5B46AE"/>
</g>
<defs>
<filter id="filter0_d_697_8" x="7.62939e-06" y="0" width="278.34" height="64.5687" filterUnits="userSpaceOnUse" color-interpolation-filters="sRGB">
<feFlood flood-opacity="0" result="BackgroundImageFix"/>
<feColorMatrix in="SourceAlpha" type="matrix" values="0 0 0 0 0 0 0 0 0 0 0 0 0 0 0 0 0 0 127 0" result="hardAlpha"/>
<feOffset dx="2" dy="4"/>
<feGaussianBlur stdDeviation="2"/>
<feComposite in2="hardAlpha" operator="out"/>
<feColorMatrix type="matrix" values="0 0 0 0 0.282353 0 0 0 0 0.87451 0 0 0 0 0.717647 0 0 0 1 0"/>
<feBlend mode="normal" in2="BackgroundImageFix" result="effect1_dropShadow_697_8"/>
<feBlend mode="normal" in="SourceGraphic" in2="effect1_dropShadow_697_8" result="shape"/>
</filter>
</defs>
</svg>
