<svg width="272" height="60" viewBox="0 0 272 60" fill="none" xmlns="http://www.w3.org/2000/svg">
<g clip-path="url(#clip0_503_53)">
<path d="M22.7854 18.2582C32.3585 19.1134 39.9823 26.4034 41.3818 36.0427C42.0857 40.9056 40.8925 46.2089 38.1709 50.3028C36.0759 53.4642 33.4232 55.8046 30.0577 57.472C27.9716 58.5 25.8766 59.1304 23.4898 59.4587C22.4423 59.6053 19.5577 59.6053 18.5102 59.4587C13.8398 58.8194 9.69277 56.7896 6.49909 53.5766C3.47719 50.5361 1.47672 46.7011 0.746765 42.5379C0.223026 39.5751 0.325924 36.7251 1.0815 33.7103C1.94881 30.2379 3.82872 26.9125 6.38736 24.33C10.7142 19.9513 16.7412 17.7139 22.7854 18.2582ZM18.9819 21.6528C17.6081 22.3094 16.9903 23.7173 17.2133 25.6606C17.3422 26.7575 17.5396 27.5092 18.2608 29.7203C18.9218 31.7501 18.9735 32.1127 18.5955 32.3028C18.4325 32.389 17.5136 32.4152 14.852 32.4152C10.8167 32.4152 10.731 32.4237 10.0271 33.063C9.47773 33.5552 9.22866 34.1341 9.22866 34.8769C9.22866 35.7752 9.70957 36.6131 10.4391 36.9756L10.7827 37.1396L10.4047 37.2862C9.96703 37.4501 9.3744 38.0548 9.17701 38.5301C8.95399 39.0482 8.99683 39.8256 9.27151 40.3872C9.51175 40.8883 9.98425 41.3632 10.3274 41.4494C10.5848 41.5183 10.5764 41.5876 10.2757 41.7689C9.66631 42.1318 9.15097 43.0213 9.15097 43.7299C9.15097 44.1617 9.40843 44.8183 9.71755 45.1808C10.1728 45.7166 10.6021 45.9152 11.4605 45.9668L12.1905 46.0187L11.8385 46.252C10.8511 46.9082 10.9028 48.3942 11.9414 49.042L12.3535 49.301H16.6984C22.0471 49.2921 23.9446 49.1539 26.8552 48.5582C28.3403 48.2561 30.2035 48.0486 31.5 48.0486C32.4618 48.0486 32.8566 47.9446 32.9679 47.6599C33.0624 47.4008 33.028 36.9321 32.9251 36.7077C32.7449 36.319 32.5559 36.267 30.8301 36.2066C29.0443 36.1377 28.7524 36.0769 28.2374 35.7055C27.5507 35.2044 26.426 33.7449 25.4129 32.0345C24.4772 30.4454 23.9963 29.7456 23.2067 28.7954C21.8072 27.1196 21.6527 26.7828 21.1289 24.2523C20.7854 22.5854 20.614 21.9892 20.4162 21.7559C20.0894 21.3938 19.6001 21.3592 18.9819 21.6528Z" fill="white"/>
</g>
<rect width="3.34877" height="10.8656" rx="1.67439" transform="matrix(0.972693 -0.244091 0.246547 0.96617 14.9668 5.00934)" fill="white"/>
<rect width="3.34877" height="10.8656" rx="1.67439" transform="matrix(0.972693 -0.244091 0.246547 0.96617 14.9668 5.00934)" fill="white"/>
<rect width="3.33807" height="8.53148" rx="1.66904" transform="matrix(0.657256 -0.756007 0.758751 0.64869 7.74316 11.3287)" fill="white"/>
<rect width="3.33807" height="8.53148" rx="1.66904" transform="matrix(0.657256 -0.756007 0.758751 0.64869 7.74316 11.3287)" fill="white"/>
<rect width="3.35535" height="8.48751" rx="1.67768" transform="matrix(0.973552 0.232503 -0.23577 0.970841 23.874 5.28207)" fill="white"/>
<rect width="3.35535" height="8.48751" rx="1.67768" transform="matrix(0.973552 0.232503 -0.23577 0.970841 23.874 5.28207)" fill="white"/>
<path d="M253.878 14.9358L253.945 15.2148L254.22 15.297L263.255 18L254.22 20.703L253.945 20.7852L253.878 21.0642L251.5 30.8769L249.122 21.0642L249.055 20.7852L248.78 20.703L239.745 18L248.78 15.297L249.055 15.2148L249.122 14.9358L251.5 5.12307L253.878 14.9358Z" fill="#48DFB7" stroke="white"/>
<path d="M55.4832 24.02L60.3092 35.04L65.2492 24.02H73.3052L63.9952 42.07V51H56.6232V41.994L47.4652 24.02H55.4832ZM81.9024 51.38C80.129 51.38 78.5584 51.1013 77.1904 50.544C75.8224 49.9867 74.6697 49.2267 73.7324 48.264C72.8204 47.276 72.1237 46.1613 71.6424 44.92C71.1864 43.6787 70.9584 42.374 70.9584 41.006C70.9584 39.638 71.1864 38.3333 71.6424 37.092C72.1237 35.8253 72.8204 34.7107 73.7324 33.748C74.6697 32.7853 75.8224 32.0253 77.1904 31.468C78.5584 30.9107 80.129 30.632 81.9024 30.632C83.701 30.632 85.2717 30.9107 86.6144 31.468C87.9824 32.0253 89.1224 32.7853 90.0344 33.748C90.9717 34.7107 91.6684 35.8253 92.1244 37.092C92.6057 38.3333 92.8464 39.638 92.8464 41.006C92.8464 42.374 92.6057 43.6787 92.1244 44.92C91.6684 46.1613 90.9717 47.276 90.0344 48.264C89.1224 49.2267 87.9824 49.9867 86.6144 50.544C85.2717 51.1013 83.701 51.38 81.9024 51.38ZM78.3684 41.006C78.3684 41.8927 78.5204 42.6653 78.8244 43.324C79.1284 43.9573 79.5464 44.4513 80.0784 44.806C80.6104 45.1353 81.2184 45.3 81.9024 45.3C82.5864 45.3 83.1944 45.1353 83.7264 44.806C84.2584 44.4513 84.6764 43.9573 84.9804 43.324C85.2844 42.6653 85.4364 41.8927 85.4364 41.006C85.4364 40.1193 85.2844 39.3593 84.9804 38.726C84.6764 38.0673 84.2584 37.5733 83.7264 37.244C83.1944 36.8893 82.5864 36.712 81.9024 36.712C81.2184 36.712 80.6104 36.8893 80.0784 37.244C79.5464 37.5733 79.1284 38.0673 78.8244 38.726C78.5204 39.3593 78.3684 40.1193 78.3684 41.006ZM95.9722 44.16V31.012H103.192V42.526C103.192 43.3873 103.382 44.0713 103.762 44.578C104.167 45.0593 104.712 45.3 105.396 45.3C105.776 45.3 106.156 45.2493 106.536 45.148C106.916 45.0467 107.296 44.844 107.676 44.54C108.081 44.236 108.474 43.8053 108.854 43.248V31.012H116.074V43.02C116.074 43.704 116.175 44.1853 116.378 44.464C116.581 44.7173 116.935 44.8693 117.442 44.92V51C116.809 51.1267 116.239 51.2153 115.732 51.266C115.225 51.342 114.782 51.38 114.402 51.38C113.186 51.38 112.223 51.152 111.514 50.696C110.805 50.24 110.349 49.5433 110.146 48.606L109.994 47.884C109.057 49.1253 107.929 50.0247 106.612 50.582C105.32 51.114 103.851 51.38 102.204 51.38C100.203 51.38 98.6575 50.7593 97.5682 49.518C96.5042 48.2767 95.9722 46.4907 95.9722 44.16ZM134.721 37.168C133.327 37.168 132.061 37.32 130.921 37.624C129.781 37.928 128.932 38.4347 128.375 39.144V51H121.155V31.012H127.767V34.812C128.476 33.4693 129.363 32.4433 130.427 31.734C131.491 30.9993 132.618 30.632 133.809 30.632C134.087 30.632 134.277 30.632 134.379 30.632C134.505 30.632 134.619 30.6447 134.721 30.67V37.168ZM146.733 51V24.02H158.361C159.678 24.02 160.894 24.286 162.009 24.818C163.124 25.35 164.086 26.072 164.897 26.984C165.708 27.8707 166.328 28.8713 166.759 29.986C167.215 31.1007 167.443 32.228 167.443 33.368C167.443 34.964 167.063 36.4713 166.303 37.89C165.568 39.3087 164.53 40.474 163.187 41.386C161.87 42.2727 160.324 42.716 158.551 42.716H154.143V51H146.733ZM154.143 36.256H158.057C158.361 36.256 158.652 36.1673 158.931 35.99C159.21 35.8127 159.438 35.5087 159.615 35.078C159.818 34.6473 159.919 34.0773 159.919 33.368C159.919 32.608 159.805 32.0253 159.577 31.62C159.374 31.1893 159.108 30.898 158.779 30.746C158.475 30.5687 158.171 30.48 157.867 30.48H154.143V36.256ZM184.241 37.168C182.847 37.168 181.581 37.32 180.441 37.624C179.301 37.928 178.452 38.4347 177.895 39.144V51H170.675V31.012H177.287V34.812C177.996 33.4693 178.883 32.4433 179.947 31.734C181.011 30.9993 182.138 30.632 183.329 30.632C183.607 30.632 183.797 30.632 183.899 30.632C184.025 30.632 184.139 30.6447 184.241 30.67V37.168ZM197.085 51.38C195.312 51.38 193.741 51.1013 192.373 50.544C191.005 49.9867 189.853 49.2267 188.915 48.264C188.003 47.276 187.307 46.1613 186.825 44.92C186.369 43.6787 186.141 42.374 186.141 41.006C186.141 39.638 186.369 38.3333 186.825 37.092C187.307 35.8253 188.003 34.7107 188.915 33.748C189.853 32.7853 191.005 32.0253 192.373 31.468C193.741 30.9107 195.312 30.632 197.085 30.632C198.884 30.632 200.455 30.9107 201.797 31.468C203.165 32.0253 204.305 32.7853 205.217 33.748C206.155 34.7107 206.851 35.8253 207.307 37.092C207.789 38.3333 208.029 39.638 208.029 41.006C208.029 42.374 207.789 43.6787 207.307 44.92C206.851 46.1613 206.155 47.276 205.217 48.264C204.305 49.2267 203.165 49.9867 201.797 50.544C200.455 51.1013 198.884 51.38 197.085 51.38ZM193.551 41.006C193.551 41.8927 193.703 42.6653 194.007 43.324C194.311 43.9573 194.729 44.4513 195.261 44.806C195.793 45.1353 196.401 45.3 197.085 45.3C197.769 45.3 198.377 45.1353 198.909 44.806C199.441 44.4513 199.859 43.9573 200.163 43.324C200.467 42.6653 200.619 41.8927 200.619 41.006C200.619 40.1193 200.467 39.3593 200.163 38.726C199.859 38.0673 199.441 37.5733 198.909 37.244C198.377 36.8893 197.769 36.712 197.085 36.712C196.401 36.712 195.793 36.8893 195.261 37.244C194.729 37.5733 194.311 38.0673 194.007 38.726C193.703 39.3593 193.551 40.1193 193.551 41.006ZM212.751 38.764H210.281V33.33H212.751V31.164C212.751 29.8973 212.967 28.7573 213.397 27.744C213.853 26.7307 214.487 25.8693 215.297 25.16C216.108 24.4253 217.071 23.868 218.185 23.488C219.3 23.0827 220.516 22.88 221.833 22.88C222.821 22.88 223.771 22.994 224.683 23.222C225.621 23.4247 226.571 23.754 227.533 24.21C228.496 24.666 229.509 25.236 230.573 25.92L227.837 31.392C226.976 30.632 226.064 30.0367 225.101 29.606C224.139 29.1753 223.214 28.96 222.327 28.96C221.846 28.96 221.428 29.036 221.073 29.188C220.719 29.3147 220.44 29.53 220.237 29.834C220.06 30.1127 219.971 30.4673 219.971 30.898V33.33H231.333V51H224.113V38.764H219.971V51H212.751V38.764ZM235.555 23.26H242.775V43.058C242.775 43.7927 242.927 44.3627 243.231 44.768C243.56 45.148 244.029 45.338 244.637 45.338C244.941 45.338 245.27 45.2873 245.625 45.186C245.979 45.0847 246.309 44.9453 246.613 44.768L247.525 50.088C246.663 50.4933 245.688 50.81 244.599 51.038C243.535 51.266 242.521 51.38 241.559 51.38C239.633 51.38 238.151 50.886 237.113 49.898C236.074 48.8847 235.555 47.4533 235.555 45.604V23.26ZM259.817 51.38C258.069 51.38 256.511 51.114 255.143 50.582C253.775 50.0247 252.622 49.2773 251.685 48.34C250.773 47.4027 250.076 46.326 249.595 45.11C249.113 43.894 248.873 42.6147 248.873 41.272C248.873 39.3467 249.291 37.586 250.127 35.99C250.963 34.3687 252.191 33.0767 253.813 32.114C255.434 31.126 257.435 30.632 259.817 30.632C262.198 30.632 264.199 31.1133 265.821 32.076C267.442 33.0387 268.671 34.3053 269.507 35.876C270.343 37.4467 270.761 39.1567 270.761 41.006C270.761 41.386 270.735 41.7787 270.685 42.184C270.659 42.564 270.621 42.906 270.571 43.21H256.549C256.599 43.9193 256.789 44.502 257.119 44.958C257.473 45.3887 257.904 45.7053 258.411 45.908C258.943 46.1107 259.487 46.212 260.045 46.212C260.83 46.212 261.565 46.0347 262.249 45.68C262.958 45.3253 263.427 44.8313 263.655 44.198L269.773 45.946C269.241 47.01 268.493 47.9473 267.531 48.758C266.593 49.5687 265.479 50.2147 264.187 50.696C262.895 51.152 261.438 51.38 259.817 51.38ZM256.397 38.878H263.009C262.933 38.2193 262.743 37.662 262.439 37.206C262.16 36.75 261.78 36.3953 261.299 36.142C260.843 35.8887 260.311 35.762 259.703 35.762C259.095 35.762 258.55 35.8887 258.069 36.142C257.613 36.3953 257.233 36.75 256.929 37.206C256.65 37.662 256.473 38.2193 256.397 38.878Z" fill="white"/>
<defs>
<clipPath id="clip0_503_53">
<rect width="42" height="41.6499" fill="white" transform="matrix(-1 0 0 1 42 18.3501)"/>
</clipPath>
</defs>
</svg>
