<svg width="218" height="56" viewBox="0 0 218 56" fill="none" xmlns="http://www.w3.org/2000/svg">
<g filter="url(#filter0_d_713_139)">
<path d="M200.849 11.9361L200.916 12.2151L201.191 12.2972L210.251 15L201.191 17.7028L200.916 17.7849L200.849 18.0639L198.463 27.8825L196.077 18.0639L196.009 17.7849L195.734 17.7028L186.674 15L195.734 12.2972L196.009 12.2151L196.077 11.9361L198.463 2.11754L200.849 11.9361Z" fill="#48DFB7" stroke="#5B46AE"/>
<path d="M50.2011 22.12L53.7571 30.24L57.3971 22.12H63.3331L56.4731 35.42V42H51.0411V35.364L44.2931 22.12H50.2011ZM69.6679 42.28C68.3612 42.28 67.2039 42.0747 66.1959 41.664C65.1879 41.2533 64.3386 40.6933 63.6479 39.984C62.9759 39.256 62.4626 38.4347 62.1079 37.52C61.7719 36.6053 61.6039 35.644 61.6039 34.636C61.6039 33.628 61.7719 32.6667 62.1079 31.752C62.4626 30.8187 62.9759 29.9973 63.6479 29.288C64.3386 28.5787 65.1879 28.0187 66.1959 27.608C67.2039 27.1973 68.3612 26.992 69.6679 26.992C70.9932 26.992 72.1506 27.1973 73.1399 27.608C74.1479 28.0187 74.9879 28.5787 75.6599 29.288C76.3506 29.9973 76.8639 30.8187 77.1999 31.752C77.5546 32.6667 77.7319 33.628 77.7319 34.636C77.7319 35.644 77.5546 36.6053 77.1999 37.52C76.8639 38.4347 76.3506 39.256 75.6599 39.984C74.9879 40.6933 74.1479 41.2533 73.1399 41.664C72.1506 42.0747 70.9932 42.28 69.6679 42.28ZM67.0639 34.636C67.0639 35.2893 67.1759 35.8587 67.3999 36.344C67.6239 36.8107 67.9319 37.1747 68.3239 37.436C68.7159 37.6787 69.1639 37.8 69.6679 37.8C70.1719 37.8 70.6199 37.6787 71.0119 37.436C71.4039 37.1747 71.7119 36.8107 71.9359 36.344C72.1599 35.8587 72.2719 35.2893 72.2719 34.636C72.2719 33.9827 72.1599 33.4227 71.9359 32.956C71.7119 32.4707 71.4039 32.1067 71.0119 31.864C70.6199 31.6027 70.1719 31.472 69.6679 31.472C69.1639 31.472 68.7159 31.6027 68.3239 31.864C67.9319 32.1067 67.6239 32.4707 67.3999 32.956C67.1759 33.4227 67.0639 33.9827 67.0639 34.636ZM80.0351 36.96V27.272H85.3551V35.756C85.3551 36.3907 85.4951 36.8947 85.7751 37.268C86.0738 37.6227 86.4751 37.8 86.9791 37.8C87.2591 37.8 87.5391 37.7627 87.8191 37.688C88.0991 37.6133 88.3791 37.464 88.6591 37.24C88.9578 37.016 89.2471 36.6987 89.5271 36.288V27.272H94.8471V36.12C94.8471 36.624 94.9218 36.9787 95.0711 37.184C95.2204 37.3707 95.4818 37.4827 95.8551 37.52V42C95.3884 42.0933 94.9684 42.1587 94.5951 42.196C94.2218 42.252 93.8951 42.28 93.6151 42.28C92.7191 42.28 92.0098 42.112 91.4871 41.776C90.9644 41.44 90.6284 40.9267 90.4791 40.236L90.3671 39.704C89.6764 40.6187 88.8458 41.2813 87.8751 41.692C86.9231 42.084 85.8404 42.28 84.6271 42.28C83.1524 42.28 82.0138 41.8227 81.2111 40.908C80.4271 39.9933 80.0351 38.6773 80.0351 36.96ZM108.587 31.808C107.56 31.808 106.627 31.92 105.787 32.144C104.947 32.368 104.321 32.7413 103.911 33.264V42H98.5906V27.272H103.463V30.072C103.985 29.0827 104.639 28.3267 105.423 27.804C106.207 27.2627 107.037 26.992 107.915 26.992C108.12 26.992 108.26 26.992 108.335 26.992C108.428 26.992 108.512 27.0013 108.587 27.02V31.808ZM117.438 42V22.12H126.006C126.977 22.12 127.873 22.316 128.694 22.708C129.515 23.1 130.225 23.632 130.822 24.304C131.419 24.9573 131.877 25.6947 132.194 26.516C132.53 27.3373 132.698 28.168 132.698 29.008C132.698 30.184 132.418 31.2947 131.858 32.34C131.317 33.3853 130.551 34.244 129.562 34.916C128.591 35.5693 127.453 35.896 126.146 35.896H122.898V42H117.438ZM122.898 31.136H125.782C126.006 31.136 126.221 31.0707 126.426 30.94C126.631 30.8093 126.799 30.5853 126.93 30.268C127.079 29.9507 127.154 29.5307 127.154 29.008C127.154 28.448 127.07 28.0187 126.902 27.72C126.753 27.4027 126.557 27.188 126.314 27.076C126.09 26.9453 125.866 26.88 125.642 26.88H122.898V31.136ZM145.075 31.808C144.049 31.808 143.115 31.92 142.275 32.144C141.435 32.368 140.81 32.7413 140.399 33.264V42H135.079V27.272H139.951V30.072C140.474 29.0827 141.127 28.3267 141.911 27.804C142.695 27.2627 143.526 26.992 144.403 26.992C144.609 26.992 144.749 26.992 144.823 26.992C144.917 26.992 145.001 27.0013 145.075 27.02V31.808ZM154.54 42.28C153.233 42.28 152.076 42.0747 151.068 41.664C150.06 41.2533 149.21 40.6933 148.52 39.984C147.848 39.256 147.334 38.4347 146.98 37.52C146.644 36.6053 146.476 35.644 146.476 34.636C146.476 33.628 146.644 32.6667 146.98 31.752C147.334 30.8187 147.848 29.9973 148.52 29.288C149.21 28.5787 150.06 28.0187 151.068 27.608C152.076 27.1973 153.233 26.992 154.54 26.992C155.865 26.992 157.022 27.1973 158.012 27.608C159.02 28.0187 159.86 28.5787 160.532 29.288C161.222 29.9973 161.736 30.8187 162.072 31.752C162.426 32.6667 162.604 33.628 162.604 34.636C162.604 35.644 162.426 36.6053 162.072 37.52C161.736 38.4347 161.222 39.256 160.532 39.984C159.86 40.6933 159.02 41.2533 158.012 41.664C157.022 42.0747 155.865 42.28 154.54 42.28ZM151.936 34.636C151.936 35.2893 152.048 35.8587 152.272 36.344C152.496 36.8107 152.804 37.1747 153.196 37.436C153.588 37.6787 154.036 37.8 154.54 37.8C155.044 37.8 155.492 37.6787 155.884 37.436C156.276 37.1747 156.584 36.8107 156.808 36.344C157.032 35.8587 157.144 35.2893 157.144 34.636C157.144 33.9827 157.032 33.4227 156.808 32.956C156.584 32.4707 156.276 32.1067 155.884 31.864C155.492 31.6027 155.044 31.472 154.54 31.472C154.036 31.472 153.588 31.6027 153.196 31.864C152.804 32.1067 152.496 32.4707 152.272 32.956C152.048 33.4227 151.936 33.9827 151.936 34.636ZM166.083 32.984H164.263V28.98H166.083V27.384C166.083 26.4507 166.242 25.6107 166.559 24.864C166.895 24.1173 167.362 23.4827 167.959 22.96C168.556 22.4187 169.266 22.008 170.087 21.728C170.908 21.4293 171.804 21.28 172.775 21.28C173.503 21.28 174.203 21.364 174.875 21.532C175.566 21.6813 176.266 21.924 176.975 22.26C177.684 22.596 178.431 23.016 179.215 23.52L177.199 27.552C176.564 26.992 175.892 26.5533 175.183 26.236C174.474 25.9187 173.792 25.76 173.139 25.76C172.784 25.76 172.476 25.816 172.215 25.928C171.954 26.0213 171.748 26.18 171.599 26.404C171.468 26.6093 171.403 26.8707 171.403 27.188V28.98H179.775V42H174.455V32.984H171.403V42H166.083V32.984ZM182.885 21.56H188.205V36.148C188.205 36.6893 188.317 37.1093 188.541 37.408C188.784 37.688 189.129 37.828 189.577 37.828C189.801 37.828 190.044 37.7907 190.305 37.716C190.567 37.6413 190.809 37.5387 191.033 37.408L191.705 41.328C191.071 41.6267 190.352 41.86 189.549 42.028C188.765 42.196 188.019 42.28 187.309 42.28C185.891 42.28 184.799 41.916 184.033 41.188C183.268 40.4413 182.885 39.3867 182.885 38.024V21.56ZM200.763 42.28C199.475 42.28 198.327 42.084 197.319 41.692C196.311 41.2813 195.461 40.7307 194.771 40.04C194.099 39.3493 193.585 38.556 193.231 37.66C192.876 36.764 192.699 35.8213 192.699 34.832C192.699 33.4133 193.007 32.116 193.623 30.94C194.239 29.7453 195.144 28.7933 196.339 28.084C197.533 27.356 199.008 26.992 200.763 26.992C202.517 26.992 203.992 27.3467 205.187 28.056C206.381 28.7653 207.287 29.6987 207.903 30.856C208.519 32.0133 208.827 33.2733 208.827 34.636C208.827 34.916 208.808 35.2053 208.771 35.504C208.752 35.784 208.724 36.036 208.687 36.26H198.355C198.392 36.7827 198.532 37.212 198.775 37.548C199.036 37.8653 199.353 38.0987 199.727 38.248C200.119 38.3973 200.52 38.472 200.931 38.472C201.509 38.472 202.051 38.3413 202.555 38.08C203.077 37.8187 203.423 37.4547 203.591 36.988L208.099 38.276C207.707 39.06 207.156 39.7507 206.447 40.348C205.756 40.9453 204.935 41.4213 203.983 41.776C203.031 42.112 201.957 42.28 200.763 42.28ZM198.243 33.068H203.115C203.059 32.5827 202.919 32.172 202.695 31.836C202.489 31.5 202.209 31.2387 201.855 31.052C201.519 30.8653 201.127 30.772 200.679 30.772C200.231 30.772 199.829 30.8653 199.475 31.052C199.139 31.2387 198.859 31.5 198.635 31.836C198.429 32.172 198.299 32.5827 198.243 33.068Z" fill="#5B46AE"/>
<path d="M22.0564 12.1925C30.6414 12.9338 37.4783 19.2526 38.7333 27.6079C39.3646 31.8231 38.2945 36.4198 35.8538 39.9684C33.9751 42.7087 31.5962 44.7374 28.5781 46.1826C26.7073 47.0737 24.8285 47.6201 22.6881 47.9047C21.7487 48.0318 19.1619 48.0318 18.2225 47.9047C14.0342 47.3505 10.3151 45.5911 7.4511 42.8061C4.74112 40.1706 2.94714 36.8465 2.29252 33.2379C1.82284 30.6697 1.91512 28.1994 2.59271 25.5862C3.37049 22.5764 5.05637 19.694 7.35091 17.4555C11.2311 13.66 16.6361 11.7207 22.0564 12.1925ZM18.6455 15.1349C17.4135 15.7041 16.8594 16.9244 17.0594 18.6088C17.175 19.5596 17.3521 20.2111 17.9988 22.1277C18.5916 23.8872 18.6379 24.2014 18.299 24.3662C18.1528 24.4409 17.3287 24.4636 14.9419 24.4636C11.3231 24.4636 11.2462 24.471 10.615 25.0251C10.1223 25.4518 9.89894 25.9535 9.89894 26.5974C9.89894 27.3761 10.3302 28.1023 10.9844 28.4166L11.2925 28.5587L10.9536 28.6858C10.5611 28.8279 10.0296 29.352 9.85261 29.764C9.65261 30.213 9.69103 30.8869 9.93736 31.3737C10.1528 31.808 10.5765 32.2197 10.8843 32.2944C11.1151 32.3541 11.1076 32.4142 10.8379 32.5713C10.2914 32.8859 9.82926 33.6569 9.82926 34.2711C9.82926 34.6454 10.0601 35.2145 10.3374 35.5288C10.7457 35.9932 11.1306 36.1653 11.9005 36.21L12.5551 36.255L12.2394 36.4572C11.3539 37.026 11.4003 38.3141 12.3317 38.8755L12.7012 39.1001H16.5976C21.3943 39.0924 23.096 38.9726 25.7061 38.4562C27.038 38.1943 28.7088 38.0145 29.8715 38.0145C30.734 38.0145 31.0881 37.9244 31.1879 37.6775C31.2726 37.453 31.2417 28.3788 31.1495 28.1844C30.9879 27.8474 30.8184 27.8024 29.2707 27.75C27.6692 27.6903 27.4075 27.6376 26.9457 27.3156C26.3299 26.8813 25.3212 25.6162 24.4127 24.1337C23.5736 22.7562 23.1423 22.1497 22.4342 21.326C21.1792 19.8734 21.0406 19.5815 20.5709 17.3881C20.2628 15.9432 20.1091 15.4264 19.9317 15.2243C19.6387 14.9104 19.1999 14.8804 18.6455 15.1349Z" fill="#5B46AE"/>
<rect width="3.0315" height="9.81232" rx="1.51575" transform="matrix(0.972852 -0.243457 0.247188 0.966006 15.1694 0.738037)" fill="#5B46AE"/>
<rect width="3.0315" height="9.81232" rx="1.51575" transform="matrix(0.972852 -0.243457 0.247188 0.966006 15.1694 0.738037)" fill="#5B46AE"/>
<rect width="3.01756" height="7.71545" rx="1.50878" transform="matrix(0.658291 -0.755106 0.759636 0.647654 8.62988 6.44385)" fill="#5B46AE"/>
<rect width="3.01756" height="7.71545" rx="1.50878" transform="matrix(0.658291 -0.755106 0.759636 0.647654 8.62988 6.44385)" fill="#5B46AE"/>
<rect width="3.0375" height="7.66461" rx="1.51875" transform="matrix(0.973696 0.231896 -0.236386 0.970691 23.2349 0.984375)" fill="#5B46AE"/>
<rect width="3.0375" height="7.66461" rx="1.51875" transform="matrix(0.973696 0.231896 -0.236386 0.970691 23.2349 0.984375)" fill="#5B46AE"/>
</g>
<defs>
<filter id="filter0_d_713_139" x="0" y="0" width="218" height="56" filterUnits="userSpaceOnUse" color-interpolation-filters="sRGB">
<feFlood flood-opacity="0" result="BackgroundImageFix"/>
<feColorMatrix in="SourceAlpha" type="matrix" values="0 0 0 0 0 0 0 0 0 0 0 0 0 0 0 0 0 0 127 0" result="hardAlpha"/>
<feOffset dx="2" dy="4"/>
<feGaussianBlur stdDeviation="2"/>
<feComposite in2="hardAlpha" operator="out"/>
<feColorMatrix type="matrix" values="0 0 0 0 0.282353 0 0 0 0 0.87451 0 0 0 0 0.717647 0 0 0 1 0"/>
<feBlend mode="normal" in2="BackgroundImageFix" result="effect1_dropShadow_713_139"/>
<feBlend mode="normal" in="SourceGraphic" in2="effect1_dropShadow_713_139" result="shape"/>
</filter>
</defs>
</svg>
