<svg width="210" height="48" viewBox="0 0 210 48" fill="none" xmlns="http://www.w3.org/2000/svg">
<path d="M198.849 11.9361L198.916 12.2151L199.191 12.2972L208.251 15L199.191 17.7028L198.916 17.7849L198.849 18.0639L196.463 27.8825L194.077 18.0639L194.009 17.7849L193.734 17.7028L184.674 15L193.734 12.2972L194.009 12.2151L194.077 11.9361L196.463 2.11754L198.849 11.9361Z" fill="#48DFB7" stroke="#5B46AE"/>
<path d="M48.2011 22.12L51.7571 30.24L55.3971 22.12H61.3331L54.4731 35.42V42H49.0411V35.364L42.2931 22.12H48.2011ZM67.6679 42.28C66.3612 42.28 65.2039 42.0747 64.1959 41.664C63.1879 41.2533 62.3386 40.6933 61.6479 39.984C60.9759 39.256 60.4626 38.4347 60.1079 37.52C59.7719 36.6053 59.6039 35.644 59.6039 34.636C59.6039 33.628 59.7719 32.6667 60.1079 31.752C60.4626 30.8187 60.9759 29.9973 61.6479 29.288C62.3386 28.5787 63.1879 28.0187 64.1959 27.608C65.2039 27.1973 66.3612 26.992 67.6679 26.992C68.9932 26.992 70.1506 27.1973 71.1399 27.608C72.1479 28.0187 72.9879 28.5787 73.6599 29.288C74.3506 29.9973 74.8639 30.8187 75.1999 31.752C75.5546 32.6667 75.7319 33.628 75.7319 34.636C75.7319 35.644 75.5546 36.6053 75.1999 37.52C74.8639 38.4347 74.3506 39.256 73.6599 39.984C72.9879 40.6933 72.1479 41.2533 71.1399 41.664C70.1506 42.0747 68.9932 42.28 67.6679 42.28ZM65.0639 34.636C65.0639 35.2893 65.1759 35.8587 65.3999 36.344C65.6239 36.8107 65.9319 37.1747 66.3239 37.436C66.7159 37.6787 67.1639 37.8 67.6679 37.8C68.1719 37.8 68.6199 37.6787 69.0119 37.436C69.4039 37.1747 69.7119 36.8107 69.9359 36.344C70.1599 35.8587 70.2719 35.2893 70.2719 34.636C70.2719 33.9827 70.1599 33.4227 69.9359 32.956C69.7119 32.4707 69.4039 32.1067 69.0119 31.864C68.6199 31.6027 68.1719 31.472 67.6679 31.472C67.1639 31.472 66.7159 31.6027 66.3239 31.864C65.9319 32.1067 65.6239 32.4707 65.3999 32.956C65.1759 33.4227 65.0639 33.9827 65.0639 34.636ZM78.0351 36.96V27.272H83.3551V35.756C83.3551 36.3907 83.4951 36.8947 83.7751 37.268C84.0738 37.6227 84.4751 37.8 84.9791 37.8C85.2591 37.8 85.5391 37.7627 85.8191 37.688C86.0991 37.6133 86.3791 37.464 86.6591 37.24C86.9578 37.016 87.2471 36.6987 87.5271 36.288V27.272H92.8471V36.12C92.8471 36.624 92.9218 36.9787 93.0711 37.184C93.2204 37.3707 93.4818 37.4827 93.8551 37.52V42C93.3884 42.0933 92.9684 42.1587 92.5951 42.196C92.2218 42.252 91.8951 42.28 91.6151 42.28C90.7191 42.28 90.0098 42.112 89.4871 41.776C88.9644 41.44 88.6284 40.9267 88.4791 40.236L88.3671 39.704C87.6764 40.6187 86.8458 41.2813 85.8751 41.692C84.9231 42.084 83.8404 42.28 82.6271 42.28C81.1524 42.28 80.0138 41.8227 79.2111 40.908C78.4271 39.9933 78.0351 38.6773 78.0351 36.96ZM106.587 31.808C105.56 31.808 104.627 31.92 103.787 32.144C102.947 32.368 102.321 32.7413 101.911 33.264V42H96.5906V27.272H101.463V30.072C101.985 29.0827 102.639 28.3267 103.423 27.804C104.207 27.2627 105.037 26.992 105.915 26.992C106.12 26.992 106.26 26.992 106.335 26.992C106.428 26.992 106.512 27.0013 106.587 27.02V31.808ZM115.438 42V22.12H124.006C124.977 22.12 125.873 22.316 126.694 22.708C127.515 23.1 128.225 23.632 128.822 24.304C129.419 24.9573 129.877 25.6947 130.194 26.516C130.53 27.3373 130.698 28.168 130.698 29.008C130.698 30.184 130.418 31.2947 129.858 32.34C129.317 33.3853 128.551 34.244 127.562 34.916C126.591 35.5693 125.453 35.896 124.146 35.896H120.898V42H115.438ZM120.898 31.136H123.782C124.006 31.136 124.221 31.0707 124.426 30.94C124.631 30.8093 124.799 30.5853 124.93 30.268C125.079 29.9507 125.154 29.5307 125.154 29.008C125.154 28.448 125.07 28.0187 124.902 27.72C124.753 27.4027 124.557 27.188 124.314 27.076C124.09 26.9453 123.866 26.88 123.642 26.88H120.898V31.136ZM143.075 31.808C142.049 31.808 141.115 31.92 140.275 32.144C139.435 32.368 138.81 32.7413 138.399 33.264V42H133.079V27.272H137.951V30.072C138.474 29.0827 139.127 28.3267 139.911 27.804C140.695 27.2627 141.526 26.992 142.403 26.992C142.609 26.992 142.749 26.992 142.823 26.992C142.917 26.992 143.001 27.0013 143.075 27.02V31.808ZM152.54 42.28C151.233 42.28 150.076 42.0747 149.068 41.664C148.06 41.2533 147.21 40.6933 146.52 39.984C145.848 39.256 145.334 38.4347 144.98 37.52C144.644 36.6053 144.476 35.644 144.476 34.636C144.476 33.628 144.644 32.6667 144.98 31.752C145.334 30.8187 145.848 29.9973 146.52 29.288C147.21 28.5787 148.06 28.0187 149.068 27.608C150.076 27.1973 151.233 26.992 152.54 26.992C153.865 26.992 155.022 27.1973 156.012 27.608C157.02 28.0187 157.86 28.5787 158.532 29.288C159.222 29.9973 159.736 30.8187 160.072 31.752C160.426 32.6667 160.604 33.628 160.604 34.636C160.604 35.644 160.426 36.6053 160.072 37.52C159.736 38.4347 159.222 39.256 158.532 39.984C157.86 40.6933 157.02 41.2533 156.012 41.664C155.022 42.0747 153.865 42.28 152.54 42.28ZM149.936 34.636C149.936 35.2893 150.048 35.8587 150.272 36.344C150.496 36.8107 150.804 37.1747 151.196 37.436C151.588 37.6787 152.036 37.8 152.54 37.8C153.044 37.8 153.492 37.6787 153.884 37.436C154.276 37.1747 154.584 36.8107 154.808 36.344C155.032 35.8587 155.144 35.2893 155.144 34.636C155.144 33.9827 155.032 33.4227 154.808 32.956C154.584 32.4707 154.276 32.1067 153.884 31.864C153.492 31.6027 153.044 31.472 152.54 31.472C152.036 31.472 151.588 31.6027 151.196 31.864C150.804 32.1067 150.496 32.4707 150.272 32.956C150.048 33.4227 149.936 33.9827 149.936 34.636ZM164.083 32.984H162.263V28.98H164.083V27.384C164.083 26.4507 164.242 25.6107 164.559 24.864C164.895 24.1173 165.362 23.4827 165.959 22.96C166.556 22.4187 167.266 22.008 168.087 21.728C168.908 21.4293 169.804 21.28 170.775 21.28C171.503 21.28 172.203 21.364 172.875 21.532C173.566 21.6813 174.266 21.924 174.975 22.26C175.684 22.596 176.431 23.016 177.215 23.52L175.199 27.552C174.564 26.992 173.892 26.5533 173.183 26.236C172.474 25.9187 171.792 25.76 171.139 25.76C170.784 25.76 170.476 25.816 170.215 25.928C169.954 26.0213 169.748 26.18 169.599 26.404C169.468 26.6093 169.403 26.8707 169.403 27.188V28.98H177.775V42H172.455V32.984H169.403V42H164.083V32.984ZM180.885 21.56H186.205V36.148C186.205 36.6893 186.317 37.1093 186.541 37.408C186.784 37.688 187.129 37.828 187.577 37.828C187.801 37.828 188.044 37.7907 188.305 37.716C188.567 37.6413 188.809 37.5387 189.033 37.408L189.705 41.328C189.071 41.6267 188.352 41.86 187.549 42.028C186.765 42.196 186.019 42.28 185.309 42.28C183.891 42.28 182.799 41.916 182.033 41.188C181.268 40.4413 180.885 39.3867 180.885 38.024V21.56ZM198.763 42.28C197.475 42.28 196.327 42.084 195.319 41.692C194.311 41.2813 193.461 40.7307 192.771 40.04C192.099 39.3493 191.585 38.556 191.231 37.66C190.876 36.764 190.699 35.8213 190.699 34.832C190.699 33.4133 191.007 32.116 191.623 30.94C192.239 29.7453 193.144 28.7933 194.339 28.084C195.533 27.356 197.008 26.992 198.763 26.992C200.517 26.992 201.992 27.3467 203.187 28.056C204.381 28.7653 205.287 29.6987 205.903 30.856C206.519 32.0133 206.827 33.2733 206.827 34.636C206.827 34.916 206.808 35.2053 206.771 35.504C206.752 35.784 206.724 36.036 206.687 36.26H196.355C196.392 36.7827 196.532 37.212 196.775 37.548C197.036 37.8653 197.353 38.0987 197.727 38.248C198.119 38.3973 198.52 38.472 198.931 38.472C199.509 38.472 200.051 38.3413 200.555 38.08C201.077 37.8187 201.423 37.4547 201.591 36.988L206.099 38.276C205.707 39.06 205.156 39.7507 204.447 40.348C203.756 40.9453 202.935 41.4213 201.983 41.776C201.031 42.112 199.957 42.28 198.763 42.28ZM196.243 33.068H201.115C201.059 32.5827 200.919 32.172 200.695 31.836C200.489 31.5 200.209 31.2387 199.855 31.052C199.519 30.8653 199.127 30.772 198.679 30.772C198.231 30.772 197.829 30.8653 197.475 31.052C197.139 31.2387 196.859 31.5 196.635 31.836C196.429 32.172 196.299 32.5827 196.243 33.068Z" fill="#5B46AE"/>
<path d="M20.0564 12.1925C28.6414 12.9338 35.4783 19.2526 36.7333 27.6079C37.3646 31.8231 36.2945 36.4198 33.8538 39.9684C31.9751 42.7087 29.5962 44.7374 26.5781 46.1826C24.7073 47.0737 22.8285 47.6201 20.6881 47.9047C19.7487 48.0318 17.1619 48.0318 16.2225 47.9047C12.0342 47.3505 8.31514 45.5911 5.4511 42.8061C2.74112 40.1706 0.947135 36.8465 0.292519 33.2379C-0.177162 30.6697 -0.0848819 28.1994 0.592709 25.5862C1.37049 22.5764 3.05637 19.694 5.35091 17.4555C9.23115 13.66 14.6361 11.7207 20.0564 12.1925ZM16.6455 15.1349C15.4135 15.7041 14.8594 16.9244 15.0594 18.6088C15.175 19.5596 15.3521 20.2111 15.9988 22.1277C16.5916 23.8872 16.6379 24.2014 16.299 24.3662C16.1528 24.4409 15.3287 24.4636 12.9419 24.4636C9.32305 24.4636 9.24622 24.471 8.61495 25.0251C8.1223 25.4518 7.89894 25.9535 7.89894 26.5974C7.89894 27.3761 8.33021 28.1023 8.98444 28.4166L9.29254 28.5587L8.95356 28.6858C8.56109 28.8279 8.02964 29.352 7.85261 29.764C7.65261 30.213 7.69103 30.8869 7.93736 31.3737C8.1528 31.808 8.57653 32.2197 8.88426 32.2944C9.11514 32.3541 9.10761 32.4142 8.83793 32.5713C8.29141 32.8859 7.82926 33.6569 7.82926 34.2711C7.82926 34.6454 8.06015 35.2145 8.33736 35.5288C8.74565 35.9932 9.13059 36.1653 9.90046 36.21L10.5551 36.255L10.2394 36.4572C9.35394 37.026 9.40027 38.3141 10.3317 38.8755L10.7012 39.1001H14.5976C19.3943 39.0924 21.096 38.9726 23.7061 38.4562C25.038 38.1943 26.7088 38.0145 27.8715 38.0145C28.734 38.0145 29.0881 37.9244 29.1879 37.6775C29.2726 37.453 29.2417 28.3788 29.1495 28.1844C28.9879 27.8474 28.8184 27.8024 27.2707 27.75C25.6692 27.6903 25.4075 27.6376 24.9457 27.3156C24.3299 26.8813 23.3212 25.6162 22.4127 24.1337C21.5736 22.7562 21.1423 22.1497 20.4342 21.326C19.1792 19.8734 19.0406 19.5815 18.5709 17.3881C18.2628 15.9432 18.1091 15.4264 17.9317 15.2243C17.6387 14.9104 17.1999 14.8804 16.6455 15.1349Z" fill="#5B46AE"/>
<rect width="3.0315" height="9.81232" rx="1.51575" transform="matrix(0.972852 -0.243457 0.247188 0.966006 13.1694 0.738037)" fill="#5B46AE"/>
<rect width="3.0315" height="9.81232" rx="1.51575" transform="matrix(0.972852 -0.243457 0.247188 0.966006 13.1694 0.738037)" fill="#5B46AE"/>
<rect width="3.01756" height="7.71545" rx="1.50878" transform="matrix(0.658291 -0.755106 0.759636 0.647654 6.62988 6.44385)" fill="#5B46AE"/>
<rect width="3.01756" height="7.71545" rx="1.50878" transform="matrix(0.658291 -0.755106 0.759636 0.647654 6.62988 6.44385)" fill="#5B46AE"/>
<rect width="3.0375" height="7.66461" rx="1.51875" transform="matrix(0.973696 0.231896 -0.236386 0.970691 21.2349 0.984375)" fill="#5B46AE"/>
<rect width="3.0375" height="7.66461" rx="1.51875" transform="matrix(0.973696 0.231896 -0.236386 0.970691 21.2349 0.984375)" fill="#5B46AE"/>
</svg>
