<svg width="608" height="176" viewBox="0 0 608 176" fill="none" xmlns="http://www.w3.org/2000/svg">
<path d="M134.928 61.96H141.984V51.208H135.432V46.168H147.276V61.96H153.324V67H134.928V61.96ZM148.578 39.994C148.578 40.554 148.466 41.086 148.242 41.59C148.046 42.066 147.766 42.486 147.402 42.85C147.038 43.186 146.604 43.466 146.1 43.69C145.624 43.886 145.12 43.984 144.588 43.984C144.028 43.984 143.51 43.886 143.034 43.69C142.558 43.466 142.138 43.186 141.774 42.85C141.41 42.486 141.116 42.066 140.892 41.59C140.696 41.086 140.598 40.554 140.598 39.994C140.598 39.434 140.696 38.916 140.892 38.44C141.116 37.936 141.41 37.516 141.774 37.18C142.138 36.816 142.558 36.536 143.034 36.34C143.51 36.116 144.028 36.004 144.588 36.004C145.12 36.004 145.624 36.116 146.1 36.34C146.604 36.536 147.038 36.816 147.402 37.18C147.766 37.516 148.046 37.936 148.242 38.44C148.466 38.916 148.578 39.434 148.578 39.994ZM181.183 67H175.891V52.384C175.891 51.796 175.737 51.362 175.429 51.082C175.149 50.774 174.771 50.62 174.295 50.62C173.735 50.62 173.287 50.788 172.951 51.124C172.643 51.46 172.489 51.964 172.489 52.636V67H167.197V52.384C167.197 51.796 167.029 51.362 166.693 51.082C166.385 50.774 166.007 50.62 165.559 50.62C165.055 50.62 164.635 50.788 164.299 51.124C163.963 51.46 163.795 51.964 163.795 52.636V67H158.503V46.168H163.795V48.184H164.551C164.719 47.428 165.097 46.812 165.685 46.336C166.301 45.832 167.099 45.58 168.079 45.58C169.003 45.58 169.787 45.832 170.431 46.336C171.075 46.812 171.509 47.428 171.733 48.184H172.489C172.713 47.428 173.175 46.812 173.875 46.336C174.603 45.832 175.499 45.58 176.563 45.58C177.963 45.58 179.083 46.056 179.923 47.008C180.763 47.932 181.183 49.22 181.183 50.872V67ZM199.466 63.976C198.906 65.292 198.122 66.23 197.114 66.79C196.106 67.322 194.93 67.588 193.586 67.588C192.326 67.588 191.136 67.35 190.016 66.874C188.924 66.398 187.958 65.698 187.118 64.774C186.278 63.85 185.606 62.73 185.102 61.414C184.626 60.098 184.388 58.6 184.388 56.92V56.248C184.388 54.596 184.626 53.112 185.102 51.796C185.578 50.48 186.222 49.36 187.034 48.436C187.846 47.512 188.784 46.812 189.848 46.336C190.94 45.832 192.102 45.58 193.334 45.58C194.818 45.58 196.008 45.832 196.904 46.336C197.828 46.84 198.556 47.624 199.088 48.688H199.844V46.168H205.136V60.7C205.136 61.54 205.514 61.96 206.27 61.96H207.068V67H203.456C202.504 67 201.72 66.72 201.104 66.16C200.516 65.6 200.222 64.872 200.222 63.976H199.466ZM194.762 62.548C196.302 62.548 197.534 62.044 198.458 61.036C199.382 60 199.844 58.6 199.844 56.836V56.332C199.844 54.568 199.382 53.182 198.458 52.174C197.534 51.138 196.302 50.62 194.762 50.62C193.222 50.62 191.99 51.138 191.066 52.174C190.142 53.182 189.68 54.568 189.68 56.332V56.836C189.68 58.6 190.142 60 191.066 61.036C191.99 62.044 193.222 62.548 194.762 62.548ZM226.569 63.976H225.813C225.589 64.452 225.309 64.914 224.973 65.362C224.665 65.782 224.245 66.16 223.713 66.496C223.209 66.832 222.593 67.098 221.865 67.294C221.165 67.49 220.311 67.588 219.303 67.588C218.015 67.588 216.811 67.364 215.691 66.916C214.599 66.44 213.633 65.754 212.793 64.858C211.981 63.934 211.337 62.814 210.861 61.498C210.413 60.182 210.189 58.67 210.189 56.962V56.206C210.189 54.526 210.427 53.028 210.903 51.712C211.407 50.396 212.079 49.29 212.919 48.394C213.787 47.47 214.781 46.77 215.901 46.294C217.049 45.818 218.253 45.58 219.513 45.58C221.193 45.58 222.523 45.902 223.503 46.546C224.483 47.162 225.253 48.044 225.813 49.192H226.569V46.168H231.861V72.124C231.861 73.076 231.553 73.86 230.937 74.476C230.349 75.092 229.579 75.4 228.627 75.4H214.599V70.36H225.435C226.191 70.36 226.569 69.94 226.569 69.1V63.976ZM221.025 62.548C222.677 62.548 224.007 62.03 225.015 60.994C226.051 59.93 226.569 58.544 226.569 56.836V56.332C226.569 54.624 226.051 53.252 225.015 52.216C224.007 51.152 222.677 50.62 221.025 50.62C219.373 50.62 218.029 51.138 216.993 52.174C215.985 53.182 215.481 54.568 215.481 56.332V56.836C215.481 58.6 215.985 60 216.993 61.036C218.029 62.044 219.373 62.548 221.025 62.548ZM237.796 61.96H244.852V51.208H238.3V46.168H250.144V61.96H256.192V67H237.796V61.96ZM251.446 39.994C251.446 40.554 251.334 41.086 251.11 41.59C250.914 42.066 250.634 42.486 250.27 42.85C249.906 43.186 249.472 43.466 248.968 43.69C248.492 43.886 247.988 43.984 247.456 43.984C246.896 43.984 246.378 43.886 245.902 43.69C245.426 43.466 245.006 43.186 244.642 42.85C244.278 42.486 243.984 42.066 243.76 41.59C243.564 41.086 243.466 40.554 243.466 39.994C243.466 39.434 243.564 38.916 243.76 38.44C243.984 37.936 244.278 37.516 244.642 37.18C245.006 36.816 245.426 36.536 245.902 36.34C246.378 36.116 246.896 36.004 247.456 36.004C247.988 36.004 248.492 36.116 248.968 36.34C249.472 36.536 249.906 36.816 250.27 37.18C250.634 37.516 250.914 37.936 251.11 38.44C251.334 38.916 251.446 39.434 251.446 39.994ZM268.426 67H263.134V46.168H268.426V49.276H269.182C269.658 48.1 270.428 47.19 271.492 46.546C272.556 45.902 273.802 45.58 275.23 45.58C276.238 45.58 277.176 45.748 278.044 46.084C278.94 46.392 279.724 46.882 280.396 47.554C281.068 48.226 281.586 49.08 281.95 50.116C282.342 51.152 282.538 52.384 282.538 53.812V67H277.246V55.156C277.246 53.672 276.882 52.51 276.154 51.67C275.454 50.802 274.432 50.368 273.088 50.368C271.52 50.368 270.344 50.9 269.56 51.964C268.804 53 268.426 54.4 268.426 56.164V67ZM302.333 63.976C301.773 65.292 300.989 66.23 299.981 66.79C298.973 67.322 297.797 67.588 296.453 67.588C295.193 67.588 294.003 67.35 292.883 66.874C291.791 66.398 290.825 65.698 289.985 64.774C289.145 63.85 288.473 62.73 287.969 61.414C287.493 60.098 287.255 58.6 287.255 56.92V56.248C287.255 54.596 287.493 53.112 287.969 51.796C288.445 50.48 289.089 49.36 289.901 48.436C290.713 47.512 291.651 46.812 292.715 46.336C293.807 45.832 294.969 45.58 296.201 45.58C297.685 45.58 298.875 45.832 299.771 46.336C300.695 46.84 301.423 47.624 301.955 48.688H302.711V46.168H308.003V60.7C308.003 61.54 308.381 61.96 309.137 61.96H309.935V67H306.323C305.371 67 304.587 66.72 303.971 66.16C303.383 65.6 303.089 64.872 303.089 63.976H302.333ZM297.629 62.548C299.169 62.548 300.401 62.044 301.325 61.036C302.249 60 302.711 58.6 302.711 56.836V56.332C302.711 54.568 302.249 53.182 301.325 52.174C300.401 51.138 299.169 50.62 297.629 50.62C296.089 50.62 294.857 51.138 293.933 52.174C293.009 53.182 292.547 54.568 292.547 56.332V56.836C292.547 58.6 293.009 60 293.933 61.036C294.857 62.044 296.089 62.548 297.629 62.548ZM313.56 46.168H322.38V49.192H323.136C323.528 48.044 324.186 47.162 325.11 46.546C326.062 45.902 327.196 45.58 328.512 45.58C330.584 45.58 332.25 46.238 333.51 47.554C334.77 48.842 335.4 50.816 335.4 53.476V54.4L329.94 54.904V54.316C329.94 53.168 329.646 52.258 329.058 51.586C328.47 50.886 327.588 50.536 326.412 50.536C325.236 50.536 324.312 50.942 323.64 51.754C322.968 52.566 322.632 53.728 322.632 55.24V61.96H327.42V67H313.056V61.96H317.34V51.208H313.56V46.168ZM354.397 46.168H359.689V72.124C359.689 73.076 359.381 73.86 358.765 74.476C358.177 75.092 357.407 75.4 356.455 75.4H344.065V70.36H353.263C354.019 70.36 354.397 69.94 354.397 69.1V63.976H353.641C352.717 66.384 350.729 67.588 347.677 67.588C346.641 67.588 345.675 67.42 344.779 67.084C343.883 66.748 343.099 66.23 342.427 65.53C341.755 64.83 341.223 63.962 340.831 62.926C340.467 61.862 340.285 60.616 340.285 59.188V46.168H345.577V58.096C345.577 59.58 345.927 60.742 346.627 61.582C347.327 62.394 348.377 62.8 349.777 62.8C351.373 62.8 352.535 62.296 353.263 61.288C354.019 60.252 354.397 58.852 354.397 57.088V46.168Z" fill="#48DFB7"/>
<path d="M21.5461 86.42L33.9921 114.84L46.7321 86.42H67.5081L43.4981 132.97V156H24.4861V132.774L0.868055 86.42H21.5461ZM92.6198 156.98C88.0465 156.98 83.9958 156.261 80.4678 154.824C76.9398 153.387 73.9671 151.427 71.5498 148.944C69.1978 146.396 67.4011 143.521 66.1598 140.32C64.9838 137.119 64.3958 133.754 64.3958 130.226C64.3958 126.698 64.9838 123.333 66.1598 120.132C67.4011 116.865 69.1978 113.991 71.5498 111.508C73.9671 109.025 76.9398 107.065 80.4678 105.628C83.9958 104.191 88.0465 103.472 92.6198 103.472C97.2585 103.472 101.309 104.191 104.772 105.628C108.3 107.065 111.24 109.025 113.592 111.508C116.009 113.991 117.806 116.865 118.982 120.132C120.223 123.333 120.844 126.698 120.844 130.226C120.844 133.754 120.223 137.119 118.982 140.32C117.806 143.521 116.009 146.396 113.592 148.944C111.24 151.427 108.3 153.387 104.772 154.824C101.309 156.261 97.2585 156.98 92.6198 156.98ZM83.5058 130.226C83.5058 132.513 83.8978 134.505 84.6818 136.204C85.4658 137.837 86.5438 139.111 87.9158 140.026C89.2878 140.875 90.8558 141.3 92.6198 141.3C94.3838 141.3 95.9518 140.875 97.3238 140.026C98.6958 139.111 99.7738 137.837 100.558 136.204C101.342 134.505 101.734 132.513 101.734 130.226C101.734 127.939 101.342 125.979 100.558 124.346C99.7738 122.647 98.6958 121.373 97.3238 120.524C95.9518 119.609 94.3838 119.152 92.6198 119.152C90.8558 119.152 89.2878 119.609 87.9158 120.524C86.5438 121.373 85.4658 122.647 84.6818 124.346C83.8978 125.979 83.5058 127.939 83.5058 130.226ZM131.845 138.36V104.452H150.465V134.146C150.465 136.367 150.955 138.131 151.935 139.438C152.98 140.679 154.385 141.3 156.149 141.3C157.129 141.3 158.109 141.169 159.089 140.908C160.069 140.647 161.049 140.124 162.029 139.34C163.074 138.556 164.087 137.445 165.067 136.008V104.452H183.687V135.42C183.687 137.184 183.948 138.425 184.471 139.144C184.994 139.797 185.908 140.189 187.215 140.32V156C185.582 156.327 184.112 156.555 182.805 156.686C181.498 156.882 180.355 156.98 179.375 156.98C176.239 156.98 173.756 156.392 171.927 155.216C170.098 154.04 168.922 152.243 168.399 149.826L168.007 147.964C165.59 151.165 162.682 153.485 159.285 154.922C155.953 156.294 152.164 156.98 147.917 156.98C142.756 156.98 138.77 155.379 135.961 152.178C133.217 148.977 131.845 144.371 131.845 138.36ZM234.715 120.328C231.122 120.328 227.855 120.72 224.915 121.504C221.975 122.288 219.787 123.595 218.349 125.424V156H199.729V104.452H216.781V114.252C218.611 110.789 220.897 108.143 223.641 106.314C226.385 104.419 229.293 103.472 232.363 103.472C233.082 103.472 233.572 103.472 233.833 103.472C234.16 103.472 234.454 103.505 234.715 103.57V120.328ZM271.575 156V86.42H301.563C304.96 86.42 308.096 87.106 310.971 88.478C313.845 89.85 316.328 91.712 318.419 94.064C320.509 96.3507 322.11 98.9313 323.221 101.806C324.397 104.681 324.985 107.588 324.985 110.528C324.985 114.644 324.005 118.531 322.045 122.19C320.15 125.849 317.471 128.854 314.009 131.206C310.611 133.493 306.626 134.636 302.053 134.636H290.685V156H271.575ZM290.685 117.976H300.779C301.563 117.976 302.314 117.747 303.033 117.29C303.751 116.833 304.339 116.049 304.797 114.938C305.319 113.827 305.581 112.357 305.581 110.528C305.581 108.568 305.287 107.065 304.699 106.02C304.176 104.909 303.49 104.158 302.641 103.766C301.857 103.309 301.073 103.08 300.289 103.08H290.685V117.976ZM371.245 120.328C367.652 120.328 364.385 120.72 361.445 121.504C358.505 122.288 356.317 123.595 354.879 125.424V156H336.259V104.452H353.311V114.252C355.141 110.789 357.427 108.143 360.171 106.314C362.915 104.419 365.823 103.472 368.893 103.472C369.612 103.472 370.102 103.472 370.363 103.472C370.69 103.472 370.984 103.505 371.245 103.57V120.328ZM407.311 156.98C402.737 156.98 398.687 156.261 395.159 154.824C391.631 153.387 388.658 151.427 386.241 148.944C383.889 146.396 382.092 143.521 380.851 140.32C379.675 137.119 379.087 133.754 379.087 130.226C379.087 126.698 379.675 123.333 380.851 120.132C382.092 116.865 383.889 113.991 386.241 111.508C388.658 109.025 391.631 107.065 395.159 105.628C398.687 104.191 402.737 103.472 407.311 103.472C411.949 103.472 416 104.191 419.463 105.628C422.991 107.065 425.931 109.025 428.283 111.508C430.7 113.991 432.497 116.865 433.673 120.132C434.914 123.333 435.535 126.698 435.535 130.226C435.535 133.754 434.914 137.119 433.673 140.32C432.497 143.521 430.7 146.396 428.283 148.944C425.931 151.427 422.991 153.387 419.463 154.824C416 156.261 411.949 156.98 407.311 156.98ZM398.197 130.226C398.197 132.513 398.589 134.505 399.373 136.204C400.157 137.837 401.235 139.111 402.607 140.026C403.979 140.875 405.547 141.3 407.311 141.3C409.075 141.3 410.643 140.875 412.015 140.026C413.387 139.111 414.465 137.837 415.249 136.204C416.033 134.505 416.425 132.513 416.425 130.226C416.425 127.939 416.033 125.979 415.249 124.346C414.465 122.647 413.387 121.373 412.015 120.524C410.643 119.609 409.075 119.152 407.311 119.152C405.547 119.152 403.979 119.609 402.607 120.524C401.235 121.373 400.157 122.647 399.373 124.346C398.589 125.979 398.197 127.939 398.197 130.226ZM450.652 124.444H444.282V110.43H450.652V104.844C450.652 101.577 451.207 98.6373 452.318 96.024C453.494 93.4107 455.127 91.1893 457.218 89.36C459.309 87.4653 461.791 86.028 464.666 85.048C467.541 84.0027 470.677 83.48 474.074 83.48C476.622 83.48 479.072 83.774 481.424 84.362C483.841 84.8847 486.291 85.734 488.774 86.91C491.257 88.086 493.87 89.556 496.614 91.32L489.558 105.432C487.337 103.472 484.985 101.937 482.502 100.826C480.019 99.7153 477.635 99.16 475.348 99.16C474.107 99.16 473.029 99.356 472.114 99.748C471.199 100.075 470.481 100.63 469.958 101.414C469.501 102.133 469.272 103.047 469.272 104.158V110.43H498.574V156H479.954V124.444H469.272V156H450.652V124.444ZM512.401 84.46H531.021V135.518C531.021 137.413 531.413 138.883 532.197 139.928C533.047 140.908 534.255 141.398 535.823 141.398C536.607 141.398 537.457 141.267 538.371 141.006C539.286 140.745 540.135 140.385 540.919 139.928L543.271 153.648C541.05 154.693 538.535 155.51 535.725 156.098C532.981 156.686 530.368 156.98 527.885 156.98C522.92 156.98 519.098 155.706 516.419 153.158C513.741 150.545 512.401 146.853 512.401 142.084V84.46ZM577.911 156.98C573.403 156.98 569.385 156.294 565.857 154.922C562.329 153.485 559.357 151.557 556.939 149.14C554.587 146.723 552.791 143.946 551.549 140.81C550.308 137.674 549.687 134.375 549.687 130.912C549.687 125.947 550.765 121.406 552.921 117.29C555.077 113.109 558.246 109.777 562.427 107.294C566.609 104.746 571.77 103.472 577.911 103.472C584.053 103.472 589.214 104.713 593.395 107.196C597.577 109.679 600.745 112.945 602.901 116.996C605.057 121.047 606.135 125.457 606.135 130.226C606.135 131.206 606.07 132.219 605.939 133.264C605.874 134.244 605.776 135.126 605.645 135.91H569.483C569.614 137.739 570.104 139.242 570.953 140.418C571.868 141.529 572.979 142.345 574.285 142.868C575.657 143.391 577.062 143.652 578.499 143.652C580.525 143.652 582.419 143.195 584.183 142.28C586.013 141.365 587.221 140.091 587.809 138.458L603.587 142.966C602.215 145.71 600.288 148.127 597.805 150.218C595.388 152.309 592.513 153.975 589.181 155.216C585.849 156.392 582.093 156.98 577.911 156.98ZM569.091 124.738H586.143C585.947 123.039 585.457 121.602 584.673 120.426C583.955 119.25 582.975 118.335 581.733 117.682C580.557 117.029 579.185 116.702 577.617 116.702C576.049 116.702 574.645 117.029 573.403 117.682C572.227 118.335 571.247 119.25 570.463 120.426C569.745 121.602 569.287 123.039 569.091 124.738Z" fill="#5B46AE"/>
<path d="M373 15L376.182 26.818L388 30L376.182 33.182L373 45L369.818 33.182L358 30L369.818 26.818L373 15Z" fill="#48DFB7"/>
<path d="M129 0L132.182 11.818L144 15L132.182 18.182L129 30L125.818 18.182L114 15L125.818 11.818L129 0Z" fill="#48DFB7"/>
<path d="M247 77L250.182 88.818L262 92L250.182 95.182L247 107L243.818 95.182L232 92L243.818 88.818L247 77Z" fill="#48DFB7"/>
</svg>
