<svg width="168" height="144" viewBox="0 0 168 144" fill="none" xmlns="http://www.w3.org/2000/svg">
<path d="M36.4509 18.92L42.5469 32.84L48.7869 18.92H58.9629L47.2029 41.72V53H37.8909V41.624L26.3229 18.92H36.4509ZM71.2626 53.48C69.0226 53.48 67.0386 53.128 65.3106 52.424C63.5826 51.72 62.1266 50.76 60.9426 49.544C59.7906 48.296 58.9106 46.888 58.3026 45.32C57.7266 43.752 57.4386 42.104 57.4386 40.376C57.4386 38.648 57.7266 37 58.3026 35.432C58.9106 33.832 59.7906 32.424 60.9426 31.208C62.1266 29.992 63.5826 29.032 65.3106 28.328C67.0386 27.624 69.0226 27.272 71.2626 27.272C73.5346 27.272 75.5186 27.624 77.2146 28.328C78.9426 29.032 80.3826 29.992 81.5346 31.208C82.7186 32.424 83.5986 33.832 84.1746 35.432C84.7826 37 85.0866 38.648 85.0866 40.376C85.0866 42.104 84.7826 43.752 84.1746 45.32C83.5986 46.888 82.7186 48.296 81.5346 49.544C80.3826 50.76 78.9426 51.72 77.2146 52.424C75.5186 53.128 73.5346 53.48 71.2626 53.48ZM66.7986 40.376C66.7986 41.496 66.9906 42.472 67.3746 43.304C67.7586 44.104 68.2866 44.728 68.9586 45.176C69.6306 45.592 70.3986 45.8 71.2626 45.8C72.1266 45.8 72.8946 45.592 73.5666 45.176C74.2386 44.728 74.7666 44.104 75.1506 43.304C75.5346 42.472 75.7266 41.496 75.7266 40.376C75.7266 39.256 75.5346 38.296 75.1506 37.496C74.7666 36.664 74.2386 36.04 73.5666 35.624C72.8946 35.176 72.1266 34.952 71.2626 34.952C70.3986 34.952 69.6306 35.176 68.9586 35.624C68.2866 36.04 67.7586 36.664 67.3746 37.496C66.9906 38.296 66.7986 39.256 66.7986 40.376ZM90.4749 44.36V27.752H99.5949V42.296C99.5949 43.384 99.8349 44.248 100.315 44.888C100.827 45.496 101.515 45.8 102.379 45.8C102.859 45.8 103.339 45.736 103.819 45.608C104.299 45.48 104.779 45.224 105.259 44.84C105.771 44.456 106.267 43.912 106.747 43.208V27.752H115.867V42.92C115.867 43.784 115.995 44.392 116.251 44.744C116.507 45.064 116.955 45.256 117.595 45.32V53C116.795 53.16 116.075 53.272 115.435 53.336C114.795 53.432 114.235 53.48 113.755 53.48C112.219 53.48 111.003 53.192 110.107 52.616C109.211 52.04 108.635 51.16 108.379 49.976L108.187 49.064C107.003 50.632 105.579 51.768 103.915 52.472C102.283 53.144 100.427 53.48 98.3469 53.48C95.8189 53.48 93.8669 52.696 92.4909 51.128C91.1469 49.56 90.4749 47.304 90.4749 44.36ZM140.86 35.528C139.1 35.528 137.5 35.72 136.06 36.104C134.62 36.488 133.548 37.128 132.844 38.024V53H123.724V27.752H132.076V32.552C132.972 30.856 134.092 29.56 135.436 28.664C136.78 27.736 138.204 27.272 139.708 27.272C140.06 27.272 140.3 27.272 140.428 27.272C140.588 27.272 140.732 27.288 140.86 27.32V35.528ZM3.18581 125V90.92H17.8738C19.5378 90.92 21.0738 91.256 22.4818 91.928C23.8898 92.6 25.1058 93.512 26.1298 94.664C27.1538 95.784 27.9378 97.048 28.4818 98.456C29.0578 99.864 29.3458 101.288 29.3458 102.728C29.3458 104.744 28.8658 106.648 27.9058 108.44C26.9778 110.232 25.6658 111.704 23.9698 112.856C22.3058 113.976 20.3538 114.536 18.1138 114.536H12.5458V125H3.18581ZM12.5458 106.376H17.4898C17.8738 106.376 18.2418 106.264 18.5938 106.04C18.9458 105.816 19.2338 105.432 19.4578 104.888C19.7138 104.344 19.8418 103.624 19.8418 102.728C19.8418 101.768 19.6978 101.032 19.4098 100.52C19.1538 99.976 18.8178 99.608 18.4018 99.416C18.0178 99.192 17.6338 99.08 17.2498 99.08H12.5458V106.376ZM52.0041 107.528C50.2441 107.528 48.6441 107.72 47.2041 108.104C45.7641 108.488 44.6921 109.128 43.9881 110.024V125H34.8681V99.752H43.2201V104.552C44.1161 102.856 45.2361 101.56 46.5801 100.664C47.9241 99.736 49.3481 99.272 50.8521 99.272C51.2041 99.272 51.4441 99.272 51.5721 99.272C51.7321 99.272 51.8761 99.288 52.0041 99.32V107.528ZM69.6688 125.48C67.4288 125.48 65.4448 125.128 63.7168 124.424C61.9888 123.72 60.5328 122.76 59.3488 121.544C58.1968 120.296 57.3168 118.888 56.7088 117.32C56.1328 115.752 55.8448 114.104 55.8448 112.376C55.8448 110.648 56.1328 109 56.7088 107.432C57.3168 105.832 58.1968 104.424 59.3488 103.208C60.5328 101.992 61.9888 101.032 63.7168 100.328C65.4448 99.624 67.4288 99.272 69.6688 99.272C71.9408 99.272 73.9248 99.624 75.6208 100.328C77.3488 101.032 78.7888 101.992 79.9408 103.208C81.1248 104.424 82.0048 105.832 82.5808 107.432C83.1888 109 83.4928 110.648 83.4928 112.376C83.4928 114.104 83.1888 115.752 82.5808 117.32C82.0048 118.888 81.1248 120.296 79.9408 121.544C78.7888 122.76 77.3488 123.72 75.6208 124.424C73.9248 125.128 71.9408 125.48 69.6688 125.48ZM65.2048 112.376C65.2048 113.496 65.3968 114.472 65.7808 115.304C66.1648 116.104 66.6928 116.728 67.3648 117.176C68.0368 117.592 68.8048 117.8 69.6688 117.8C70.5328 117.8 71.3008 117.592 71.9728 117.176C72.6448 116.728 73.1728 116.104 73.5568 115.304C73.9408 114.472 74.1328 113.496 74.1328 112.376C74.1328 111.256 73.9408 110.296 73.5568 109.496C73.1728 108.664 72.6448 108.04 71.9728 107.624C71.3008 107.176 70.5328 106.952 69.6688 106.952C68.8048 106.952 68.0368 107.176 67.3648 107.624C66.6928 108.04 66.1648 108.664 65.7808 109.496C65.3968 110.296 65.2048 111.256 65.2048 112.376ZM90.8972 109.544H87.7772V102.68H90.8972V99.944C90.8972 98.344 91.1692 96.904 91.7132 95.624C92.2892 94.344 93.0892 93.256 94.1132 92.36C95.1372 91.432 96.3532 90.728 97.7612 90.248C99.1692 89.736 100.705 89.48 102.369 89.48C103.617 89.48 104.817 89.624 105.969 89.912C107.153 90.168 108.353 90.584 109.569 91.16C110.785 91.736 112.065 92.456 113.409 93.32L109.953 100.232C108.865 99.272 107.713 98.52 106.497 97.976C105.281 97.432 104.113 97.16 102.993 97.16C102.385 97.16 101.857 97.256 101.409 97.448C100.961 97.608 100.609 97.88 100.353 98.264C100.129 98.616 100.017 99.064 100.017 99.608V102.68H114.369V125H105.249V109.544H100.017V125H90.8972V109.544ZM121.142 89.96H130.262V114.968C130.262 115.896 130.454 116.616 130.838 117.128C131.254 117.608 131.846 117.848 132.614 117.848C132.998 117.848 133.414 117.784 133.862 117.656C134.31 117.528 134.726 117.352 135.11 117.128L136.262 123.848C135.174 124.36 133.942 124.76 132.566 125.048C131.222 125.336 129.942 125.48 128.726 125.48C126.294 125.48 124.422 124.856 123.11 123.608C121.798 122.328 121.142 120.52 121.142 118.184V89.96ZM153.228 125.48C151.02 125.48 149.052 125.144 147.324 124.472C145.596 123.768 144.14 122.824 142.956 121.64C141.804 120.456 140.924 119.096 140.316 117.56C139.708 116.024 139.404 114.408 139.404 112.712C139.404 110.28 139.932 108.056 140.988 106.04C142.044 103.992 143.596 102.36 145.644 101.144C147.692 99.896 150.22 99.272 153.228 99.272C156.236 99.272 158.764 99.88 160.812 101.096C162.86 102.312 164.412 103.912 165.468 105.896C166.524 107.88 167.052 110.04 167.052 112.376C167.052 112.856 167.02 113.352 166.956 113.864C166.924 114.344 166.876 114.776 166.812 115.16H149.1C149.164 116.056 149.404 116.792 149.82 117.368C150.268 117.912 150.812 118.312 151.452 118.568C152.124 118.824 152.812 118.952 153.516 118.952C154.508 118.952 155.436 118.728 156.3 118.28C157.196 117.832 157.788 117.208 158.076 116.408L165.804 118.616C165.132 119.96 164.188 121.144 162.972 122.168C161.788 123.192 160.38 124.008 158.748 124.616C157.116 125.192 155.276 125.48 153.228 125.48ZM148.908 109.688H157.26C157.164 108.856 156.924 108.152 156.54 107.576C156.188 107 155.708 106.552 155.1 106.232C154.524 105.912 153.852 105.752 153.084 105.752C152.316 105.752 151.628 105.912 151.02 106.232C150.444 106.552 149.964 107 149.58 107.576C149.228 108.152 149.004 108.856 148.908 109.688Z" fill="#5B46AE"/>
<path d="M32.9693 76.84H35.9933V72.232H33.1853V70.072H38.2613V76.84H40.8533V79H32.9693V76.84ZM38.8193 67.426C38.8193 67.666 38.7713 67.894 38.6753 68.11C38.5913 68.314 38.4713 68.494 38.3153 68.65C38.1593 68.794 37.9733 68.914 37.7573 69.01C37.5533 69.094 37.3373 69.136 37.1093 69.136C36.8693 69.136 36.6473 69.094 36.4433 69.01C36.2393 68.914 36.0593 68.794 35.9033 68.65C35.7473 68.494 35.6213 68.314 35.5253 68.11C35.4413 67.894 35.3993 67.666 35.3993 67.426C35.3993 67.186 35.4413 66.964 35.5253 66.76C35.6213 66.544 35.7473 66.364 35.9033 66.22C36.0593 66.064 36.2393 65.944 36.4433 65.86C36.6473 65.764 36.8693 65.716 37.1093 65.716C37.3373 65.716 37.5533 65.764 37.7573 65.86C37.9733 65.944 38.1593 66.064 38.3153 66.22C38.4713 66.364 38.5913 66.544 38.6753 66.76C38.7713 66.964 38.8193 67.186 38.8193 67.426ZM52.7928 79H50.5248V72.736C50.5248 72.484 50.4588 72.298 50.3268 72.178C50.2068 72.046 50.0448 71.98 49.8408 71.98C49.6008 71.98 49.4088 72.052 49.2648 72.196C49.1328 72.34 49.0668 72.556 49.0668 72.844V79H46.7988V72.736C46.7988 72.484 46.7268 72.298 46.5828 72.178C46.4508 72.046 46.2888 71.98 46.0968 71.98C45.8808 71.98 45.7008 72.052 45.5568 72.196C45.4128 72.34 45.3408 72.556 45.3408 72.844V79H43.0728V70.072H45.3408V70.936H45.6648C45.7368 70.612 45.8988 70.348 46.1508 70.144C46.4148 69.928 46.7568 69.82 47.1768 69.82C47.5728 69.82 47.9088 69.928 48.1848 70.144C48.4608 70.348 48.6468 70.612 48.7428 70.936H49.0668C49.1628 70.612 49.3608 70.348 49.6608 70.144C49.9728 69.928 50.3568 69.82 50.8128 69.82C51.4128 69.82 51.8928 70.024 52.2528 70.432C52.6128 70.828 52.7928 71.38 52.7928 72.088V79ZM60.6283 77.704C60.3883 78.268 60.0523 78.67 59.6203 78.91C59.1883 79.138 58.6843 79.252 58.1083 79.252C57.5683 79.252 57.0583 79.15 56.5783 78.946C56.1103 78.742 55.6963 78.442 55.3363 78.046C54.9763 77.65 54.6883 77.17 54.4723 76.606C54.2683 76.042 54.1663 75.4 54.1663 74.68V74.392C54.1663 73.684 54.2683 73.048 54.4723 72.484C54.6763 71.92 54.9523 71.44 55.3003 71.044C55.6483 70.648 56.0503 70.348 56.5063 70.144C56.9743 69.928 57.4723 69.82 58.0003 69.82C58.6363 69.82 59.1463 69.928 59.5303 70.144C59.9263 70.36 60.2383 70.696 60.4663 71.152H60.7903V70.072H63.0583V76.3C63.0583 76.66 63.2203 76.84 63.5443 76.84H63.8863V79H62.3383C61.9303 79 61.5943 78.88 61.3303 78.64C61.0783 78.4 60.9523 78.088 60.9523 77.704H60.6283ZM58.6123 77.092C59.2723 77.092 59.8003 76.876 60.1963 76.444C60.5923 76 60.7903 75.4 60.7903 74.644V74.428C60.7903 73.672 60.5923 73.078 60.1963 72.646C59.8003 72.202 59.2723 71.98 58.6123 71.98C57.9523 71.98 57.4243 72.202 57.0283 72.646C56.6323 73.078 56.4343 73.672 56.4343 74.428V74.644C56.4343 75.4 56.6323 76 57.0283 76.444C57.4243 76.876 57.9523 77.092 58.6123 77.092ZM72.2438 77.704H71.9198C71.8238 77.908 71.7038 78.106 71.5598 78.298C71.4278 78.478 71.2478 78.64 71.0198 78.784C70.8038 78.928 70.5398 79.042 70.2278 79.126C69.9278 79.21 69.5618 79.252 69.1298 79.252C68.5778 79.252 68.0618 79.156 67.5818 78.964C67.1138 78.76 66.6998 78.466 66.3398 78.082C65.9918 77.686 65.7158 77.206 65.5118 76.642C65.3198 76.078 65.2238 75.43 65.2238 74.698V74.374C65.2238 73.654 65.3258 73.012 65.5298 72.448C65.7458 71.884 66.0338 71.41 66.3938 71.026C66.7658 70.63 67.1918 70.33 67.6718 70.126C68.1638 69.922 68.6798 69.82 69.2198 69.82C69.9398 69.82 70.5098 69.958 70.9298 70.234C71.3498 70.498 71.6798 70.876 71.9198 71.368H72.2438V70.072H74.5118V81.196C74.5118 81.604 74.3798 81.94 74.1158 82.204C73.8638 82.468 73.5338 82.6 73.1258 82.6H67.1138V80.44H71.7578C72.0818 80.44 72.2438 80.26 72.2438 79.9V77.704ZM69.8678 77.092C70.5758 77.092 71.1458 76.87 71.5778 76.426C72.0218 75.97 72.2438 75.376 72.2438 74.644V74.428C72.2438 73.696 72.0218 73.108 71.5778 72.664C71.1458 72.208 70.5758 71.98 69.8678 71.98C69.1598 71.98 68.5838 72.202 68.1398 72.646C67.7078 73.078 67.4918 73.672 67.4918 74.428V74.644C67.4918 75.4 67.7078 76 68.1398 76.444C68.5838 76.876 69.1598 77.092 69.8678 77.092ZM77.0553 76.84H80.0793V72.232H77.2713V70.072H82.3473V76.84H84.9393V79H77.0553V76.84ZM82.9053 67.426C82.9053 67.666 82.8573 67.894 82.7613 68.11C82.6773 68.314 82.5573 68.494 82.4013 68.65C82.2453 68.794 82.0593 68.914 81.8433 69.01C81.6393 69.094 81.4233 69.136 81.1953 69.136C80.9553 69.136 80.7333 69.094 80.5293 69.01C80.3253 68.914 80.1453 68.794 79.9893 68.65C79.8333 68.494 79.7073 68.314 79.6113 68.11C79.5273 67.894 79.4853 67.666 79.4853 67.426C79.4853 67.186 79.5273 66.964 79.6113 66.76C79.7073 66.544 79.8333 66.364 79.9893 66.22C80.1453 66.064 80.3253 65.944 80.5293 65.86C80.7333 65.764 80.9553 65.716 81.1953 65.716C81.4233 65.716 81.6393 65.764 81.8433 65.86C82.0593 65.944 82.2453 66.064 82.4013 66.22C82.5573 66.364 82.6773 66.544 82.7613 66.76C82.8573 66.964 82.9053 67.186 82.9053 67.426ZM90.1827 79H87.9147V70.072H90.1827V71.404H90.5067C90.7107 70.9 91.0407 70.51 91.4967 70.234C91.9527 69.958 92.4867 69.82 93.0987 69.82C93.5307 69.82 93.9327 69.892 94.3047 70.036C94.6887 70.168 95.0247 70.378 95.3127 70.666C95.6007 70.954 95.8227 71.32 95.9787 71.764C96.1467 72.208 96.2307 72.736 96.2307 73.348V79H93.9627V73.924C93.9627 73.288 93.8067 72.79 93.4947 72.43C93.1947 72.058 92.7567 71.872 92.1807 71.872C91.5087 71.872 91.0047 72.1 90.6687 72.556C90.3447 73 90.1827 73.6 90.1827 74.356V79ZM104.714 77.704C104.474 78.268 104.138 78.67 103.706 78.91C103.274 79.138 102.77 79.252 102.194 79.252C101.654 79.252 101.144 79.15 100.664 78.946C100.196 78.742 99.7822 78.442 99.4222 78.046C99.0622 77.65 98.7742 77.17 98.5582 76.606C98.3542 76.042 98.2522 75.4 98.2522 74.68V74.392C98.2522 73.684 98.3542 73.048 98.5582 72.484C98.7622 71.92 99.0382 71.44 99.3862 71.044C99.7342 70.648 100.136 70.348 100.592 70.144C101.06 69.928 101.558 69.82 102.086 69.82C102.722 69.82 103.232 69.928 103.616 70.144C104.012 70.36 104.324 70.696 104.552 71.152H104.876V70.072H107.144V76.3C107.144 76.66 107.306 76.84 107.63 76.84H107.972V79H106.424C106.016 79 105.68 78.88 105.416 78.64C105.164 78.4 105.038 78.088 105.038 77.704H104.714ZM102.698 77.092C103.358 77.092 103.886 76.876 104.282 76.444C104.678 76 104.876 75.4 104.876 74.644V74.428C104.876 73.672 104.678 73.078 104.282 72.646C103.886 72.202 103.358 71.98 102.698 71.98C102.038 71.98 101.51 72.202 101.114 72.646C100.718 73.078 100.52 73.672 100.52 74.428V74.644C100.52 75.4 100.718 76 101.114 76.444C101.51 76.876 102.038 77.092 102.698 77.092ZM109.526 70.072H113.306V71.368H113.63C113.798 70.876 114.08 70.498 114.476 70.234C114.884 69.958 115.37 69.82 115.934 69.82C116.822 69.82 117.536 70.102 118.076 70.666C118.616 71.218 118.886 72.064 118.886 73.204V73.6L116.546 73.816V73.564C116.546 73.072 116.42 72.682 116.168 72.394C115.916 72.094 115.538 71.944 115.034 71.944C114.53 71.944 114.134 72.118 113.846 72.466C113.558 72.814 113.414 73.312 113.414 73.96V76.84H115.466V79H109.31V76.84H111.146V72.232H109.526V70.072ZM127.027 70.072H129.295V81.196C129.295 81.604 129.163 81.94 128.899 82.204C128.647 82.468 128.317 82.6 127.909 82.6H122.599V80.44H126.541C126.865 80.44 127.027 80.26 127.027 79.9V77.704H126.703C126.307 78.736 125.455 79.252 124.147 79.252C123.703 79.252 123.289 79.18 122.905 79.036C122.521 78.892 122.185 78.67 121.897 78.37C121.609 78.07 121.381 77.698 121.213 77.254C121.057 76.798 120.979 76.264 120.979 75.652V70.072H123.247V75.184C123.247 75.82 123.397 76.318 123.697 76.678C123.997 77.026 124.447 77.2 125.047 77.2C125.731 77.2 126.229 76.984 126.541 76.552C126.865 76.108 127.027 75.508 127.027 74.752V70.072Z" fill="#48DFB7"/>
<path d="M137.5 56L139.091 61.909L145 63.5L139.091 65.091L137.5 71L135.909 65.091L130 63.5L135.909 61.909L137.5 56Z" fill="#48DFB7"/>
<path d="M26.5 49L28.091 54.909L34 56.5L28.091 58.091L26.5 64L24.909 58.091L19 56.5L24.909 54.909L26.5 49Z" fill="#48DFB7"/>
<path d="M86.5 82L88.091 87.909L94 89.5L88.091 91.091L86.5 97L84.909 91.091L79 89.5L84.909 87.909L86.5 82Z" fill="#48DFB7"/>
</svg>
