<svg width="416" height="128" viewBox="0 0 416 128" fill="none" xmlns="http://www.w3.org/2000/svg">
<path d="M88.1121 52.16H93.4881V43.968H88.4961V40.128H97.5201V52.16H102.128V56H88.1121V52.16ZM98.5121 35.424C98.5121 35.8507 98.4268 36.256 98.2561 36.64C98.1068 37.0027 97.8935 37.3227 97.6161 37.6C97.3388 37.856 97.0081 38.0693 96.6241 38.24C96.2615 38.3893 95.8775 38.464 95.4721 38.464C95.0455 38.464 94.6508 38.3893 94.2881 38.24C93.9255 38.0693 93.6055 37.856 93.3281 37.6C93.0508 37.3227 92.8268 37.0027 92.6561 36.64C92.5068 36.256 92.4321 35.8507 92.4321 35.424C92.4321 34.9973 92.5068 34.6027 92.6561 34.24C92.8268 33.856 93.0508 33.536 93.3281 33.28C93.6055 33.0027 93.9255 32.7893 94.2881 32.64C94.6508 32.4693 95.0455 32.384 95.4721 32.384C95.8775 32.384 96.2615 32.4693 96.6241 32.64C97.0081 32.7893 97.3388 33.0027 97.6161 33.28C97.8935 33.536 98.1068 33.856 98.2561 34.24C98.4268 34.6027 98.5121 34.9973 98.5121 35.424ZM123.354 56H119.322V44.864C119.322 44.416 119.205 44.0853 118.97 43.872C118.757 43.6373 118.469 43.52 118.106 43.52C117.679 43.52 117.338 43.648 117.082 43.904C116.847 44.16 116.73 44.544 116.73 45.056V56H112.698V44.864C112.698 44.416 112.57 44.0853 112.314 43.872C112.079 43.6373 111.791 43.52 111.45 43.52C111.066 43.52 110.746 43.648 110.49 43.904C110.234 44.16 110.106 44.544 110.106 45.056V56H106.074V40.128H110.106V41.664H110.682C110.81 41.088 111.098 40.6187 111.546 40.256C112.015 39.872 112.623 39.68 113.37 39.68C114.074 39.68 114.671 39.872 115.162 40.256C115.653 40.6187 115.983 41.088 116.154 41.664H116.73C116.901 41.088 117.253 40.6187 117.786 40.256C118.341 39.872 119.023 39.68 119.834 39.68C120.901 39.68 121.754 40.0427 122.394 40.768C123.034 41.472 123.354 42.4533 123.354 43.712V56ZM137.284 53.696C136.857 54.6987 136.26 55.4133 135.492 55.84C134.724 56.2453 133.828 56.448 132.804 56.448C131.844 56.448 130.937 56.2667 130.084 55.904C129.252 55.5413 128.516 55.008 127.876 54.304C127.236 53.6 126.724 52.7467 126.34 51.744C125.977 50.7413 125.796 49.6 125.796 48.32V47.808C125.796 46.5493 125.977 45.4187 126.34 44.416C126.702 43.4133 127.193 42.56 127.812 41.856C128.43 41.152 129.145 40.6187 129.956 40.256C130.788 39.872 131.673 39.68 132.612 39.68C133.742 39.68 134.649 39.872 135.332 40.256C136.036 40.64 136.59 41.2373 136.996 42.048H137.572V40.128H141.604V51.2C141.604 51.84 141.892 52.16 142.468 52.16H143.076V56H140.324C139.598 56 139.001 55.7867 138.532 55.36C138.084 54.9333 137.86 54.3787 137.86 53.696H137.284ZM133.7 52.608C134.873 52.608 135.812 52.224 136.516 51.456C137.22 50.6667 137.572 49.6 137.572 48.256V47.872C137.572 46.528 137.22 45.472 136.516 44.704C135.812 43.9147 134.873 43.52 133.7 43.52C132.526 43.52 131.588 43.9147 130.884 44.704C130.18 45.472 129.828 46.528 129.828 47.872V48.256C129.828 49.6 130.18 50.6667 130.884 51.456C131.588 52.224 132.526 52.608 133.7 52.608ZM157.933 53.696H157.357C157.187 54.0587 156.973 54.4107 156.717 54.752C156.483 55.072 156.163 55.36 155.757 55.616C155.373 55.872 154.904 56.0747 154.349 56.224C153.816 56.3733 153.165 56.448 152.397 56.448C151.416 56.448 150.499 56.2773 149.645 55.936C148.813 55.5733 148.077 55.0507 147.437 54.368C146.819 53.664 146.328 52.8107 145.965 51.808C145.624 50.8053 145.453 49.6533 145.453 48.352V47.776C145.453 46.496 145.635 45.3547 145.997 44.352C146.381 43.3493 146.893 42.5067 147.533 41.824C148.195 41.12 148.952 40.5867 149.805 40.224C150.68 39.8613 151.597 39.68 152.557 39.68C153.837 39.68 154.851 39.9253 155.597 40.416C156.344 40.8853 156.931 41.5573 157.357 42.432H157.933V40.128H161.965V59.904C161.965 60.6293 161.731 61.2267 161.261 61.696C160.813 62.1653 160.227 62.4 159.501 62.4H148.813V58.56H157.069C157.645 58.56 157.933 58.24 157.933 57.6V53.696ZM153.709 52.608C154.968 52.608 155.981 52.2133 156.749 51.424C157.539 50.6133 157.933 49.5573 157.933 48.256V47.872C157.933 46.5707 157.539 45.5253 156.749 44.736C155.981 43.9253 154.968 43.52 153.709 43.52C152.451 43.52 151.427 43.9147 150.637 44.704C149.869 45.472 149.485 46.528 149.485 47.872V48.256C149.485 49.6 149.869 50.6667 150.637 51.456C151.427 52.224 152.451 52.608 153.709 52.608ZM166.487 52.16H171.863V43.968H166.871V40.128H175.895V52.16H180.503V56H166.487V52.16ZM176.887 35.424C176.887 35.8507 176.802 36.256 176.631 36.64C176.482 37.0027 176.268 37.3227 175.991 37.6C175.714 37.856 175.383 38.0693 174.999 38.24C174.636 38.3893 174.252 38.464 173.847 38.464C173.42 38.464 173.026 38.3893 172.663 38.24C172.3 38.0693 171.98 37.856 171.703 37.6C171.426 37.3227 171.202 37.0027 171.031 36.64C170.882 36.256 170.807 35.8507 170.807 35.424C170.807 34.9973 170.882 34.6027 171.031 34.24C171.202 33.856 171.426 33.536 171.703 33.28C171.98 33.0027 172.3 32.7893 172.663 32.64C173.026 32.4693 173.42 32.384 173.847 32.384C174.252 32.384 174.636 32.4693 174.999 32.64C175.383 32.7893 175.714 33.0027 175.991 33.28C176.268 33.536 176.482 33.856 176.631 34.24C176.802 34.6027 176.887 34.9973 176.887 35.424ZM189.825 56H185.793V40.128H189.825V42.496H190.401C190.764 41.6 191.35 40.9067 192.161 40.416C192.972 39.9253 193.921 39.68 195.009 39.68C195.777 39.68 196.492 39.808 197.153 40.064C197.836 40.2987 198.433 40.672 198.945 41.184C199.457 41.696 199.852 42.3467 200.129 43.136C200.428 43.9253 200.577 44.864 200.577 45.952V56H196.545V46.976C196.545 45.8453 196.268 44.96 195.713 44.32C195.18 43.6587 194.401 43.328 193.377 43.328C192.182 43.328 191.286 43.7333 190.689 44.544C190.113 45.3333 189.825 46.4 189.825 47.744V56ZM215.659 53.696C215.232 54.6987 214.635 55.4133 213.867 55.84C213.099 56.2453 212.203 56.448 211.179 56.448C210.219 56.448 209.312 56.2667 208.459 55.904C207.627 55.5413 206.891 55.008 206.251 54.304C205.611 53.6 205.099 52.7467 204.715 51.744C204.352 50.7413 204.171 49.6 204.171 48.32V47.808C204.171 46.5493 204.352 45.4187 204.715 44.416C205.077 43.4133 205.568 42.56 206.187 41.856C206.805 41.152 207.52 40.6187 208.331 40.256C209.163 39.872 210.048 39.68 210.987 39.68C212.117 39.68 213.024 39.872 213.707 40.256C214.411 40.64 214.965 41.2373 215.371 42.048H215.947V40.128H219.979V51.2C219.979 51.84 220.267 52.16 220.843 52.16H221.451V56H218.699C217.973 56 217.376 55.7867 216.907 55.36C216.459 54.9333 216.235 54.3787 216.235 53.696H215.659ZM212.075 52.608C213.248 52.608 214.187 52.224 214.891 51.456C215.595 50.6667 215.947 49.6 215.947 48.256V47.872C215.947 46.528 215.595 45.472 214.891 44.704C214.187 43.9147 213.248 43.52 212.075 43.52C210.901 43.52 209.963 43.9147 209.259 44.704C208.555 45.472 208.203 46.528 208.203 47.872V48.256C208.203 49.6 208.555 50.6667 209.259 51.456C209.963 52.224 210.901 52.608 212.075 52.608ZM224.212 40.128H230.932V42.432H231.508C231.807 41.5573 232.308 40.8853 233.012 40.416C233.738 39.9253 234.602 39.68 235.604 39.68C237.183 39.68 238.452 40.1813 239.412 41.184C240.372 42.1653 240.852 43.6693 240.852 45.696V46.4L236.692 46.784V46.336C236.692 45.4613 236.468 44.768 236.02 44.256C235.572 43.7227 234.9 43.456 234.004 43.456C233.108 43.456 232.404 43.7653 231.892 44.384C231.38 45.0027 231.124 45.888 231.124 47.04V52.16H234.772V56H223.828V52.16H227.092V43.968H224.212V40.128ZM255.326 40.128H259.358V59.904C259.358 60.6293 259.123 61.2267 258.654 61.696C258.206 62.1653 257.619 62.4 256.894 62.4H247.454V58.56H254.462C255.038 58.56 255.326 58.24 255.326 57.6V53.696H254.75C254.046 55.5307 252.531 56.448 250.206 56.448C249.417 56.448 248.681 56.32 247.998 56.064C247.315 55.808 246.718 55.4133 246.206 54.88C245.694 54.3467 245.289 53.6853 244.99 52.896C244.713 52.0853 244.574 51.136 244.574 50.048V40.128H248.606V49.216C248.606 50.3467 248.873 51.232 249.406 51.872C249.939 52.4907 250.739 52.8 251.806 52.8C253.022 52.8 253.907 52.416 254.462 51.648C255.038 50.8587 255.326 49.792 255.326 48.448V40.128Z" fill="#48DFB7"/>
<path d="M19.9392 68.14L28.3212 87.28L36.9012 68.14H50.8932L34.7232 99.49V115H21.9192V99.358L6.01318 68.14H19.9392ZM67.8052 115.66C64.7252 115.66 61.9972 115.176 59.6212 114.208C57.2452 113.24 55.2432 111.92 53.6152 110.248C52.0312 108.532 50.8212 106.596 49.9852 104.44C49.1932 102.284 48.7972 100.018 48.7972 97.642C48.7972 95.266 49.1932 93 49.9852 90.844C50.8212 88.644 52.0312 86.708 53.6152 85.036C55.2432 83.364 57.2452 82.044 59.6212 81.076C61.9972 80.108 64.7252 79.624 67.8052 79.624C70.9292 79.624 73.6572 80.108 75.9892 81.076C78.3652 82.044 80.3452 83.364 81.9292 85.036C83.5572 86.708 84.7672 88.644 85.5592 90.844C86.3952 93 86.8132 95.266 86.8132 97.642C86.8132 100.018 86.3952 102.284 85.5592 104.44C84.7672 106.596 83.5572 108.532 81.9292 110.248C80.3452 111.92 78.3652 113.24 75.9892 114.208C73.6572 115.176 70.9292 115.66 67.8052 115.66ZM61.6672 97.642C61.6672 99.182 61.9312 100.524 62.4592 101.668C62.9872 102.768 63.7132 103.626 64.6372 104.242C65.5612 104.814 66.6172 105.1 67.8052 105.1C68.9932 105.1 70.0492 104.814 70.9732 104.242C71.8972 103.626 72.6232 102.768 73.1512 101.668C73.6792 100.524 73.9432 99.182 73.9432 97.642C73.9432 96.102 73.6792 94.782 73.1512 93.682C72.6232 92.538 71.8972 91.68 70.9732 91.108C70.0492 90.492 68.9932 90.184 67.8052 90.184C66.6172 90.184 65.5612 90.492 64.6372 91.108C63.7132 91.68 62.9872 92.538 62.4592 93.682C61.9312 94.782 61.6672 96.102 61.6672 97.642ZM94.2222 103.12V80.284H106.762V100.282C106.762 101.778 107.092 102.966 107.752 103.846C108.456 104.682 109.402 105.1 110.59 105.1C111.25 105.1 111.91 105.012 112.57 104.836C113.23 104.66 113.89 104.308 114.55 103.78C115.254 103.252 115.936 102.504 116.596 101.536V80.284H129.136V101.14C129.136 102.328 129.312 103.164 129.664 103.648C130.016 104.088 130.632 104.352 131.512 104.44V115C130.412 115.22 129.422 115.374 128.542 115.462C127.662 115.594 126.892 115.66 126.232 115.66C124.12 115.66 122.448 115.264 121.216 114.472C119.984 113.68 119.192 112.47 118.84 110.842L118.576 109.588C116.948 111.744 114.99 113.306 112.702 114.274C110.458 115.198 107.906 115.66 105.046 115.66C101.57 115.66 98.8862 114.582 96.9942 112.426C95.1462 110.27 94.2222 107.168 94.2222 103.12ZM163.502 90.976C161.082 90.976 158.882 91.24 156.902 91.768C154.922 92.296 153.448 93.176 152.48 94.408V115H139.94V80.284H151.424V86.884C152.656 84.552 154.196 82.77 156.044 81.538C157.892 80.262 159.85 79.624 161.918 79.624C162.402 79.624 162.732 79.624 162.908 79.624C163.128 79.624 163.326 79.646 163.502 79.69V90.976ZM188.326 115V68.14H208.522C210.81 68.14 212.922 68.602 214.858 69.526C216.794 70.45 218.466 71.704 219.874 73.288C221.282 74.828 222.36 76.566 223.108 78.502C223.9 80.438 224.296 82.396 224.296 84.376C224.296 87.148 223.636 89.766 222.316 92.23C221.04 94.694 219.236 96.718 216.904 98.302C214.616 99.842 211.932 100.612 208.852 100.612H201.196V115H188.326ZM201.196 89.392H207.994C208.522 89.392 209.028 89.238 209.512 88.93C209.996 88.622 210.392 88.094 210.7 87.346C211.052 86.598 211.228 85.608 211.228 84.376C211.228 83.056 211.03 82.044 210.634 81.34C210.282 80.592 209.82 80.086 209.248 79.822C208.72 79.514 208.192 79.36 207.664 79.36H201.196V89.392ZM255.451 90.976C253.031 90.976 250.831 91.24 248.851 91.768C246.871 92.296 245.397 93.176 244.429 94.408V115H231.889V80.284H243.373V86.884C244.605 84.552 246.145 82.77 247.993 81.538C249.841 80.262 251.799 79.624 253.867 79.624C254.351 79.624 254.681 79.624 254.857 79.624C255.077 79.624 255.275 79.646 255.451 79.69V90.976ZM279.74 115.66C276.66 115.66 273.932 115.176 271.556 114.208C269.18 113.24 267.178 111.92 265.55 110.248C263.966 108.532 262.756 106.596 261.92 104.44C261.128 102.284 260.732 100.018 260.732 97.642C260.732 95.266 261.128 93 261.92 90.844C262.756 88.644 263.966 86.708 265.55 85.036C267.178 83.364 269.18 82.044 271.556 81.076C273.932 80.108 276.66 79.624 279.74 79.624C282.864 79.624 285.592 80.108 287.924 81.076C290.3 82.044 292.28 83.364 293.864 85.036C295.492 86.708 296.702 88.644 297.494 90.844C298.33 93 298.748 95.266 298.748 97.642C298.748 100.018 298.33 102.284 297.494 104.44C296.702 106.596 295.492 108.532 293.864 110.248C292.28 111.92 290.3 113.24 287.924 114.208C285.592 115.176 282.864 115.66 279.74 115.66ZM273.602 97.642C273.602 99.182 273.866 100.524 274.394 101.668C274.922 102.768 275.648 103.626 276.572 104.242C277.496 104.814 278.552 105.1 279.74 105.1C280.928 105.1 281.984 104.814 282.908 104.242C283.832 103.626 284.558 102.768 285.086 101.668C285.614 100.524 285.878 99.182 285.878 97.642C285.878 96.102 285.614 94.782 285.086 93.682C284.558 92.538 283.832 91.68 282.908 91.108C281.984 90.492 280.928 90.184 279.74 90.184C278.552 90.184 277.496 90.492 276.572 91.108C275.648 91.68 274.922 92.538 274.394 93.682C273.866 94.782 273.602 96.102 273.602 97.642ZM308.929 93.748H304.639V84.31H308.929V80.548C308.929 78.348 309.303 76.368 310.051 74.608C310.843 72.848 311.943 71.352 313.351 70.12C314.759 68.844 316.431 67.876 318.367 67.216C320.303 66.512 322.415 66.16 324.703 66.16C326.419 66.16 328.069 66.358 329.653 66.754C331.281 67.106 332.931 67.678 334.603 68.47C336.275 69.262 338.035 70.252 339.883 71.44L335.131 80.944C333.635 79.624 332.051 78.59 330.379 77.842C328.707 77.094 327.101 76.72 325.561 76.72C324.725 76.72 323.999 76.852 323.383 77.116C322.767 77.336 322.283 77.71 321.931 78.238C321.623 78.722 321.469 79.338 321.469 80.086V84.31H341.203V115H328.663V93.748H321.469V115H308.929V93.748ZM350.515 66.82H363.055V101.206C363.055 102.482 363.319 103.472 363.847 104.176C364.419 104.836 365.233 105.166 366.289 105.166C366.817 105.166 367.389 105.078 368.005 104.902C368.621 104.726 369.193 104.484 369.721 104.176L371.305 113.416C369.809 114.12 368.115 114.67 366.223 115.066C364.375 115.462 362.615 115.66 360.943 115.66C357.599 115.66 355.025 114.802 353.221 113.086C351.417 111.326 350.515 108.84 350.515 105.628V66.82ZM394.634 115.66C391.598 115.66 388.892 115.198 386.516 114.274C384.14 113.306 382.138 112.008 380.51 110.38C378.926 108.752 377.716 106.882 376.88 104.77C376.044 102.658 375.626 100.436 375.626 98.104C375.626 94.76 376.352 91.702 377.804 88.93C379.256 86.114 381.39 83.87 384.206 82.198C387.022 80.482 390.498 79.624 394.634 79.624C398.77 79.624 402.246 80.46 405.062 82.132C407.878 83.804 410.012 86.004 411.464 88.732C412.916 91.46 413.642 94.43 413.642 97.642C413.642 98.302 413.598 98.984 413.51 99.688C413.466 100.348 413.4 100.942 413.312 101.47H388.958C389.046 102.702 389.376 103.714 389.948 104.506C390.564 105.254 391.312 105.804 392.192 106.156C393.116 106.508 394.062 106.684 395.03 106.684C396.394 106.684 397.67 106.376 398.858 105.76C400.09 105.144 400.904 104.286 401.3 103.186L411.926 106.222C411.002 108.07 409.704 109.698 408.032 111.106C406.404 112.514 404.468 113.636 402.224 114.472C399.98 115.264 397.45 115.66 394.634 115.66ZM388.694 93.946H400.178C400.046 92.802 399.716 91.834 399.188 91.042C398.704 90.25 398.044 89.634 397.208 89.194C396.416 88.754 395.492 88.534 394.436 88.534C393.38 88.534 392.434 88.754 391.598 89.194C390.806 89.634 390.146 90.25 389.618 91.042C389.134 91.834 388.826 92.802 388.694 93.946Z" fill="white"/>
<path d="M269 15L272.182 26.818L284 30L272.182 33.182L269 45L265.818 33.182L254 30L265.818 26.818L269 15Z" fill="#48DFB7"/>
<path d="M75 0L78.182 11.818L90 15L78.182 18.182L75 30L71.818 18.182L60 15L71.818 11.818L75 0Z" fill="#48DFB7"/>
<path d="M173 57L176.182 68.818L188 72L176.182 75.182L173 87L169.818 75.182L158 72L169.818 68.818L173 57Z" fill="#48DFB7"/>
</svg>
