<svg width="270" height="56" viewBox="0 0 270 56" fill="none" xmlns="http://www.w3.org/2000/svg">
<path d="M22.2351 14.9905C31.7525 15.8307 39.332 22.9928 40.7233 32.463C41.4231 37.2407 40.2368 42.4509 37.531 46.473C35.4483 49.5789 32.811 51.8783 29.4651 53.5164C27.3911 54.5263 25.3083 55.1457 22.9353 55.4683C21.8939 55.6123 19.0262 55.6123 17.9848 55.4683C13.3415 54.8402 9.21858 52.8459 6.04347 49.6893C3.03915 46.7021 1.05032 42.9345 0.32461 38.8443C-0.196083 35.9334 -0.0937811 33.1334 0.657404 30.1715C1.51966 26.7601 3.38864 23.493 5.9324 20.9558C10.2341 16.6539 16.226 14.4558 22.2351 14.9905ZM18.4537 18.3256C17.0879 18.9707 16.4736 20.3539 16.6954 22.263C16.8235 23.3407 17.0198 24.0792 17.7367 26.2515C18.394 28.2458 18.4453 28.602 18.0695 28.7888C17.9075 28.8735 16.9939 28.8992 14.3478 28.8992C10.336 28.8992 10.2508 28.9075 9.55095 29.5356C9.00479 30.0192 8.75717 30.5879 8.75717 31.3177C8.75717 32.2002 9.23528 33.0234 9.96057 33.3796L10.3021 33.5407L9.92633 33.6847C9.49124 33.8458 8.90207 34.4398 8.70582 34.9068C8.48409 35.4158 8.52668 36.1796 8.79977 36.7313C9.03861 37.2236 9.50836 37.6902 9.8495 37.7749C10.1055 37.8426 10.0971 37.9107 9.79815 38.0887C9.19227 38.4453 8.67993 39.3192 8.67993 40.0153C8.67993 40.4396 8.93589 41.0847 9.24321 41.4409C9.69584 41.9672 10.1226 42.1623 10.9761 42.213L11.7018 42.264L11.3519 42.4932C10.3702 43.1379 10.4216 44.5979 11.4542 45.2343L11.8638 45.4887H16.1834C21.501 45.48 23.3875 45.3443 26.2812 44.7589C27.7577 44.4621 29.61 44.2583 30.899 44.2583C31.8552 44.2583 32.2477 44.1562 32.3583 43.8764C32.4523 43.6219 32.418 33.3368 32.3157 33.1164C32.1366 32.7345 31.9487 32.6834 30.233 32.6241C28.4575 32.5564 28.1673 32.4966 27.6554 32.1317C26.9727 31.6394 25.8545 30.2056 24.8473 28.5252C23.917 26.9639 23.4389 26.2764 22.6539 25.3428C21.2626 23.6965 21.1089 23.3656 20.5882 20.8794C20.2467 19.2418 20.0763 18.656 19.8796 18.4269C19.5548 18.0711 19.0683 18.0371 18.4537 18.3256Z" fill="white"/>
<rect width="3.32698" height="10.6829" rx="1.66349" transform="matrix(0.973369 -0.241379 0.249307 0.965461 14.4614 1.97412)" fill="white"/>
<rect width="3.32698" height="10.6829" rx="1.66349" transform="matrix(0.973369 -0.241379 0.249307 0.965461 14.4614 1.97412)" fill="white"/>
<rect width="3.29642" height="8.43975" rx="1.64821" transform="matrix(0.66169 -0.752129 0.762536 0.644237 7.27979 8.18262)" fill="white"/>
<rect width="3.29642" height="8.43975" rx="1.64821" transform="matrix(0.66169 -0.752129 0.762536 0.644237 7.27979 8.18262)" fill="white"/>
<rect width="3.33372" height="8.34418" rx="1.66686" transform="matrix(0.974168 0.229906 -0.238425 0.970192 23.3169 2.24207)" fill="white"/>
<rect width="3.33372" height="8.34418" rx="1.66686" transform="matrix(0.974168 0.229906 -0.238425 0.970192 23.3169 2.24207)" fill="white"/>
<path d="M251.981 11.7298L252.049 12.0087L252.325 12.0902L261.277 14.7368L252.325 17.3835L252.049 17.4649L251.981 17.7439L249.619 27.3743L247.258 17.7439L247.189 17.4649L246.914 17.3835L237.961 14.7368L246.914 12.0902L247.189 12.0087L247.258 11.7298L249.619 2.09943L251.981 11.7298Z" fill="#48DFB7" stroke="white"/>
<path d="M54.1374 20.8095L58.9634 31.8295L63.9034 20.8095H71.9594L62.6494 38.8595V47.7895H55.2774V38.7835L46.1194 20.8095H54.1374ZM80.5566 48.1695C78.7833 48.1695 77.2126 47.8908 75.8446 47.3335C74.4766 46.7762 73.3239 46.0162 72.3866 45.0535C71.4746 44.0655 70.7779 42.9508 70.2966 41.7095C69.8406 40.4682 69.6126 39.1635 69.6126 37.7955C69.6126 36.4275 69.8406 35.1228 70.2966 33.8815C70.7779 32.6148 71.4746 31.5002 72.3866 30.5375C73.3239 29.5748 74.4766 28.8148 75.8446 28.2575C77.2126 27.7002 78.7833 27.4215 80.5566 27.4215C82.3553 27.4215 83.9259 27.7002 85.2686 28.2575C86.6366 28.8148 87.7766 29.5748 88.6886 30.5375C89.6259 31.5002 90.3226 32.6148 90.7786 33.8815C91.2599 35.1228 91.5006 36.4275 91.5006 37.7955C91.5006 39.1635 91.2599 40.4682 90.7786 41.7095C90.3226 42.9508 89.6259 44.0655 88.6886 45.0535C87.7766 46.0162 86.6366 46.7762 85.2686 47.3335C83.9259 47.8908 82.3553 48.1695 80.5566 48.1695ZM77.0226 37.7955C77.0226 38.6822 77.1746 39.4548 77.4786 40.1135C77.7826 40.7468 78.2006 41.2408 78.7326 41.5955C79.2646 41.9248 79.8726 42.0895 80.5566 42.0895C81.2406 42.0895 81.8486 41.9248 82.3806 41.5955C82.9126 41.2408 83.3306 40.7468 83.6346 40.1135C83.9386 39.4548 84.0906 38.6822 84.0906 37.7955C84.0906 36.9088 83.9386 36.1488 83.6346 35.5155C83.3306 34.8568 82.9126 34.3628 82.3806 34.0335C81.8486 33.6788 81.2406 33.5015 80.5566 33.5015C79.8726 33.5015 79.2646 33.6788 78.7326 34.0335C78.2006 34.3628 77.7826 34.8568 77.4786 35.5155C77.1746 36.1488 77.0226 36.9088 77.0226 37.7955ZM94.6264 40.9495V27.8015H101.846V39.3155C101.846 40.1768 102.036 40.8608 102.416 41.3675C102.822 41.8488 103.366 42.0895 104.05 42.0895C104.43 42.0895 104.81 42.0388 105.19 41.9375C105.57 41.8362 105.95 41.6335 106.33 41.3295C106.736 41.0255 107.128 40.5948 107.508 40.0375V27.8015H114.728V39.8095C114.728 40.4935 114.83 40.9748 115.032 41.2535C115.235 41.5068 115.59 41.6588 116.096 41.7095V47.7895C115.463 47.9162 114.893 48.0048 114.386 48.0555C113.88 48.1315 113.436 48.1695 113.056 48.1695C111.84 48.1695 110.878 47.9415 110.168 47.4855C109.459 47.0295 109.003 46.3328 108.8 45.3955L108.648 44.6735C107.711 45.9148 106.584 46.8142 105.266 47.3715C103.974 47.9035 102.505 48.1695 100.858 48.1695C98.857 48.1695 97.3117 47.5488 96.2224 46.3075C95.1584 45.0662 94.6264 43.2802 94.6264 40.9495ZM133.375 33.9575C131.981 33.9575 130.715 34.1095 129.575 34.4135C128.435 34.7175 127.586 35.2242 127.029 35.9335V47.7895H119.809V27.8015H126.421V31.6015C127.13 30.2588 128.017 29.2328 129.081 28.5235C130.145 27.7888 131.272 27.4215 132.463 27.4215C132.741 27.4215 132.931 27.4215 133.033 27.4215C133.159 27.4215 133.273 27.4342 133.375 27.4595V33.9575ZM145.387 47.7895V20.8095H157.015C158.333 20.8095 159.549 21.0755 160.663 21.6075C161.778 22.1395 162.741 22.8615 163.551 23.7735C164.362 24.6602 164.983 25.6608 165.413 26.7755C165.869 27.8902 166.097 29.0175 166.097 30.1575C166.097 31.7535 165.717 33.2608 164.957 34.6795C164.223 36.0982 163.184 37.2635 161.841 38.1755C160.524 39.0622 158.979 39.5055 157.205 39.5055H152.797V47.7895H145.387ZM152.797 33.0455H156.711C157.015 33.0455 157.307 32.9568 157.585 32.7795C157.864 32.6022 158.092 32.2982 158.269 31.8675C158.472 31.4368 158.573 30.8668 158.573 30.1575C158.573 29.3975 158.459 28.8148 158.231 28.4095C158.029 27.9788 157.763 27.6875 157.433 27.5355C157.129 27.3582 156.825 27.2695 156.521 27.2695H152.797V33.0455ZM182.895 33.9575C181.502 33.9575 180.235 34.1095 179.095 34.4135C177.955 34.7175 177.106 35.2242 176.549 35.9335V47.7895H169.329V27.8015H175.941V31.6015C176.65 30.2588 177.537 29.2328 178.601 28.5235C179.665 27.7888 180.792 27.4215 181.983 27.4215C182.262 27.4215 182.452 27.4215 182.553 27.4215C182.68 27.4215 182.794 27.4342 182.895 27.4595V33.9575ZM195.74 48.1695C193.966 48.1695 192.396 47.8908 191.028 47.3335C189.66 46.7762 188.507 46.0162 187.57 45.0535C186.658 44.0655 185.961 42.9508 185.48 41.7095C185.024 40.4682 184.796 39.1635 184.796 37.7955C184.796 36.4275 185.024 35.1228 185.48 33.8815C185.961 32.6148 186.658 31.5002 187.57 30.5375C188.507 29.5748 189.66 28.8148 191.028 28.2575C192.396 27.7002 193.966 27.4215 195.74 27.4215C197.538 27.4215 199.109 27.7002 200.452 28.2575C201.82 28.8148 202.96 29.5748 203.872 30.5375C204.809 31.5002 205.506 32.6148 205.962 33.8815C206.443 35.1228 206.684 36.4275 206.684 37.7955C206.684 39.1635 206.443 40.4682 205.962 41.7095C205.506 42.9508 204.809 44.0655 203.872 45.0535C202.96 46.0162 201.82 46.7762 200.452 47.3335C199.109 47.8908 197.538 48.1695 195.74 48.1695ZM192.206 37.7955C192.206 38.6822 192.358 39.4548 192.662 40.1135C192.966 40.7468 193.384 41.2408 193.916 41.5955C194.448 41.9248 195.056 42.0895 195.74 42.0895C196.424 42.0895 197.032 41.9248 197.564 41.5955C198.096 41.2408 198.514 40.7468 198.818 40.1135C199.122 39.4548 199.274 38.6822 199.274 37.7955C199.274 36.9088 199.122 36.1488 198.818 35.5155C198.514 34.8568 198.096 34.3628 197.564 34.0335C197.032 33.6788 196.424 33.5015 195.74 33.5015C195.056 33.5015 194.448 33.6788 193.916 34.0335C193.384 34.3628 192.966 34.8568 192.662 35.5155C192.358 36.1488 192.206 36.9088 192.206 37.7955ZM211.405 35.5535H208.935V30.1195H211.405V27.9535C211.405 26.6868 211.621 25.5468 212.051 24.5335C212.507 23.5202 213.141 22.6588 213.951 21.9495C214.762 21.2148 215.725 20.6575 216.839 20.2775C217.954 19.8722 219.17 19.6695 220.487 19.6695C221.475 19.6695 222.425 19.7835 223.337 20.0115C224.275 20.2142 225.225 20.5435 226.187 20.9995C227.15 21.4555 228.163 22.0255 229.227 22.7095L226.491 28.1815C225.63 27.4215 224.718 26.8262 223.755 26.3955C222.793 25.9648 221.868 25.7495 220.981 25.7495C220.5 25.7495 220.082 25.8255 219.727 25.9775C219.373 26.1042 219.094 26.3195 218.891 26.6235C218.714 26.9022 218.625 27.2568 218.625 27.6875V30.1195H229.987V47.7895H222.767V35.5535H218.625V47.7895H211.405V35.5535ZM234.209 20.0495H241.429V39.8475C241.429 40.5822 241.581 41.1522 241.885 41.5575C242.214 41.9375 242.683 42.1275 243.291 42.1275C243.595 42.1275 243.924 42.0768 244.279 41.9755C244.634 41.8742 244.963 41.7348 245.267 41.5575L246.179 46.8775C245.318 47.2828 244.342 47.5995 243.253 47.8275C242.189 48.0555 241.176 48.1695 240.213 48.1695C238.288 48.1695 236.806 47.6755 235.767 46.6875C234.728 45.6742 234.209 44.2428 234.209 42.3935V20.0495ZM258.471 48.1695C256.723 48.1695 255.165 47.9035 253.797 47.3715C252.429 46.8142 251.276 46.0668 250.339 45.1295C249.427 44.1922 248.73 43.1155 248.249 41.8995C247.767 40.6835 247.527 39.4042 247.527 38.0615C247.527 36.1362 247.945 34.3755 248.781 32.7795C249.617 31.1582 250.845 29.8662 252.467 28.9035C254.088 27.9155 256.089 27.4215 258.471 27.4215C260.852 27.4215 262.853 27.9028 264.475 28.8655C266.096 29.8282 267.325 31.0948 268.161 32.6655C268.997 34.2362 269.415 35.9462 269.415 37.7955C269.415 38.1755 269.389 38.5682 269.339 38.9735C269.313 39.3535 269.275 39.6955 269.225 39.9995H255.203C255.253 40.7088 255.443 41.2915 255.773 41.7475C256.127 42.1782 256.558 42.4948 257.065 42.6975C257.597 42.9002 258.141 43.0015 258.699 43.0015C259.484 43.0015 260.219 42.8242 260.903 42.4695C261.612 42.1148 262.081 41.6208 262.309 40.9875L268.427 42.7355C267.895 43.7995 267.147 44.7368 266.185 45.5475C265.247 46.3582 264.133 47.0042 262.841 47.4855C261.549 47.9415 260.092 48.1695 258.471 48.1695ZM255.051 35.6675H261.663C261.587 35.0088 261.397 34.4515 261.093 33.9955C260.814 33.5395 260.434 33.1848 259.953 32.9315C259.497 32.6782 258.965 32.5515 258.357 32.5515C257.749 32.5515 257.204 32.6782 256.723 32.9315C256.267 33.1848 255.887 33.5395 255.583 33.9955C255.304 34.4515 255.127 35.0088 255.051 35.6675Z" fill="white"/>
</svg>
