<svg width="272" height="57" viewBox="0 0 272 57" fill="none" xmlns="http://www.w3.org/2000/svg">
<path d="M22.7854 15.2582C32.3585 16.1134 39.9823 23.4034 41.3818 33.0427C42.0857 37.9056 40.8925 43.2089 38.1709 47.3028C36.0759 50.4642 33.4232 52.8046 30.0577 54.472C27.9716 55.5 25.8766 56.1304 23.4898 56.4587C22.4423 56.6053 19.5577 56.6053 18.5102 56.4587C13.8398 55.8194 9.69277 53.7896 6.49909 50.5766C3.47719 47.5361 1.47672 43.7011 0.746765 39.5379C0.223026 36.5751 0.325924 33.7251 1.0815 30.7103C1.94881 27.2379 3.82872 23.9125 6.38736 21.33C10.7142 16.9513 16.7412 14.7139 22.7854 15.2582ZM18.9819 18.6528C17.6081 19.3094 16.9903 20.7173 17.2133 22.6606C17.3422 23.7575 17.5396 24.5092 18.2608 26.7203C18.9218 28.7501 18.9735 29.1127 18.5955 29.3028C18.4325 29.389 17.5136 29.4152 14.852 29.4152C10.8167 29.4152 10.731 29.4237 10.0271 30.063C9.47773 30.5552 9.22866 31.1341 9.22866 31.8769C9.22866 32.7752 9.70957 33.6131 10.4391 33.9756L10.7827 34.1396L10.4047 34.2862C9.96703 34.4501 9.3744 35.0548 9.17701 35.5301C8.95399 36.0482 8.99683 36.8256 9.27151 37.3872C9.51175 37.8883 9.98425 38.3632 10.3274 38.4494C10.5848 38.5183 10.5764 38.5876 10.2757 38.7689C9.66631 39.1318 9.15097 40.0213 9.15097 40.7299C9.15097 41.1617 9.40843 41.8183 9.71755 42.1808C10.1728 42.7166 10.6021 42.9152 11.4605 42.9668L12.1905 43.0187L11.8385 43.252C10.8511 43.9082 10.9028 45.3942 11.9414 46.042L12.3535 46.301H16.6984C22.0471 46.2921 23.9446 46.1539 26.8552 45.5582C28.3403 45.2561 30.2035 45.0486 31.5 45.0486C32.4618 45.0486 32.8566 44.9446 32.9679 44.6599C33.0624 44.4008 33.028 33.9321 32.9251 33.7077C32.7449 33.319 32.5559 33.267 30.8301 33.2066C29.0443 33.1377 28.7524 33.0769 28.2374 32.7055C27.5507 32.2044 26.426 30.7449 25.4129 29.0345C24.4772 27.4454 23.9963 26.7456 23.2067 25.7954C21.8072 24.1196 21.6527 23.7828 21.1289 21.2523C20.7854 19.5854 20.614 18.9892 20.4162 18.7559C20.0894 18.3938 19.6001 18.3592 18.9819 18.6528Z" fill="#5B46AE"/>
<rect width="3.34877" height="10.8656" rx="1.67439" transform="matrix(0.972693 -0.244091 0.246547 0.96617 14.9664 2.00935)" fill="#5B46AE"/>
<rect width="3.34877" height="10.8656" rx="1.67439" transform="matrix(0.972693 -0.244091 0.246547 0.96617 14.9664 2.00935)" fill="#5B46AE"/>
<rect width="3.33807" height="8.53148" rx="1.66904" transform="matrix(0.657256 -0.756007 0.758751 0.64869 7.74292 8.32874)" fill="#5B46AE"/>
<rect width="3.33807" height="8.53148" rx="1.66904" transform="matrix(0.657256 -0.756007 0.758751 0.64869 7.74292 8.32874)" fill="#5B46AE"/>
<rect width="3.35535" height="8.48751" rx="1.67768" transform="matrix(0.973552 0.232503 -0.23577 0.970841 23.8738 2.28207)" fill="#5B46AE"/>
<rect width="3.35535" height="8.48751" rx="1.67768" transform="matrix(0.973552 0.232503 -0.23577 0.970841 23.8738 2.28207)" fill="#5B46AE"/>
<path d="M253.878 11.9358L253.945 12.2148L254.22 12.297L263.255 15L254.22 17.703L253.945 17.7852L253.878 18.0642L251.5 27.8769L249.122 18.0642L249.055 17.7852L248.78 17.703L239.745 15L248.78 12.297L249.055 12.2148L249.122 11.9358L251.5 2.12307L253.878 11.9358Z" fill="#48DFB7" stroke="#5B46AE"/>
<path d="M55.4832 21.02L60.3092 32.04L65.2492 21.02H73.3052L63.9952 39.07V48H56.6232V38.994L47.4652 21.02H55.4832ZM81.9024 48.38C80.129 48.38 78.5584 48.1013 77.1904 47.544C75.8224 46.9867 74.6697 46.2267 73.7324 45.264C72.8204 44.276 72.1237 43.1613 71.6424 41.92C71.1864 40.6787 70.9584 39.374 70.9584 38.006C70.9584 36.638 71.1864 35.3333 71.6424 34.092C72.1237 32.8253 72.8204 31.7107 73.7324 30.748C74.6697 29.7853 75.8224 29.0253 77.1904 28.468C78.5584 27.9107 80.129 27.632 81.9024 27.632C83.701 27.632 85.2717 27.9107 86.6144 28.468C87.9824 29.0253 89.1224 29.7853 90.0344 30.748C90.9717 31.7107 91.6684 32.8253 92.1244 34.092C92.6057 35.3333 92.8464 36.638 92.8464 38.006C92.8464 39.374 92.6057 40.6787 92.1244 41.92C91.6684 43.1613 90.9717 44.276 90.0344 45.264C89.1224 46.2267 87.9824 46.9867 86.6144 47.544C85.2717 48.1013 83.701 48.38 81.9024 48.38ZM78.3684 38.006C78.3684 38.8927 78.5204 39.6653 78.8244 40.324C79.1284 40.9573 79.5464 41.4513 80.0784 41.806C80.6104 42.1353 81.2184 42.3 81.9024 42.3C82.5864 42.3 83.1944 42.1353 83.7264 41.806C84.2584 41.4513 84.6764 40.9573 84.9804 40.324C85.2844 39.6653 85.4364 38.8927 85.4364 38.006C85.4364 37.1193 85.2844 36.3593 84.9804 35.726C84.6764 35.0673 84.2584 34.5733 83.7264 34.244C83.1944 33.8893 82.5864 33.712 81.9024 33.712C81.2184 33.712 80.6104 33.8893 80.0784 34.244C79.5464 34.5733 79.1284 35.0673 78.8244 35.726C78.5204 36.3593 78.3684 37.1193 78.3684 38.006ZM95.9722 41.16V28.012H103.192V39.526C103.192 40.3873 103.382 41.0713 103.762 41.578C104.167 42.0593 104.712 42.3 105.396 42.3C105.776 42.3 106.156 42.2493 106.536 42.148C106.916 42.0467 107.296 41.844 107.676 41.54C108.081 41.236 108.474 40.8053 108.854 40.248V28.012H116.074V40.02C116.074 40.704 116.175 41.1853 116.378 41.464C116.581 41.7173 116.935 41.8693 117.442 41.92V48C116.809 48.1267 116.239 48.2153 115.732 48.266C115.225 48.342 114.782 48.38 114.402 48.38C113.186 48.38 112.223 48.152 111.514 47.696C110.805 47.24 110.349 46.5433 110.146 45.606L109.994 44.884C109.057 46.1253 107.929 47.0247 106.612 47.582C105.32 48.114 103.851 48.38 102.204 48.38C100.203 48.38 98.6575 47.7593 97.5682 46.518C96.5042 45.2767 95.9722 43.4907 95.9722 41.16ZM134.721 34.168C133.327 34.168 132.061 34.32 130.921 34.624C129.781 34.928 128.932 35.4347 128.375 36.144V48H121.155V28.012H127.767V31.812C128.476 30.4693 129.363 29.4433 130.427 28.734C131.491 27.9993 132.618 27.632 133.809 27.632C134.087 27.632 134.277 27.632 134.379 27.632C134.505 27.632 134.619 27.6447 134.721 27.67V34.168ZM146.733 48V21.02H158.361C159.678 21.02 160.894 21.286 162.009 21.818C163.124 22.35 164.086 23.072 164.897 23.984C165.708 24.8707 166.328 25.8713 166.759 26.986C167.215 28.1007 167.443 29.228 167.443 30.368C167.443 31.964 167.063 33.4713 166.303 34.89C165.568 36.3087 164.53 37.474 163.187 38.386C161.87 39.2727 160.324 39.716 158.551 39.716H154.143V48H146.733ZM154.143 33.256H158.057C158.361 33.256 158.652 33.1673 158.931 32.99C159.21 32.8127 159.438 32.5087 159.615 32.078C159.818 31.6473 159.919 31.0773 159.919 30.368C159.919 29.608 159.805 29.0253 159.577 28.62C159.374 28.1893 159.108 27.898 158.779 27.746C158.475 27.5687 158.171 27.48 157.867 27.48H154.143V33.256ZM184.241 34.168C182.847 34.168 181.581 34.32 180.441 34.624C179.301 34.928 178.452 35.4347 177.895 36.144V48H170.675V28.012H177.287V31.812C177.996 30.4693 178.883 29.4433 179.947 28.734C181.011 27.9993 182.138 27.632 183.329 27.632C183.607 27.632 183.797 27.632 183.899 27.632C184.025 27.632 184.139 27.6447 184.241 27.67V34.168ZM197.085 48.38C195.312 48.38 193.741 48.1013 192.373 47.544C191.005 46.9867 189.853 46.2267 188.915 45.264C188.003 44.276 187.307 43.1613 186.825 41.92C186.369 40.6787 186.141 39.374 186.141 38.006C186.141 36.638 186.369 35.3333 186.825 34.092C187.307 32.8253 188.003 31.7107 188.915 30.748C189.853 29.7853 191.005 29.0253 192.373 28.468C193.741 27.9107 195.312 27.632 197.085 27.632C198.884 27.632 200.455 27.9107 201.797 28.468C203.165 29.0253 204.305 29.7853 205.217 30.748C206.155 31.7107 206.851 32.8253 207.307 34.092C207.789 35.3333 208.029 36.638 208.029 38.006C208.029 39.374 207.789 40.6787 207.307 41.92C206.851 43.1613 206.155 44.276 205.217 45.264C204.305 46.2267 203.165 46.9867 201.797 47.544C200.455 48.1013 198.884 48.38 197.085 48.38ZM193.551 38.006C193.551 38.8927 193.703 39.6653 194.007 40.324C194.311 40.9573 194.729 41.4513 195.261 41.806C195.793 42.1353 196.401 42.3 197.085 42.3C197.769 42.3 198.377 42.1353 198.909 41.806C199.441 41.4513 199.859 40.9573 200.163 40.324C200.467 39.6653 200.619 38.8927 200.619 38.006C200.619 37.1193 200.467 36.3593 200.163 35.726C199.859 35.0673 199.441 34.5733 198.909 34.244C198.377 33.8893 197.769 33.712 197.085 33.712C196.401 33.712 195.793 33.8893 195.261 34.244C194.729 34.5733 194.311 35.0673 194.007 35.726C193.703 36.3593 193.551 37.1193 193.551 38.006ZM212.751 35.764H210.281V30.33H212.751V28.164C212.751 26.8973 212.967 25.7573 213.397 24.744C213.853 23.7307 214.487 22.8693 215.297 22.16C216.108 21.4253 217.071 20.868 218.185 20.488C219.3 20.0827 220.516 19.88 221.833 19.88C222.821 19.88 223.771 19.994 224.683 20.222C225.621 20.4247 226.571 20.754 227.533 21.21C228.496 21.666 229.509 22.236 230.573 22.92L227.837 28.392C226.976 27.632 226.064 27.0367 225.101 26.606C224.139 26.1753 223.214 25.96 222.327 25.96C221.846 25.96 221.428 26.036 221.073 26.188C220.719 26.3147 220.44 26.53 220.237 26.834C220.06 27.1127 219.971 27.4673 219.971 27.898V30.33H231.333V48H224.113V35.764H219.971V48H212.751V35.764ZM235.555 20.26H242.775V40.058C242.775 40.7927 242.927 41.3627 243.231 41.768C243.56 42.148 244.029 42.338 244.637 42.338C244.941 42.338 245.27 42.2873 245.625 42.186C245.979 42.0847 246.309 41.9453 246.613 41.768L247.525 47.088C246.663 47.4933 245.688 47.81 244.599 48.038C243.535 48.266 242.521 48.38 241.559 48.38C239.633 48.38 238.151 47.886 237.113 46.898C236.074 45.8847 235.555 44.4533 235.555 42.604V20.26ZM259.817 48.38C258.069 48.38 256.511 48.114 255.143 47.582C253.775 47.0247 252.622 46.2773 251.685 45.34C250.773 44.4027 250.076 43.326 249.595 42.11C249.113 40.894 248.873 39.6147 248.873 38.272C248.873 36.3467 249.291 34.586 250.127 32.99C250.963 31.3687 252.191 30.0767 253.813 29.114C255.434 28.126 257.435 27.632 259.817 27.632C262.198 27.632 264.199 28.1133 265.821 29.076C267.442 30.0387 268.671 31.3053 269.507 32.876C270.343 34.4467 270.761 36.1567 270.761 38.006C270.761 38.386 270.735 38.7787 270.685 39.184C270.659 39.564 270.621 39.906 270.571 40.21H256.549C256.599 40.9193 256.789 41.502 257.119 41.958C257.473 42.3887 257.904 42.7053 258.411 42.908C258.943 43.1107 259.487 43.212 260.045 43.212C260.83 43.212 261.565 43.0347 262.249 42.68C262.958 42.3253 263.427 41.8313 263.655 41.198L269.773 42.946C269.241 44.01 268.493 44.9473 267.531 45.758C266.593 46.5687 265.479 47.2147 264.187 47.696C262.895 48.152 261.438 48.38 259.817 48.38ZM256.397 35.878H263.009C262.933 35.2193 262.743 34.662 262.439 34.206C262.16 33.75 261.78 33.3953 261.299 33.142C260.843 32.8887 260.311 32.762 259.703 32.762C259.095 32.762 258.55 32.8887 258.069 33.142C257.613 33.3953 257.233 33.75 256.929 34.206C256.65 34.662 256.473 35.2193 256.397 35.878Z" fill="#5B46AE"/>
</svg>
