<svg width="278" height="64" viewBox="0 0 278 64" fill="none" xmlns="http://www.w3.org/2000/svg">
<g filter="url(#filter0_d_713_93)">
<path d="M24.2351 14.9905C33.7525 15.8307 41.332 22.9928 42.7233 32.463C43.4231 37.2407 42.2368 42.4509 39.531 46.473C37.4483 49.5789 34.811 51.8783 31.4651 53.5164C29.3911 54.5263 27.3083 55.1457 24.9353 55.4683C23.8939 55.6123 21.0262 55.6123 19.9848 55.4683C15.3415 54.8402 11.2186 52.8459 8.04347 49.6893C5.03915 46.7021 3.05032 42.9345 2.32461 38.8443C1.80392 35.9334 1.90622 33.1334 2.65741 30.1715C3.51966 26.7601 5.38865 23.493 7.9324 20.9558C12.2341 16.6539 18.226 14.4558 24.2351 14.9905ZM20.4537 18.3256C19.0879 18.9707 18.4736 20.3539 18.6954 22.263C18.8235 23.3407 19.0198 24.0792 19.7367 26.2515C20.394 28.2458 20.4453 28.602 20.0695 28.7888C19.9075 28.8735 18.9939 28.8992 16.3478 28.8992C12.336 28.8992 12.2508 28.9075 11.551 29.5356C11.0048 30.0192 10.7572 30.5879 10.7572 31.3177C10.7572 32.2002 11.2353 33.0234 11.9606 33.3796L12.3021 33.5407L11.9263 33.6847C11.4912 33.8458 10.9021 34.4398 10.7058 34.9068C10.4841 35.4158 10.5267 36.1796 10.7998 36.7313C11.0386 37.2236 11.5084 37.6902 11.8495 37.7749C12.1055 37.8426 12.0971 37.9107 11.7981 38.0887C11.1923 38.4453 10.6799 39.3192 10.6799 40.0153C10.6799 40.4396 10.9359 41.0847 11.2432 41.4409C11.6958 41.9672 12.1226 42.1623 12.9761 42.213L13.7018 42.264L13.3519 42.4932C12.3702 43.1379 12.4216 44.5979 13.4542 45.2343L13.8638 45.4887H18.1834C23.501 45.48 25.3875 45.3443 28.2812 44.7589C29.7577 44.4621 31.61 44.2583 32.899 44.2583C33.8552 44.2583 34.2477 44.1562 34.3583 43.8764C34.4523 43.6219 34.418 33.3368 34.3157 33.1164C34.1366 32.7345 33.9487 32.6834 32.233 32.6241C30.4575 32.5564 30.1673 32.4966 29.6554 32.1317C28.9727 31.6394 27.8545 30.2056 26.8473 28.5252C25.917 26.9639 25.4389 26.2764 24.6539 25.3428C23.2626 23.6965 23.1089 23.3656 22.5882 20.8794C22.2467 19.2418 22.0763 18.656 21.8796 18.4269C21.5548 18.0711 21.0683 18.0371 20.4537 18.3256Z" fill="#5B46AE"/>
<rect width="3.32698" height="10.6829" rx="1.66349" transform="matrix(0.973369 -0.241379 0.249307 0.965461 16.4614 1.97412)" fill="#5B46AE"/>
<rect width="3.32698" height="10.6829" rx="1.66349" transform="matrix(0.973369 -0.241379 0.249307 0.965461 16.4614 1.97412)" fill="#5B46AE"/>
<rect width="3.29642" height="8.43975" rx="1.64821" transform="matrix(0.66169 -0.752129 0.762536 0.644237 9.27979 8.18262)" fill="#5B46AE"/>
<rect width="3.29642" height="8.43975" rx="1.64821" transform="matrix(0.66169 -0.752129 0.762536 0.644237 9.27979 8.18262)" fill="#5B46AE"/>
<rect width="3.33372" height="8.34418" rx="1.66686" transform="matrix(0.974168 0.229906 -0.238425 0.970192 25.3169 2.24207)" fill="#5B46AE"/>
<rect width="3.33372" height="8.34418" rx="1.66686" transform="matrix(0.974168 0.229906 -0.238425 0.970192 25.3169 2.24207)" fill="#5B46AE"/>
<path d="M253.981 11.7298L254.049 12.0087L254.325 12.0902L263.277 14.7368L254.325 17.3835L254.049 17.4649L253.981 17.7439L251.619 27.3743L249.258 17.7439L249.189 17.4649L248.914 17.3835L239.961 14.7368L248.914 12.0902L249.189 12.0087L249.258 11.7298L251.619 2.09943L253.981 11.7298Z" fill="#48DFB7" stroke="#5B46AE"/>
<path d="M56.1374 20.8095L60.9634 31.8295L65.9034 20.8095H73.9594L64.6494 38.8595V47.7895H57.2774V38.7835L48.1194 20.8095H56.1374ZM82.5566 48.1695C80.7833 48.1695 79.2126 47.8908 77.8446 47.3335C76.4766 46.7762 75.3239 46.0162 74.3866 45.0535C73.4746 44.0655 72.7779 42.9508 72.2966 41.7095C71.8406 40.4682 71.6126 39.1635 71.6126 37.7955C71.6126 36.4275 71.8406 35.1228 72.2966 33.8815C72.7779 32.6148 73.4746 31.5002 74.3866 30.5375C75.3239 29.5748 76.4766 28.8148 77.8446 28.2575C79.2126 27.7002 80.7833 27.4215 82.5566 27.4215C84.3553 27.4215 85.9259 27.7002 87.2686 28.2575C88.6366 28.8148 89.7766 29.5748 90.6886 30.5375C91.6259 31.5002 92.3226 32.6148 92.7786 33.8815C93.2599 35.1228 93.5006 36.4275 93.5006 37.7955C93.5006 39.1635 93.2599 40.4682 92.7786 41.7095C92.3226 42.9508 91.6259 44.0655 90.6886 45.0535C89.7766 46.0162 88.6366 46.7762 87.2686 47.3335C85.9259 47.8908 84.3553 48.1695 82.5566 48.1695ZM79.0226 37.7955C79.0226 38.6822 79.1746 39.4548 79.4786 40.1135C79.7826 40.7468 80.2006 41.2408 80.7326 41.5955C81.2646 41.9248 81.8726 42.0895 82.5566 42.0895C83.2406 42.0895 83.8486 41.9248 84.3806 41.5955C84.9126 41.2408 85.3306 40.7468 85.6346 40.1135C85.9386 39.4548 86.0906 38.6822 86.0906 37.7955C86.0906 36.9088 85.9386 36.1488 85.6346 35.5155C85.3306 34.8568 84.9126 34.3628 84.3806 34.0335C83.8486 33.6788 83.2406 33.5015 82.5566 33.5015C81.8726 33.5015 81.2646 33.6788 80.7326 34.0335C80.2006 34.3628 79.7826 34.8568 79.4786 35.5155C79.1746 36.1488 79.0226 36.9088 79.0226 37.7955ZM96.6264 40.9495V27.8015H103.846V39.3155C103.846 40.1768 104.036 40.8608 104.416 41.3675C104.822 41.8488 105.366 42.0895 106.05 42.0895C106.43 42.0895 106.81 42.0388 107.19 41.9375C107.57 41.8362 107.95 41.6335 108.33 41.3295C108.736 41.0255 109.128 40.5948 109.508 40.0375V27.8015H116.728V39.8095C116.728 40.4935 116.83 40.9748 117.032 41.2535C117.235 41.5068 117.59 41.6588 118.096 41.7095V47.7895C117.463 47.9162 116.893 48.0048 116.386 48.0555C115.88 48.1315 115.436 48.1695 115.056 48.1695C113.84 48.1695 112.878 47.9415 112.168 47.4855C111.459 47.0295 111.003 46.3328 110.8 45.3955L110.648 44.6735C109.711 45.9148 108.584 46.8142 107.266 47.3715C105.974 47.9035 104.505 48.1695 102.858 48.1695C100.857 48.1695 99.3117 47.5488 98.2224 46.3075C97.1584 45.0662 96.6264 43.2802 96.6264 40.9495ZM135.375 33.9575C133.981 33.9575 132.715 34.1095 131.575 34.4135C130.435 34.7175 129.586 35.2242 129.029 35.9335V47.7895H121.809V27.8015H128.421V31.6015C129.13 30.2588 130.017 29.2328 131.081 28.5235C132.145 27.7888 133.272 27.4215 134.463 27.4215C134.741 27.4215 134.931 27.4215 135.033 27.4215C135.159 27.4215 135.273 27.4342 135.375 27.4595V33.9575ZM147.387 47.7895V20.8095H159.015C160.333 20.8095 161.549 21.0755 162.663 21.6075C163.778 22.1395 164.741 22.8615 165.551 23.7735C166.362 24.6602 166.983 25.6608 167.413 26.7755C167.869 27.8902 168.097 29.0175 168.097 30.1575C168.097 31.7535 167.717 33.2608 166.957 34.6795C166.223 36.0982 165.184 37.2635 163.841 38.1755C162.524 39.0622 160.979 39.5055 159.205 39.5055H154.797V47.7895H147.387ZM154.797 33.0455H158.711C159.015 33.0455 159.307 32.9568 159.585 32.7795C159.864 32.6022 160.092 32.2982 160.269 31.8675C160.472 31.4368 160.573 30.8668 160.573 30.1575C160.573 29.3975 160.459 28.8148 160.231 28.4095C160.029 27.9788 159.763 27.6875 159.433 27.5355C159.129 27.3582 158.825 27.2695 158.521 27.2695H154.797V33.0455ZM184.895 33.9575C183.502 33.9575 182.235 34.1095 181.095 34.4135C179.955 34.7175 179.106 35.2242 178.549 35.9335V47.7895H171.329V27.8015H177.941V31.6015C178.65 30.2588 179.537 29.2328 180.601 28.5235C181.665 27.7888 182.792 27.4215 183.983 27.4215C184.262 27.4215 184.452 27.4215 184.553 27.4215C184.68 27.4215 184.794 27.4342 184.895 27.4595V33.9575ZM197.74 48.1695C195.966 48.1695 194.396 47.8908 193.028 47.3335C191.66 46.7762 190.507 46.0162 189.57 45.0535C188.658 44.0655 187.961 42.9508 187.48 41.7095C187.024 40.4682 186.796 39.1635 186.796 37.7955C186.796 36.4275 187.024 35.1228 187.48 33.8815C187.961 32.6148 188.658 31.5002 189.57 30.5375C190.507 29.5748 191.66 28.8148 193.028 28.2575C194.396 27.7002 195.966 27.4215 197.74 27.4215C199.538 27.4215 201.109 27.7002 202.452 28.2575C203.82 28.8148 204.96 29.5748 205.872 30.5375C206.809 31.5002 207.506 32.6148 207.962 33.8815C208.443 35.1228 208.684 36.4275 208.684 37.7955C208.684 39.1635 208.443 40.4682 207.962 41.7095C207.506 42.9508 206.809 44.0655 205.872 45.0535C204.96 46.0162 203.82 46.7762 202.452 47.3335C201.109 47.8908 199.538 48.1695 197.74 48.1695ZM194.206 37.7955C194.206 38.6822 194.358 39.4548 194.662 40.1135C194.966 40.7468 195.384 41.2408 195.916 41.5955C196.448 41.9248 197.056 42.0895 197.74 42.0895C198.424 42.0895 199.032 41.9248 199.564 41.5955C200.096 41.2408 200.514 40.7468 200.818 40.1135C201.122 39.4548 201.274 38.6822 201.274 37.7955C201.274 36.9088 201.122 36.1488 200.818 35.5155C200.514 34.8568 200.096 34.3628 199.564 34.0335C199.032 33.6788 198.424 33.5015 197.74 33.5015C197.056 33.5015 196.448 33.6788 195.916 34.0335C195.384 34.3628 194.966 34.8568 194.662 35.5155C194.358 36.1488 194.206 36.9088 194.206 37.7955ZM213.405 35.5535H210.935V30.1195H213.405V27.9535C213.405 26.6868 213.621 25.5468 214.051 24.5335C214.507 23.5202 215.141 22.6588 215.951 21.9495C216.762 21.2148 217.725 20.6575 218.839 20.2775C219.954 19.8722 221.17 19.6695 222.487 19.6695C223.475 19.6695 224.425 19.7835 225.337 20.0115C226.275 20.2142 227.225 20.5435 228.187 20.9995C229.15 21.4555 230.163 22.0255 231.227 22.7095L228.491 28.1815C227.63 27.4215 226.718 26.8262 225.755 26.3955C224.793 25.9648 223.868 25.7495 222.981 25.7495C222.5 25.7495 222.082 25.8255 221.727 25.9775C221.373 26.1042 221.094 26.3195 220.891 26.6235C220.714 26.9022 220.625 27.2568 220.625 27.6875V30.1195H231.987V47.7895H224.767V35.5535H220.625V47.7895H213.405V35.5535ZM236.209 20.0495H243.429V39.8475C243.429 40.5822 243.581 41.1522 243.885 41.5575C244.214 41.9375 244.683 42.1275 245.291 42.1275C245.595 42.1275 245.924 42.0768 246.279 41.9755C246.634 41.8742 246.963 41.7348 247.267 41.5575L248.179 46.8775C247.318 47.2828 246.342 47.5995 245.253 47.8275C244.189 48.0555 243.176 48.1695 242.213 48.1695C240.288 48.1695 238.806 47.6755 237.767 46.6875C236.728 45.6742 236.209 44.2428 236.209 42.3935V20.0495ZM260.471 48.1695C258.723 48.1695 257.165 47.9035 255.797 47.3715C254.429 46.8142 253.276 46.0668 252.339 45.1295C251.427 44.1922 250.73 43.1155 250.249 41.8995C249.767 40.6835 249.527 39.4042 249.527 38.0615C249.527 36.1362 249.945 34.3755 250.781 32.7795C251.617 31.1582 252.845 29.8662 254.467 28.9035C256.088 27.9155 258.089 27.4215 260.471 27.4215C262.852 27.4215 264.853 27.9028 266.475 28.8655C268.096 29.8282 269.325 31.0948 270.161 32.6655C270.997 34.2362 271.415 35.9462 271.415 37.7955C271.415 38.1755 271.389 38.5682 271.339 38.9735C271.313 39.3535 271.275 39.6955 271.225 39.9995H257.203C257.253 40.7088 257.443 41.2915 257.773 41.7475C258.127 42.1782 258.558 42.4948 259.065 42.6975C259.597 42.9002 260.141 43.0015 260.699 43.0015C261.484 43.0015 262.219 42.8242 262.903 42.4695C263.612 42.1148 264.081 41.6208 264.309 40.9875L270.427 42.7355C269.895 43.7995 269.147 44.7368 268.185 45.5475C267.247 46.3582 266.133 47.0042 264.841 47.4855C263.549 47.9415 262.092 48.1695 260.471 48.1695ZM257.051 35.6675H263.663C263.587 35.0088 263.397 34.4515 263.093 33.9955C262.814 33.5395 262.434 33.1848 261.953 32.9315C261.497 32.6782 260.965 32.5515 260.357 32.5515C259.749 32.5515 259.204 32.6782 258.723 32.9315C258.267 33.1848 257.887 33.5395 257.583 33.9955C257.304 34.4515 257.127 35.0088 257.051 35.6675Z" fill="#5B46AE"/>
</g>
<defs>
<filter id="filter0_d_713_93" x="0" y="0" width="278" height="64" filterUnits="userSpaceOnUse" color-interpolation-filters="sRGB">
<feFlood flood-opacity="0" result="BackgroundImageFix"/>
<feColorMatrix in="SourceAlpha" type="matrix" values="0 0 0 0 0 0 0 0 0 0 0 0 0 0 0 0 0 0 127 0" result="hardAlpha"/>
<feOffset dx="2" dy="4"/>
<feGaussianBlur stdDeviation="2"/>
<feComposite in2="hardAlpha" operator="out"/>
<feColorMatrix type="matrix" values="0 0 0 0 0.282353 0 0 0 0 0.87451 0 0 0 0 0.717647 0 0 0 1 0"/>
<feBlend mode="normal" in2="BackgroundImageFix" result="effect1_dropShadow_713_93"/>
<feBlend mode="normal" in="SourceGraphic" in2="effect1_dropShadow_713_93" result="shape"/>
</filter>
</defs>
</svg>
