<svg width="48" height="48" viewBox="0 0 48 48" fill="none" xmlns="http://www.w3.org/2000/svg">
<g filter="url(#filter0_d_715_159)">
<path d="M22.0002 32.2502C19.9234 32.2502 17.8716 31.7206 16.0667 30.7189C12.1706 28.5579 9.75 24.4505 9.75 20C9.75 15.5495 12.1705 11.4421 16.067 9.28103C17.8717 8.27939 19.9234 7.74994 22.0002 7.74994C24.6807 7.74994 27.2266 8.60017 29.3628 10.2088C31.428 11.7641 32.9767 13.9762 33.724 16.4378C33.9022 17.0251 33.5706 17.6455 32.9834 17.8238C32.3964 18.0021 31.7758 17.6706 31.5974 17.0832C30.3065 12.8299 26.4497 9.97213 22.0002 9.97213C20.3 9.97213 18.6211 10.4051 17.1453 11.2242C13.9544 12.994 11.9723 16.3567 11.9723 20C11.9723 23.6434 13.9544 27.006 17.1449 28.7756C18.621 29.595 20.2998 30.0279 22.0002 30.0279C26.4194 30.0279 30.2687 27.1951 31.5786 22.9788C31.7608 22.393 32.383 22.0655 32.9694 22.2474C33.5554 22.4295 33.883 23.0521 33.7009 23.6381C32.9419 26.0812 31.3903 28.2746 29.332 29.8145C27.202 31.4079 24.6667 32.2502 22.0002 32.2502Z" fill="#5B46AE"/>
<path d="M10.8608 20C10.8608 15.8056 13.1803 12.1526 16.6057 10.2527C20.0309 12.1525 22.3505 15.8054 22.3505 20C22.3505 24.1946 20.0311 27.8474 16.6057 29.7474C13.1803 27.8475 10.8608 24.1946 10.8608 20Z" fill="#48DFB7"/>
<path d="M16.606 30.8584C16.4203 30.8584 16.2347 30.812 16.067 30.719C12.1706 28.5577 9.75 24.4504 9.75 20C9.75 15.5495 12.1705 11.4421 16.067 9.281C16.4023 9.09514 16.8096 9.09514 17.1448 9.281C21.0413 11.4422 23.4619 15.5494 23.4619 20C23.4619 24.4505 21.0413 28.5579 17.1449 30.719C16.9772 30.812 16.7916 30.8584 16.606 30.8584ZM16.606 11.5457C13.7327 13.3822 11.9723 16.5664 11.9723 20C11.9723 23.4336 13.7325 26.6178 16.606 28.4544C19.4794 26.6179 21.2398 23.4337 21.2398 20C21.2398 16.5662 19.4794 13.3822 16.606 11.5457Z" fill="#5B46AE"/>
<path d="M21.9998 4.4443C21.3861 4.4443 20.8887 3.94688 20.8887 3.3332V1.11109C20.8887 0.497422 21.3861 0 21.9998 0C22.6134 0 23.1109 0.497422 23.1109 1.11109V3.33313C23.1109 3.9468 22.6134 4.4443 21.9998 4.4443Z" fill="#5B46AE"/>
<path d="M21.9998 40C21.3861 40 20.8887 39.5026 20.8887 38.8889V36.6669C20.8887 36.0532 21.3861 35.5558 21.9998 35.5558C22.6134 35.5558 23.1109 36.0532 23.1109 36.6669V38.8889C23.1109 39.5026 22.6134 40 21.9998 40Z" fill="#5B46AE"/>
<path d="M10.2146 9.32585C9.93023 9.32585 9.64586 9.21742 9.42891 9.00039L7.85766 7.42929C7.42375 6.99539 7.42375 6.29187 7.85766 5.85781C8.29156 5.42382 8.99508 5.4239 9.42914 5.85781L11.0004 7.42906C11.4343 7.86296 11.4343 8.56648 11.0004 9.00054C10.7834 9.21742 10.4989 9.32585 10.2146 9.32585Z" fill="#5B46AE"/>
<path d="M35.3567 34.4676C35.0722 34.4676 34.788 34.3591 34.571 34.1421L32.9997 32.5709C32.5658 32.137 32.5658 31.4334 32.9997 30.9994C33.4337 30.5655 34.1371 30.5655 34.5712 30.9994L36.1425 32.5706C36.5764 33.0045 36.5764 33.7081 36.1425 34.1421C35.9254 34.3591 35.6412 34.4676 35.3567 34.4676Z" fill="#5B46AE"/>
<path d="M33.7854 9.32586C33.501 9.32586 33.2168 9.21742 32.9997 9.00039C32.5658 8.56648 32.5658 7.86297 32.9997 7.42891L34.571 5.85766C35.005 5.42375 35.7083 5.42375 36.1425 5.85766C36.5764 6.29156 36.5764 6.99508 36.1425 7.42914L34.5712 9.00039C34.3543 9.21742 34.0699 9.32586 33.7854 9.32586Z" fill="#5B46AE"/>
<path d="M8.64336 34.4676C8.35898 34.4676 8.07461 34.3591 7.85766 34.1421C7.42375 33.7082 7.42375 33.0047 7.85766 32.5706L9.42891 30.9994C9.86281 30.5655 10.5663 30.5655 11.0004 30.9994C11.4345 31.4333 11.4343 32.1368 11.0004 32.5709L9.42922 34.1422C9.21203 34.3591 8.92773 34.4676 8.64336 34.4676Z" fill="#5B46AE"/>
<path d="M40.8888 21.1111H38.6668C38.0532 21.1111 37.5557 20.6137 37.5557 20C37.5557 19.3863 38.0532 18.8889 38.6668 18.8889H40.8888C41.5024 18.8889 41.9999 19.3863 41.9999 20C41.9999 20.6137 41.5025 21.1111 40.8888 21.1111Z" fill="#5B46AE"/>
<path d="M5.33312 21.1111H3.11109C2.49742 21.1111 2 20.6137 2 20C2 19.3863 2.49742 18.8889 3.11109 18.8889H5.33312C5.9468 18.8889 6.44422 19.3863 6.44422 20C6.44422 20.6137 5.9468 21.1111 5.33312 21.1111Z" fill="#5B46AE"/>
</g>
<defs>
<filter id="filter0_d_715_159" x="0" y="0" width="48" height="48" filterUnits="userSpaceOnUse" color-interpolation-filters="sRGB">
<feFlood flood-opacity="0" result="BackgroundImageFix"/>
<feColorMatrix in="SourceAlpha" type="matrix" values="0 0 0 0 0 0 0 0 0 0 0 0 0 0 0 0 0 0 127 0" result="hardAlpha"/>
<feOffset dx="2" dy="4"/>
<feGaussianBlur stdDeviation="2"/>
<feComposite in2="hardAlpha" operator="out"/>
<feColorMatrix type="matrix" values="0 0 0 0 0.356863 0 0 0 0 0.27451 0 0 0 0 0.682353 0 0 0 1 0"/>
<feBlend mode="normal" in2="BackgroundImageFix" result="effect1_dropShadow_715_159"/>
<feBlend mode="normal" in="SourceGraphic" in2="effect1_dropShadow_715_159" result="shape"/>
</filter>
</defs>
</svg>
