<svg width="40" height="40" viewBox="0 0 40 40" fill="none" xmlns="http://www.w3.org/2000/svg">
<path d="M20.0002 32.2502C17.9234 32.2502 15.8716 31.7206 14.0667 30.7189C10.1706 28.5579 7.75 24.4505 7.75 20C7.75 15.5495 10.1705 11.4421 14.067 9.28103C15.8717 8.27939 17.9234 7.74994 20.0002 7.74994C22.6807 7.74994 25.2266 8.60017 27.3628 10.2088C29.428 11.7641 30.9767 13.9762 31.724 16.4378C31.9022 17.0251 31.5706 17.6455 30.9834 17.8238C30.3964 18.0021 29.7758 17.6706 29.5974 17.0832C28.3065 12.8299 24.4497 9.97213 20.0002 9.97213C18.3 9.97213 16.6211 10.4051 15.1453 11.2242C11.9544 12.994 9.97234 16.3567 9.97234 20C9.97234 23.6434 11.9544 27.006 15.1449 28.7756C16.621 29.595 18.2998 30.0279 20.0002 30.0279C24.4194 30.0279 28.2687 27.1951 29.5786 22.9788C29.7608 22.393 30.383 22.0655 30.9694 22.2474C31.5554 22.4295 31.883 23.0521 31.7009 23.6381C30.9419 26.0812 29.3903 28.2746 27.332 29.8145C25.202 31.4079 22.6667 32.2502 20.0002 32.2502Z" fill="#695F59"/>
<path d="M8.86084 20C8.86084 15.8056 11.1803 12.1526 14.6057 10.2527C18.0309 12.1525 20.3505 15.8054 20.3505 20C20.3505 24.1946 18.0311 27.8474 14.6057 29.7474C11.1803 27.8475 8.86084 24.1946 8.86084 20Z" fill="#877A72"/>
<path d="M14.606 30.8584C14.4203 30.8584 14.2347 30.812 14.067 30.719C10.1706 28.5577 7.75 24.4504 7.75 20C7.75 15.5495 10.1705 11.4421 14.067 9.281C14.4023 9.09514 14.8096 9.09514 15.1448 9.281C19.0413 11.4422 21.4619 15.5494 21.4619 20C21.4619 24.4505 19.0413 28.5579 15.1449 30.719C14.9772 30.812 14.7916 30.8584 14.606 30.8584ZM14.606 11.5457C11.7327 13.3822 9.97227 16.5664 9.97227 20C9.97227 23.4336 11.7325 26.6178 14.606 28.4544C17.4794 26.6179 19.2398 23.4337 19.2398 20C19.2398 16.5662 17.4794 13.3822 14.606 11.5457Z" fill="#695F59"/>
<path d="M19.9998 4.4443C19.3861 4.4443 18.8887 3.94688 18.8887 3.3332V1.11109C18.8887 0.497422 19.3861 0 19.9998 0C20.6134 0 21.1109 0.497422 21.1109 1.11109V3.33313C21.1109 3.9468 20.6134 4.4443 19.9998 4.4443Z" fill="#695F59"/>
<path d="M19.9998 40C19.3861 40 18.8887 39.5026 18.8887 38.8889V36.6669C18.8887 36.0532 19.3861 35.5558 19.9998 35.5558C20.6134 35.5558 21.1109 36.0532 21.1109 36.6669V38.8889C21.1109 39.5026 20.6134 40 19.9998 40Z" fill="#695F59"/>
<path d="M8.21461 9.32585C7.93023 9.32585 7.64586 9.21742 7.42891 9.00039L5.85766 7.42929C5.42375 6.99539 5.42375 6.29187 5.85766 5.85781C6.29156 5.42382 6.99508 5.4239 7.42914 5.85781L9.00039 7.42906C9.4343 7.86296 9.4343 8.56648 9.00039 9.00054C8.78336 9.21742 8.49891 9.32585 8.21461 9.32585Z" fill="#695F59"/>
<path d="M33.3567 34.4676C33.0722 34.4676 32.788 34.3591 32.571 34.1421L30.9997 32.5709C30.5658 32.137 30.5658 31.4334 30.9997 30.9994C31.4337 30.5655 32.1371 30.5655 32.5712 30.9994L34.1425 32.5706C34.5764 33.0045 34.5764 33.7081 34.1425 34.1421C33.9254 34.3591 33.6412 34.4676 33.3567 34.4676Z" fill="#695F59"/>
<path d="M31.7854 9.32586C31.501 9.32586 31.2168 9.21742 30.9997 9.00039C30.5658 8.56648 30.5658 7.86297 30.9997 7.42891L32.571 5.85766C33.005 5.42375 33.7083 5.42375 34.1425 5.85766C34.5764 6.29156 34.5764 6.99508 34.1425 7.42914L32.5712 9.00039C32.3543 9.21742 32.0699 9.32586 31.7854 9.32586Z" fill="#695F59"/>
<path d="M6.64336 34.4676C6.35898 34.4676 6.07461 34.3591 5.85766 34.1421C5.42375 33.7082 5.42375 33.0047 5.85766 32.5706L7.42891 30.9994C7.86281 30.5655 8.56633 30.5655 9.00039 30.9994C9.43445 31.4333 9.4343 32.1368 9.00039 32.5709L7.42922 34.1422C7.21203 34.3591 6.92773 34.4676 6.64336 34.4676Z" fill="#695F59"/>
<path d="M38.8888 21.1111H36.6668C36.0532 21.1111 35.5557 20.6137 35.5557 20C35.5557 19.3863 36.0532 18.8889 36.6668 18.8889H38.8888C39.5024 18.8889 39.9999 19.3863 39.9999 20C39.9999 20.6137 39.5025 21.1111 38.8888 21.1111Z" fill="#695F59"/>
<path d="M3.33312 21.1111H1.11109C0.497422 21.1111 0 20.6137 0 20C0 19.3863 0.497422 18.8889 1.11109 18.8889H3.33312C3.9468 18.8889 4.44422 19.3863 4.44422 20C4.44422 20.6137 3.9468 21.1111 3.33312 21.1111Z" fill="#695F59"/>
</svg>
