<svg width="50" height="50" viewBox="0 0 50 50" fill="none" xmlns="http://www.w3.org/2000/svg">
<path d="M25.0002 40.3127C22.4043 40.3127 19.8396 39.6508 17.5834 38.3986C12.7133 35.6973 9.6875 30.5631 9.6875 25C9.6875 19.4369 12.7132 14.3026 17.5837 11.6012C19.8396 10.3492 22.4043 9.68738 25.0002 9.68738C28.3509 9.68738 31.5333 10.7502 34.2035 12.761C36.785 14.7051 38.7209 17.4702 39.655 20.5472C39.8777 21.2813 39.4633 22.0568 38.7293 22.2797C37.9955 22.5026 37.2197 22.0882 36.9968 21.354C35.3831 16.0374 30.5621 12.4651 25.0003 12.4651C22.875 12.4651 20.7764 13.0063 18.9316 14.0302C14.943 16.2425 12.4654 20.4458 12.4654 25C12.4654 29.5542 14.943 33.7574 18.9312 35.9695C20.7763 36.9937 22.8748 37.5348 25.0003 37.5348C30.5242 37.5348 35.3358 33.9938 36.9732 28.7235C37.201 27.9912 37.9787 27.5818 38.7117 27.8092C39.4442 28.0368 39.8537 28.8151 39.6261 29.5476C38.6773 32.6014 36.7379 35.3432 34.165 37.2681C31.5024 39.2598 28.3334 40.3127 25.0002 40.3127Z" fill="white"/>
<path d="M11.0762 25C11.0762 19.7569 13.9755 15.1907 18.2572 12.8158C22.5388 15.1905 25.4383 19.7567 25.4383 25C25.4383 30.2432 22.539 34.8093 18.2572 37.1842C13.9755 34.8094 11.0762 30.2432 11.0762 25Z" fill="white"/>
<path d="M18.2575 38.573C18.0254 38.573 17.7934 38.515 17.5838 38.3987C12.7133 35.6971 9.6875 30.5631 9.6875 25C9.6875 19.4369 12.7132 14.3026 17.5837 11.6012C18.0028 11.3689 18.512 11.3689 18.9311 11.6012C23.8017 14.3027 26.8273 19.4368 26.8273 25C26.8273 30.5632 23.8017 35.6973 18.9312 38.3987C18.7215 38.515 18.4896 38.573 18.2575 38.573ZM18.2575 14.4321C14.6658 16.7277 12.4653 20.708 12.4653 25C12.4653 29.292 14.6656 33.2722 18.2575 35.568C21.8492 33.2723 24.0497 29.2922 24.0497 25C24.0497 20.7078 21.8492 16.7277 18.2575 14.4321Z" fill="white"/>
<path d="M25.0002 5.55537C24.2331 5.55537 23.6113 4.93359 23.6113 4.1665V1.38887C23.6113 0.621777 24.2331 0 25.0002 0C25.7672 0 26.3891 0.621777 26.3891 1.38887V4.16641C26.3891 4.9335 25.7673 5.55537 25.0002 5.55537Z" fill="white"/>
<path d="M25.0002 50C24.2331 50 23.6113 49.3782 23.6113 48.6111V45.8336C23.6113 45.0665 24.2331 44.4447 25.0002 44.4447C25.7672 44.4447 26.3891 45.0665 26.3891 45.8336V48.6111C26.3891 49.3782 25.7673 50 25.0002 50Z" fill="white"/>
<path d="M10.2685 11.6573C9.91304 11.6573 9.55757 11.5218 9.28638 11.2505L7.32231 9.28665C6.77993 8.74426 6.77993 7.86487 7.32231 7.32229C7.8647 6.77981 8.74409 6.77991 9.28667 7.32229L11.2507 9.28635C11.7931 9.82874 11.7931 10.7081 11.2507 11.2507C10.9794 11.5218 10.6239 11.6573 10.2685 11.6573Z" fill="white"/>
<path d="M41.6958 43.0844C41.3402 43.0844 40.9849 42.9489 40.7136 42.6776L38.7496 40.7136C38.2072 40.1712 38.2072 39.2918 38.7496 38.7492C39.292 38.2068 40.1712 38.2068 40.7139 38.7492L42.678 40.7133C43.2204 41.2556 43.2204 42.135 42.678 42.6776C42.4066 42.9489 42.0513 43.0844 41.6958 43.0844Z" fill="white"/>
<path d="M39.7317 11.6573C39.3761 11.6573 39.0208 11.5218 38.7496 11.2505C38.2072 10.7081 38.2072 9.82871 38.7496 9.28613L40.7136 7.32207C41.2561 6.77969 42.1353 6.77969 42.678 7.32207C43.2204 7.86445 43.2204 8.74385 42.678 9.28643L40.7139 11.2505C40.4427 11.5218 40.0873 11.6573 39.7317 11.6573Z" fill="white"/>
<path d="M8.30444 43.0844C7.94897 43.0844 7.59351 42.9489 7.32231 42.6776C6.77993 42.1352 6.77993 41.2558 7.32231 40.7133L9.28638 38.7492C9.82876 38.2068 10.7082 38.2068 11.2507 38.7492C11.7933 39.2916 11.7931 40.171 11.2507 40.7136L9.28677 42.6777C9.01528 42.9489 8.65991 43.0844 8.30444 43.0844Z" fill="white"/>
<path d="M48.6112 26.3889H45.8337C45.0667 26.3889 44.4448 25.7671 44.4448 25C44.4448 24.2329 45.0668 23.6111 45.8337 23.6111H48.6112C49.3782 23.6111 50.0001 24.2329 50.0001 25C50.0001 25.7671 49.3783 26.3889 48.6112 26.3889Z" fill="white"/>
<path d="M4.16641 26.3889H1.38887C0.621777 26.3889 0 25.7671 0 25C0 24.2329 0.621777 23.6111 1.38887 23.6111H4.16641C4.9335 23.6111 5.55527 24.2329 5.55527 25C5.55527 25.7671 4.9335 26.3889 4.16641 26.3889Z" fill="white"/>
</svg>
