<svg width="58" height="58" viewBox="0 0 58 58" fill="none" xmlns="http://www.w3.org/2000/svg">
<g filter="url(#filter0_d_715_135)">
<path d="M27.0002 40.3127C24.4043 40.3127 21.8396 39.6508 19.5834 38.3986C14.7133 35.6973 11.6875 30.5631 11.6875 25C11.6875 19.4369 14.7132 14.3026 19.5837 11.6012C21.8396 10.3492 24.4043 9.68738 27.0002 9.68738C30.3509 9.68738 33.5333 10.7502 36.2035 12.761C38.785 14.7051 40.7209 17.4702 41.655 20.5472C41.8777 21.2813 41.4633 22.0568 40.7293 22.2797C39.9955 22.5026 39.2197 22.0882 38.9968 21.354C37.3831 16.0374 32.5621 12.4651 27.0003 12.4651C24.875 12.4651 22.7764 13.0063 20.9316 14.0302C16.943 16.2425 14.4654 20.4458 14.4654 25C14.4654 29.5542 16.943 33.7574 20.9312 35.9695C22.7763 36.9937 24.8748 37.5348 27.0003 37.5348C32.5242 37.5348 37.3358 33.9938 38.9732 28.7235C39.201 27.9912 39.9787 27.5818 40.7117 27.8092C41.4442 28.0368 41.8537 28.8151 41.6261 29.5476C40.6773 32.6014 38.7379 35.3432 36.165 37.2681C33.5024 39.2598 30.3334 40.3127 27.0002 40.3127Z" fill="#5B46AE"/>
<path d="M13.0762 25C13.0762 19.7569 15.9755 15.1907 20.2572 12.8158C24.5388 15.1905 27.4383 19.7567 27.4383 25C27.4383 30.2432 24.539 34.8093 20.2572 37.1842C15.9755 34.8094 13.0762 30.2432 13.0762 25Z" fill="#48DFB7"/>
<path d="M20.2575 38.573C20.0254 38.573 19.7934 38.515 19.5838 38.3987C14.7133 35.6971 11.6875 30.5631 11.6875 25C11.6875 19.4369 14.7132 14.3026 19.5837 11.6012C20.0028 11.3689 20.512 11.3689 20.9311 11.6012C25.8017 14.3027 28.8273 19.4368 28.8273 25C28.8273 30.5632 25.8017 35.6973 20.9312 38.3987C20.7215 38.515 20.4896 38.573 20.2575 38.573ZM20.2575 14.4321C16.6658 16.7277 14.4653 20.708 14.4653 25C14.4653 29.292 16.6656 33.2722 20.2575 35.568C23.8492 33.2723 26.0497 29.2922 26.0497 25C26.0497 20.7078 23.8492 16.7277 20.2575 14.4321Z" fill="#5B46AE"/>
<path d="M27.0002 5.55537C26.2331 5.55537 25.6113 4.93359 25.6113 4.1665V1.38887C25.6113 0.621777 26.2331 0 27.0002 0C27.7672 0 28.3891 0.621777 28.3891 1.38887V4.16641C28.3891 4.9335 27.7673 5.55537 27.0002 5.55537Z" fill="#5B46AE"/>
<path d="M27.0002 50C26.2331 50 25.6113 49.3782 25.6113 48.6111V45.8336C25.6113 45.0665 26.2331 44.4447 27.0002 44.4447C27.7672 44.4447 28.3891 45.0665 28.3891 45.8336V48.6111C28.3891 49.3782 27.7673 50 27.0002 50Z" fill="#5B46AE"/>
<path d="M12.2685 11.6573C11.913 11.6573 11.5576 11.5218 11.2864 11.2505L9.32231 9.28665C8.77993 8.74426 8.77993 7.86487 9.32231 7.32229C9.8647 6.77981 10.7441 6.77991 11.2867 7.32229L13.2507 9.28635C13.7931 9.82874 13.7931 10.7081 13.2507 11.2507C12.9794 11.5218 12.6239 11.6573 12.2685 11.6573Z" fill="#5B46AE"/>
<path d="M43.6958 43.0844C43.3402 43.0844 42.9849 42.9489 42.7136 42.6776L40.7496 40.7136C40.2072 40.1712 40.2072 39.2918 40.7496 38.7492C41.292 38.2068 42.1712 38.2068 42.7139 38.7492L44.678 40.7133C45.2204 41.2556 45.2204 42.135 44.678 42.6776C44.4066 42.9489 44.0513 43.0844 43.6958 43.0844Z" fill="#5B46AE"/>
<path d="M41.7317 11.6573C41.3761 11.6573 41.0208 11.5218 40.7496 11.2505C40.2072 10.7081 40.2072 9.82871 40.7496 9.28613L42.7136 7.32207C43.2561 6.77969 44.1353 6.77969 44.678 7.32207C45.2204 7.86445 45.2204 8.74385 44.678 9.28643L42.7139 11.2505C42.4427 11.5218 42.0873 11.6573 41.7317 11.6573Z" fill="#5B46AE"/>
<path d="M10.3044 43.0844C9.94897 43.0844 9.59351 42.9489 9.32231 42.6776C8.77993 42.1352 8.77993 41.2558 9.32231 40.7133L11.2864 38.7492C11.8288 38.2068 12.7082 38.2068 13.2507 38.7492C13.7933 39.2916 13.7931 40.171 13.2507 40.7136L11.2868 42.6777C11.0153 42.9489 10.6599 43.0844 10.3044 43.0844Z" fill="#5B46AE"/>
<path d="M50.6112 26.3889H47.8337C47.0667 26.3889 46.4448 25.7671 46.4448 25C46.4448 24.2329 47.0668 23.6111 47.8337 23.6111H50.6112C51.3782 23.6111 52.0001 24.2329 52.0001 25C52.0001 25.7671 51.3783 26.3889 50.6112 26.3889Z" fill="#5B46AE"/>
<path d="M6.16641 26.3889H3.38887C2.62178 26.3889 2 25.7671 2 25C2 24.2329 2.62178 23.6111 3.38887 23.6111H6.16641C6.9335 23.6111 7.55527 24.2329 7.55527 25C7.55527 25.7671 6.9335 26.3889 6.16641 26.3889Z" fill="#5B46AE"/>
</g>
<defs>
<filter id="filter0_d_715_135" x="0" y="0" width="58" height="58" filterUnits="userSpaceOnUse" color-interpolation-filters="sRGB">
<feFlood flood-opacity="0" result="BackgroundImageFix"/>
<feColorMatrix in="SourceAlpha" type="matrix" values="0 0 0 0 0 0 0 0 0 0 0 0 0 0 0 0 0 0 127 0" result="hardAlpha"/>
<feOffset dx="2" dy="4"/>
<feGaussianBlur stdDeviation="2"/>
<feComposite in2="hardAlpha" operator="out"/>
<feColorMatrix type="matrix" values="0 0 0 0 0.356863 0 0 0 0 0.27451 0 0 0 0 0.682353 0 0 0 1 0"/>
<feBlend mode="normal" in2="BackgroundImageFix" result="effect1_dropShadow_715_135"/>
<feBlend mode="normal" in="SourceGraphic" in2="effect1_dropShadow_715_135" result="shape"/>
</filter>
</defs>
</svg>
